<?xml version="1.0" encoding="utf-8"?>
<!-- Generator: Adobe Illustrator 23.0.0, SVG Export Plug-In . SVG Version: 6.00 Build 0)  -->
<svg version="1.1" xmlns="http://www.w3.org/2000/svg" xmlns:xlink="http://www.w3.org/1999/xlink" x="0px" y="0px"
	 viewBox="0 0 233.94 141.73" style="enable-background:new 0 0 233.94 141.73;" xml:space="preserve">
<style type="text/css">
	.st0{fill:#46B3CA;}
	.st1{fill:#524A4C;}
	.st2{display:none;}
</style>
<g id="Capa_1">
	<g>
		<rect x="20.01" y="93.28" class="st0" width="69.52" height="7.77"/>
	</g>
	<path d="M27.03,76.81c2.3,1.54,5.53,2.69,9.14,2.69c4.96,0,7.88-2.52,7.88-6.31c0-3.4-1.93-5.43-7.31-7.19
		c-6.79-2.2-10.23-5.27-10.23-10.59c0-5.76,4.86-10.1,12.11-10.1c4.07,0,6.94,0.93,8.72,1.98l-1.36,3.95
		c-1.2-0.71-3.86-1.92-7.47-1.92c-5.33,0-7.21,3.13-7.21,5.6c0,3.4,2.24,5.16,7.62,6.97c6.53,2.2,9.92,5.1,9.92,10.97
		c0,5.43-3.86,10.76-13.16,10.76c-3.71,0-7.83-1.15-9.97-2.69L27.03,76.81z"/>
	<path d="M60.76,71.16l-4.02,11.8h-5.01l13.26-36.98h5.8L84.2,82.96h-5.12l-4.28-11.8H60.76z M73.76,67.32l-4.02-11.08
		c-0.84-2.36-1.41-4.28-1.93-6.15h-0.1c-0.57,1.92-1.1,3.9-1.88,6.09L61.8,67.32H73.76z"/>
	<g>
		<path class="st1" d="M117.74,93.6l-1.23,4.71h-4.02l5.25-18.35h5.13l5.38,18.35h-4.23l-1.33-4.71H117.74z M122.13,90.49
			l-1.08-3.89c-0.31-1.09-0.61-2.45-0.87-3.54h-0.05c-0.26,1.09-0.51,2.48-0.79,3.54l-1.03,3.89H122.13z"/>
		<path class="st1" d="M133.77,81.4v3.59h2.79v3.05h-2.79v4.82c0,1.61,0.38,2.34,1.54,2.34c0.54,0,0.79-0.03,1.15-0.11l0.03,3.13
			c-0.49,0.19-1.43,0.35-2.51,0.35c-1.26,0-2.31-0.46-2.95-1.14c-0.72-0.79-1.08-2.07-1.08-3.95v-5.44h-1.67V85h1.67v-2.48
			L133.77,81.4z"/>
		<rect x="138.33" y="78.98" class="st1" width="3.9" height="19.33"/>
		<path class="st1" d="M157.94,89.24c0-1.66-0.05-3.05-0.1-4.25h3.38l0.18,1.85h0.08c0.51-0.87,1.77-2.15,3.87-2.15
			c2.56,0,4.49,1.82,4.49,5.74v7.87h-3.9v-7.38c0-1.71-0.56-2.88-1.97-2.88c-1.08,0-1.72,0.79-2,1.55c-0.1,0.27-0.13,0.65-0.13,1.03
			v7.68h-3.9L157.94,89.24L157.94,89.24z"/>
		<path class="st1" d="M176.66,81.4v3.59h2.79v3.05h-2.79v4.82c0,1.61,0.38,2.34,1.54,2.34c0.54,0,0.79-0.03,1.15-0.11l0.03,3.13
			c-0.49,0.19-1.43,0.35-2.51,0.35c-1.26,0-2.31-0.46-2.95-1.14c-0.72-0.79-1.08-2.07-1.08-3.95v-5.44h-1.67V85h1.67v-2.48
			L176.66,81.4z"/>
		<path class="st1" d="M185.25,81.29c0,1.14-0.79,2.07-2.1,2.07c-1.23,0-2.02-0.93-2.02-2.07c0-1.17,0.82-2.07,2.08-2.07
			C184.45,79.22,185.22,80.12,185.25,81.29 M181.22,84.99h3.9V98.3h-3.9V84.99z"/>
		<path class="st1" d="M197.17,97.95c-0.69,0.35-2,0.63-3.49,0.63c-4.05,0-6.64-2.64-6.64-6.8c0-3.89,2.51-7.08,7.18-7.08
			c1.03,0,2.15,0.19,2.97,0.52l-0.61,3.08c-0.46-0.22-1.15-0.41-2.18-0.41c-2.05,0-3.38,1.55-3.36,3.73c0,2.42,1.54,3.73,3.43,3.73
			c0.92,0,1.64-0.16,2.23-0.44L197.17,97.95z"/>
		<path class="st1" d="M210.93,91.5c0,4.87-3.26,7.1-6.61,7.1c-3.67,0-6.48-2.56-6.48-6.86c0-4.33,2.67-7.08,6.72-7.08
			C208.37,84.67,210.93,87.47,210.93,91.5 M201.86,91.64c0,2.29,0.9,4,2.56,4c1.54,0,2.49-1.61,2.49-4.03
			c0-1.96-0.72-3.97-2.49-3.97C202.58,87.64,201.86,89.68,201.86,91.64"/>
		<path class="st1" d="M155.33,95.07c0,1.25,0.05,2.47,0.21,3.21h-3.54l-0.23-1.33h-0.08c-0.83,1.06-2.12,1.63-3.62,1.63
			c-2.56,0-4.08-1.96-4.08-4.07c0-3.45,2.95-5.08,7.42-5.08v-0.16c0-0.73-0.36-1.74-2.3-1.74c-1.29,0-2.66,0.46-3.49,1.01
			l-0.72-2.66c0.88-0.52,2.61-1.2,4.91-1.2c4.21,0,5.53,2.61,5.53,5.76V95.07z M151.53,92c-2.07,0-3.67,0.52-3.67,2.09
			c0,1.06,0.67,1.58,1.55,1.58c0.96,0,1.78-0.68,2.04-1.52c0.05-0.22,0.08-0.46,0.08-0.71V92z M154.11,79.21l-3.15,4.13h-2.69
			l2.22-4.13H154.11z"/>
		<path class="st1" d="M113.96,62.65c1,0.68,2.44,1.19,3.99,1.19c2.29,0,3.63-1.27,3.63-3.11c0-1.68-0.93-2.68-3.27-3.6
			c-2.83-1.08-4.58-2.65-4.58-5.19c0-2.84,2.24-4.95,5.61-4.95c1.75,0,3.06,0.43,3.81,0.89l-0.62,1.92
			c-0.54-0.35-1.7-0.87-3.27-0.87c-2.37,0-3.27,1.49-3.27,2.73c0,1.7,1.05,2.54,3.45,3.51c2.93,1.19,4.4,2.68,4.4,5.35
			c0,2.81-1.96,5.27-6.05,5.27c-1.67,0-3.5-0.54-4.43-1.19L113.96,62.65z"/>
		<path class="st1" d="M127.24,59.41c0.05,3.22,1.98,4.54,4.27,4.54c1.62,0,2.62-0.3,3.45-0.68l0.41,1.7
			c-0.8,0.38-2.19,0.84-4.17,0.84c-3.83,0-6.12-2.68-6.12-6.62c0-3.95,2.21-7.03,5.84-7.03c4.09,0,5.15,3.73,5.15,6.14
			c0,0.49-0.03,0.84-0.08,1.11H127.24z M133.88,57.7c0.03-1.49-0.59-3.84-3.14-3.84c-2.32,0-3.29,2.19-3.47,3.84H133.88z"/>
		<path class="st1" d="M149.09,46.32v15.82c0,1.16,0.05,2.49,0.1,3.38h-2.01l-0.1-2.27h-0.08c-0.67,1.46-2.16,2.57-4.19,2.57
			c-3.01,0-5.35-2.68-5.35-6.65c-0.03-4.35,2.57-7,5.58-7c1.93,0,3.19,0.95,3.76,1.97h0.05v-7.81H149.09z M146.85,57.76
			c0-0.3-0.03-0.7-0.1-1c-0.33-1.49-1.57-2.73-3.27-2.73c-2.34,0-3.73,2.16-3.73,5.03c0,2.65,1.26,4.84,3.68,4.84
			c1.52,0,2.91-1.08,3.32-2.84c0.08-0.32,0.1-0.65,0.1-1.03V57.76z"/>
		<path class="st1" d="M153.62,59.41c0.05,3.22,1.98,4.54,4.27,4.54c1.62,0,2.62-0.3,3.45-0.68l0.41,1.7
			c-0.8,0.38-2.19,0.84-4.17,0.84c-3.83,0-6.12-2.68-6.12-6.62c0-3.95,2.21-7.03,5.84-7.03c4.09,0,5.15,3.73,5.15,6.14
			c0,0.49-0.03,0.84-0.08,1.11H153.62z M160.26,57.7c0.03-1.49-0.59-3.84-3.14-3.84c-2.32,0-3.29,2.19-3.47,3.84H160.26z"/>
		<path class="st1" d="M180.42,46.32v15.82c0,1.16,0.05,2.49,0.1,3.38h-2.01l-0.1-2.27h-0.08c-0.67,1.46-2.16,2.57-4.19,2.57
			c-3.01,0-5.35-2.68-5.35-6.65c-0.03-4.35,2.57-7,5.58-7c1.93,0,3.19,0.95,3.76,1.97h0.05v-7.81H180.42z M178.18,57.76
			c0-0.3-0.03-0.7-0.1-1c-0.33-1.49-1.57-2.73-3.27-2.73c-2.34,0-3.73,2.16-3.73,5.03c0,2.65,1.26,4.84,3.68,4.84
			c1.52,0,2.91-1.08,3.32-2.84c0.08-0.32,0.1-0.65,0.1-1.03V57.76z"/>
		<path class="st1" d="M184.95,59.41c0.05,3.22,1.98,4.54,4.27,4.54c1.62,0,2.62-0.3,3.45-0.68l0.41,1.7
			c-0.8,0.38-2.19,0.84-4.17,0.84c-3.83,0-6.12-2.68-6.12-6.62c0-3.95,2.21-7.03,5.84-7.03c4.09,0,5.15,3.73,5.15,6.14
			c0,0.49-0.03,0.84-0.08,1.11H184.95z M191.59,57.7c0.03-1.49-0.59-3.84-3.14-3.84c-2.32,0-3.29,2.19-3.47,3.84H191.59z"/>
		<rect x="196.07" y="46.32" class="st1" width="2.26" height="19.2"/>
	</g>
</g>
<g id="guías" class="st2">
</g>
<g id="guías_2" class="st2">
</g>
</svg>
