<?xml version="1.0" encoding="UTF-8" standalone="no"?>
<!-- Generator: Adobe Illustrator 23.0.0, SVG Export Plug-In . SVG Version: 6.00 Build 0)  -->

<svg
   version="1.1"
   id="Capa_1"
   x="0px"
   y="0px"
   viewBox="0 0 339.43 141.732"
   xml:space="preserve"
   sodipodi:docname="Logo establecimiento de meliponarios.svg"
   width="339.42999"
   height="141.73199"
   inkscape:version="1.1.1 (3bf5ae0d25, 2021-09-20)"
   xmlns:inkscape="http://www.inkscape.org/namespaces/inkscape"
   xmlns:sodipodi="http://sodipodi.sourceforge.net/DTD/sodipodi-0.dtd"
   xmlns="http://www.w3.org/2000/svg"
   xmlns:svg="http://www.w3.org/2000/svg"><defs
   id="defs279" /><sodipodi:namedview
   id="namedview277"
   pagecolor="#ffffff"
   bordercolor="#666666"
   borderopacity="1.0"
   inkscape:pageshadow="2"
   inkscape:pageopacity="0.0"
   inkscape:pagecheckerboard="0"
   showgrid="false"
   height="141.73199px"
   inkscape:zoom="2.000494"
   inkscape:cx="83.729319"
   inkscape:cy="-2.2494444"
   inkscape:window-width="1920"
   inkscape:window-height="1057"
   inkscape:window-x="-8"
   inkscape:window-y="-8"
   inkscape:window-maximized="1"
   inkscape:current-layer="Capa_1" />
<style
   type="text/css"
   id="style2">
	.st0{fill:#040404;}
	.st1{fill:#16C1F3;}
	.st2{fill:#030303;}
	.st3{fill:#666769;}
	.st4{fill:#656668;}
	.st5{fill:#666668;}
	.st6{fill:#646567;}
	.st7{fill:#67686A;}
	.st8{fill:#636466;}
	.st9{fill:#0C0C0C;}
</style>
<g
   id="g274"
   transform="matrix(1.2893399,0,0,1.8933994,-12.706987,0.39422459)">
	<g
   id="g272">
		<path
   class="st0"
   d="m 22.62,37.52 c 0.29,-0.04 0.57,-0.09 0.85,-0.12 1.47,-0.16 2.95,-0.24 4.43,-0.16 1.41,0.07 2.79,0.31 4.05,0.98 1.99,1.07 3.13,2.72 3.34,4.99 0.15,1.72 -0.2,3.33 -1.13,4.8 -0.89,1.41 -2.21,2.23 -3.77,2.73 -0.98,0.31 -1.99,0.48 -3.01,0.53 -1.58,0.08 -3.17,0.02 -4.77,-0.13 0.01,-4.54 0.01,-9.05 0.01,-13.62 z m 1.88,1.36 c 0,3.63 0,7.22 0,10.82 0.91,0.14 1.8,0.1 2.69,0.09 0.72,-0.01 1.43,-0.12 2.13,-0.32 1.83,-0.53 3.14,-1.62 3.74,-3.47 0.32,-0.97 0.37,-1.98 0.23,-2.99 -0.23,-1.63 -1.08,-2.84 -2.56,-3.57 -0.35,-0.17 -0.72,-0.31 -1.1,-0.41 -1.69,-0.47 -3.39,-0.38 -5.13,-0.15 z"
   id="path4" />
		<path
   class="st1"
   d="m 85.24,56.02 c 0,0.19 0,0.36 0,0.53 0,0.1 -0.01,0.2 -0.02,0.33 -24.82,0 -49.62,0 -74.45,0 0,-0.28 0,-0.56 0,-0.86 24.8,0 49.6,0 74.47,0 z"
   id="path6" />
		<path
   class="st2"
   d="m 12.41,51.13 c 0,-4.6 0,-9.18 0,-13.78 2.72,0 5.43,0 8.15,0 0,0.5 0,0.99 0,1.51 -2.08,0 -4.16,0 -6.26,0 0,1.45 0,2.87 0,4.32 1.97,0 3.94,0 5.93,0 0,0.51 0,0.99 0,1.51 -1.98,0 -3.95,0 -5.94,0 0,1.66 0,3.27 0,4.94 2.2,0 4.41,0 6.63,0 0,0.52 0,1 0,1.5 -2.83,0 -5.65,0 -8.51,0 z"
   id="path8" />
		<path
   class="st2"
   d="m 81.87,37.83 c 0,2.77 0,5.5 0,8.26 0.67,0 1.3,0 1.96,0 0,0.48 0,0.93 0,1.43 -0.63,0 -1.28,0 -1.96,0 0,1.23 0,2.41 0,3.61 -0.62,0 -1.2,0 -1.8,0 0,-1.19 0,-2.36 0,-3.59 -0.58,-0.01 -1.13,-0.01 -1.69,-0.01 -0.56,0 -1.13,0 -1.69,0 -0.56,0 -1.13,0 -1.69,0 -0.56,0 -1.12,0 -1.72,0 0,-0.39 -0.02,-0.75 0.01,-1.12 0.01,-0.13 0.11,-0.26 0.19,-0.37 1.51,-1.99 3.03,-3.98 4.55,-5.96 0.52,-0.68 1.04,-1.35 1.54,-2.03 0.12,-0.17 0.25,-0.23 0.46,-0.22 0.61,0.01 1.21,0 1.84,0 z m -1.79,1.64 c -0.12,0.2 -0.22,0.34 -0.3,0.48 -0.43,0.75 -0.91,1.46 -1.45,2.14 -0.96,1.19 -1.89,2.4 -2.84,3.61 -0.08,0.11 -0.16,0.22 -0.27,0.37 1.64,0 3.23,0 4.85,0 0.01,-2.2 0.01,-4.36 0.01,-6.6 z"
   id="path10" />
		<path
   class="st0"
   d="m 52.8,50.49 c 0.17,-0.49 0.33,-0.93 0.49,-1.4 0.11,0.05 0.2,0.09 0.28,0.13 1.01,0.47 2.07,0.72 3.19,0.66 0.82,-0.04 1.55,-0.33 2.18,-0.87 1.32,-1.15 1.09,-3.31 -0.29,-4.17 -0.56,-0.35 -1.16,-0.53 -1.8,-0.62 -0.97,-0.13 -1.93,-0.08 -2.9,0.05 -0.09,0.01 -0.18,0.02 -0.33,0.03 0.26,-2.15 0.57,-4.28 0.84,-6.44 2.29,0 4.58,0 6.89,0 0,0.5 0,1.01 0,1.55 -1.85,0 -3.68,0 -5.54,0 -0.16,1.11 -0.32,2.21 -0.49,3.34 0.28,-0.02 0.52,-0.04 0.77,-0.05 1.23,-0.06 2.42,0.07 3.55,0.65 1.49,0.76 2.26,2.32 2.06,3.95 -0.25,2.02 -1.47,3.26 -3.35,3.83 -1.78,0.54 -3.54,0.33 -5.24,-0.44 -0.09,-0.07 -0.18,-0.13 -0.31,-0.2 z"
   id="path12" />
		<path
   class="st0"
   d="m 42.25,50.39 c 0.17,-0.48 0.34,-0.95 0.49,-1.37 0.64,0.23 1.24,0.48 1.87,0.65 0.91,0.25 1.84,0.3 2.75,0.03 1.02,-0.29 1.74,-0.91 1.92,-2 0.15,-0.9 -0.14,-1.65 -0.87,-2.22 -0.54,-0.42 -1.17,-0.63 -1.84,-0.71 -0.39,-0.05 -0.78,-0.06 -1.17,-0.07 -0.31,-0.01 -0.63,0 -0.97,0 0,-0.47 0,-0.92 0,-1.42 0.36,0 0.72,0.02 1.08,-0.01 0.47,-0.03 0.94,-0.07 1.4,-0.17 0.52,-0.11 0.98,-0.35 1.36,-0.74 0.86,-0.87 0.68,-2.28 -0.37,-2.9 -0.38,-0.22 -0.79,-0.33 -1.23,-0.36 -1.09,-0.08 -2.1,0.2 -3.05,0.73 -0.1,0.06 -0.2,0.12 -0.34,0.21 -0.18,-0.46 -0.36,-0.9 -0.54,-1.35 0.63,-0.44 1.31,-0.7 2.03,-0.88 1.13,-0.29 2.28,-0.34 3.42,-0.04 0.6,0.15 1.15,0.43 1.61,0.86 1.25,1.2 1.25,3.15 0,4.35 -0.35,0.34 -0.76,0.59 -1.21,0.78 -0.12,0.05 -0.23,0.11 -0.41,0.19 0.19,0.05 0.31,0.08 0.43,0.12 1.13,0.35 2.02,0.99 2.46,2.13 0.51,1.3 0.12,2.86 -0.94,3.85 -0.72,0.67 -1.6,1.05 -2.55,1.21 -1.54,0.27 -3.05,0.15 -4.51,-0.45 -0.19,-0.08 -0.38,-0.18 -0.56,-0.28 -0.09,-0.03 -0.17,-0.08 -0.26,-0.14 z"
   id="path14" />
		<path
   class="st3"
   d="m 187.39,19.91 c -0.06,-1.72 -0.13,-3.41 -0.19,-5.1 -0.01,0 -0.02,0 -0.04,0 -0.51,1.67 -1.03,3.34 -1.55,5.01 -0.42,0 -0.81,0 -1.25,0 -0.44,-1.67 -0.88,-3.33 -1.33,-5.07 -0.08,1.75 -0.17,3.45 -0.25,5.16 -0.49,0 -0.94,0 -1.45,0 0.14,-2.26 0.29,-4.51 0.43,-6.82 0.34,0 0.68,-0.01 1.01,-0.01 0.34,0 0.68,0 1.06,0 0.47,1.53 0.93,3.05 1.25,4.66 0.47,-1.59 0.92,-3.12 1.38,-4.64 0.72,0 1.38,0 2.08,0 0.12,2.27 0.24,4.53 0.36,6.81 -0.5,0 -0.98,0 -1.51,0 z"
   id="path16" />
		<path
   class="st3"
   d="m 186.55,44.29 c -0.51,0 -0.96,0 -1.45,0 0.15,-2.28 0.29,-4.53 0.43,-6.81 0.7,0 1.37,0 2.08,0 0.46,1.52 0.92,3.04 1.24,4.64 0.47,-1.59 0.92,-3.11 1.38,-4.64 0.71,0 1.37,0 2.07,0 0.12,2.27 0.24,4.52 0.36,6.8 -0.51,0 -1,0 -1.52,0 -0.06,-1.71 -0.13,-3.41 -0.19,-5.19 -0.54,1.75 -1.06,3.42 -1.58,5.1 -0.42,0 -0.81,0 -1.25,0 -0.43,-1.65 -0.87,-3.3 -1.3,-4.96 -0.01,0 -0.02,-0.01 -0.03,-0.01 -0.08,1.69 -0.16,3.36 -0.24,5.07 z"
   id="path18" />
		<path
   class="st2"
   d="m 67.59,39.53 c -0.81,0.43 -1.57,0.82 -2.37,1.24 -0.13,-0.48 -0.25,-0.94 -0.37,-1.42 0.27,-0.14 0.53,-0.27 0.78,-0.4 0.64,-0.33 1.27,-0.67 1.92,-0.98 0.16,-0.08 0.34,-0.12 0.52,-0.13 0.43,-0.02 0.86,-0.01 1.31,-0.01 0,4.44 0,8.86 0,13.3 -0.59,0 -1.17,0 -1.78,0 -0.01,-3.85 -0.01,-7.69 -0.01,-11.6 z"
   id="path20" />
		<path
   class="st3"
   d="m 140.12,19.92 c -0.53,0 -1,0 -1.52,0 0,-0.16 0,-0.3 0,-0.44 0,-0.72 0,-1.44 0,-2.16 0,-0.18 -0.01,-0.37 -0.04,-0.55 -0.07,-0.43 -0.33,-0.69 -0.68,-0.68 -0.35,0.01 -0.68,0.32 -0.74,0.7 -0.02,0.13 -0.02,0.26 -0.02,0.39 0,0.83 0,1.65 0,2.48 0,0.08 -0.01,0.15 -0.02,0.25 -0.5,0 -0.98,0 -1.5,0 0,-1.63 0,-3.26 0,-4.92 0.4,0 0.81,0 1.26,0 0.02,0.17 0.04,0.34 0.07,0.57 0.12,-0.11 0.21,-0.2 0.3,-0.28 0.53,-0.46 1.14,-0.57 1.8,-0.36 0.35,0.11 0.6,0.37 0.79,0.71 0.11,-0.1 0.19,-0.19 0.28,-0.28 0.4,-0.38 0.88,-0.56 1.43,-0.53 0.61,0.04 1.08,0.32 1.32,0.89 0.12,0.3 0.22,0.63 0.23,0.94 0.03,1.03 0.01,2.07 0.01,3.1 0,0.04 -0.02,0.07 -0.03,0.13 -0.48,0 -0.95,0 -1.45,0 -0.01,-0.13 -0.02,-0.24 -0.02,-0.35 0,-0.76 0,-1.52 0,-2.28 0,-0.21 -0.03,-0.42 -0.08,-0.62 -0.08,-0.35 -0.32,-0.55 -0.62,-0.56 -0.3,-0.02 -0.61,0.19 -0.72,0.51 -0.05,0.16 -0.07,0.33 -0.07,0.5 -0.01,0.8 0,1.6 0,2.4 0.02,0.15 0.02,0.28 0.02,0.44 z"
   id="path22" />
		<path
   class="st3"
   d="m 179.06,32.1 c -0.51,0 -0.99,0 -1.51,0 0,-0.15 0,-0.28 0,-0.4 0,-0.75 0,-1.49 0,-2.24 0,-0.21 -0.02,-0.42 -0.07,-0.62 -0.1,-0.37 -0.35,-0.56 -0.67,-0.55 -0.32,0.01 -0.62,0.25 -0.7,0.59 -0.04,0.18 -0.05,0.36 -0.05,0.55 -0.01,0.79 0,1.57 0,2.36 0,0.1 -0.01,0.2 -0.02,0.32 -0.49,0 -0.96,0 -1.47,0 -0.01,-0.11 -0.02,-0.22 -0.02,-0.33 0,-0.8 0,-1.6 -0.01,-2.4 0,-0.21 -0.02,-0.42 -0.09,-0.62 -0.18,-0.53 -0.79,-0.63 -1.16,-0.21 -0.18,0.21 -0.24,0.45 -0.24,0.73 0.01,0.8 0,1.6 0,2.4 0,0.13 0,0.26 0,0.44 -0.5,0.02 -0.97,0.01 -1.5,0.01 0,-1.65 0,-3.28 0,-4.94 0.39,0 0.8,0 1.24,0 0.04,0.17 0.07,0.36 0.11,0.55 0.96,-1.01 2.21,-0.93 2.91,0.11 0.1,-0.11 0.19,-0.23 0.29,-0.32 0.41,-0.38 0.9,-0.54 1.44,-0.49 0.78,0.08 1.29,0.58 1.45,1.42 0.04,0.22 0.07,0.44 0.07,0.66 0.01,0.93 0,1.86 0,2.79 0.02,0.05 0.01,0.1 0,0.19 z"
   id="path24" />
		<path
   class="st3"
   d="m 103.27,58.25 c 0.1,-0.39 0.2,-0.75 0.3,-1.15 0.13,0.05 0.24,0.09 0.34,0.13 0.36,0.14 0.73,0.22 1.11,0.21 0.89,-0.01 1.38,-0.58 1.25,-1.51 -0.05,0.03 -0.1,0.05 -0.13,0.08 -0.62,0.67 -2.03,0.66 -2.78,-0.3 -0.73,-0.93 -0.69,-2.75 0.2,-3.64 0.55,-0.56 1.23,-0.75 1.98,-0.6 0.25,0.05 0.48,0.24 0.72,0.38 0.07,0.04 0.12,0.12 0.2,0.21 0.04,-0.19 0.06,-0.34 0.09,-0.51 0.44,0 0.87,0 1.29,0 0,0.33 0,0.64 0,0.95 0,1.13 0,2.25 -0.01,3.38 0,0.3 -0.03,0.6 -0.08,0.9 -0.18,0.97 -0.77,1.55 -1.72,1.76 -0.78,0.17 -1.56,0.13 -2.33,-0.09 -0.09,-0.03 -0.17,-0.06 -0.26,-0.1 -0.05,-0.03 -0.09,-0.06 -0.17,-0.1 z m 2.99,-4.3 c 0.01,0 0.02,0 0.03,0 -0.01,-0.21 0,-0.42 -0.03,-0.63 -0.05,-0.33 -0.24,-0.59 -0.57,-0.68 -0.35,-0.1 -0.69,-0.03 -0.92,0.27 -0.12,0.15 -0.21,0.33 -0.26,0.52 -0.14,0.51 -0.13,1.01 0.16,1.47 0.21,0.33 0.57,0.47 0.96,0.39 0.34,-0.07 0.6,-0.36 0.64,-0.76 0.01,-0.18 -0.01,-0.38 -0.01,-0.58 z"
   id="path26" />
		<path
   class="st3"
   d="m 141.7,58.26 c 0.1,-0.4 0.2,-0.77 0.3,-1.17 0.13,0.05 0.24,0.09 0.34,0.13 0.36,0.14 0.73,0.22 1.11,0.21 0.8,-0.01 1.24,-0.43 1.29,-1.22 0.01,-0.09 0,-0.17 0,-0.31 -0.08,0.05 -0.13,0.06 -0.16,0.1 -0.66,0.69 -2.04,0.63 -2.76,-0.26 -0.24,-0.3 -0.41,-0.64 -0.47,-1.02 -0.16,-0.9 -0.08,-1.76 0.51,-2.49 0.54,-0.68 1.26,-0.9 2.1,-0.76 0.37,0.06 0.67,0.28 0.92,0.62 0.04,-0.21 0.07,-0.36 0.1,-0.53 0.44,0 0.86,0 1.31,0 0.01,0.07 0.02,0.13 0.02,0.19 -0.01,1.3 -0.02,2.59 -0.04,3.89 -0.01,0.37 -0.02,0.73 -0.08,1.09 -0.17,1.01 -0.77,1.6 -1.76,1.81 -0.78,0.16 -1.56,0.12 -2.33,-0.11 -0.12,-0.04 -0.24,-0.1 -0.4,-0.17 z m 3.04,-4.34 c -0.02,-0.2 -0.01,-0.42 -0.06,-0.64 -0.07,-0.33 -0.27,-0.57 -0.61,-0.65 -0.34,-0.08 -0.65,0.01 -0.89,0.29 -0.42,0.48 -0.45,1.52 -0.07,2.03 0.24,0.32 0.56,0.42 0.94,0.34 0.33,-0.06 0.57,-0.34 0.63,-0.72 0.04,-0.2 0.04,-0.41 0.06,-0.65 z"
   id="path28" />
		<path
   class="st3"
   d="m 202.6,39.66 c 0,-0.43 0,-0.85 0,-1.26 0,-0.42 0,-0.84 0,-1.28 0.51,0 1.01,0 1.54,0 0,2.38 0,4.77 0,7.2 -0.21,0 -0.42,0 -0.64,0 -0.22,0 -0.44,0 -0.68,0 -0.03,-0.22 -0.05,-0.41 -0.08,-0.6 -0.03,-0.02 -0.06,-0.04 -0.09,-0.06 -0.03,0.06 -0.04,0.13 -0.08,0.18 -0.58,0.72 -1.89,0.88 -2.75,0.08 -0.58,-0.55 -0.78,-1.25 -0.79,-2.02 -0.01,-0.58 0.11,-1.14 0.42,-1.65 0.51,-0.82 1.46,-1.21 2.38,-0.94 0.25,0.05 0.48,0.2 0.77,0.35 z m 0.02,2.15 c -0.01,0 -0.02,0 -0.02,0 0,-0.17 0.01,-0.34 0,-0.51 -0.04,-0.4 -0.31,-0.75 -0.66,-0.84 -0.38,-0.09 -0.73,-0.01 -0.99,0.3 -0.41,0.49 -0.43,1.56 -0.03,2.06 0.24,0.3 0.56,0.43 0.94,0.35 0.36,-0.08 0.61,-0.3 0.69,-0.67 0.04,-0.22 0.05,-0.46 0.07,-0.69 z"
   id="path30" />
		<path
   class="st4"
   d="m 171.86,15.32 c 0,-0.89 0,-1.73 0,-2.59 0.52,0 1.01,0 1.54,0 0,2.38 0,4.76 0,7.19 -0.41,0.02 -0.85,0.01 -1.32,0.01 -0.03,-0.2 -0.05,-0.39 -0.08,-0.62 -0.06,0.04 -0.12,0.07 -0.15,0.11 -0.61,0.8 -2.21,0.95 -3.04,-0.2 -0.42,-0.58 -0.54,-1.24 -0.51,-1.93 0.03,-0.56 0.16,-1.09 0.5,-1.55 0.71,-1 1.93,-1.19 3.06,-0.42 z m 0.02,2.07 c -0.02,-0.22 -0.03,-0.46 -0.08,-0.68 -0.09,-0.36 -0.34,-0.58 -0.71,-0.66 -0.37,-0.07 -0.67,0.05 -0.91,0.33 -0.41,0.49 -0.43,1.53 -0.04,2.03 0.23,0.3 0.55,0.45 0.93,0.37 0.4,-0.08 0.66,-0.32 0.73,-0.72 0.05,-0.21 0.06,-0.43 0.08,-0.67 z"
   id="path32" />
		<path
   class="st3"
   d="m 209.05,51.92 c 0,-0.48 0,-0.9 0,-1.32 0,-0.42 0,-0.84 0,-1.25 0.3,-0.09 1.14,-0.11 1.55,-0.02 0,2.37 0,4.74 0,7.14 -0.43,0 -0.85,0 -1.32,0 -0.03,-0.19 -0.06,-0.37 -0.09,-0.59 -0.05,0.03 -0.09,0.04 -0.12,0.08 -0.89,0.96 -2.32,0.87 -3.08,-0.19 -0.22,-0.31 -0.37,-0.66 -0.43,-1.04 -0.12,-0.75 -0.08,-1.49 0.29,-2.18 0.66,-1.25 2.27,-1.47 3.2,-0.63 z m -0.01,2.07 c 0,0 0,0 0,0 0.01,-0.17 0.02,-0.34 0,-0.51 -0.04,-0.42 -0.33,-0.76 -0.71,-0.84 -0.42,-0.09 -0.83,0.07 -1.04,0.46 -0.31,0.58 -0.32,1.18 -0.04,1.77 0.19,0.4 0.59,0.58 1.01,0.51 0.4,-0.07 0.71,-0.39 0.76,-0.83 0.04,-0.19 0.02,-0.38 0.02,-0.56 z"
   id="path34" />
		<path
   class="st3"
   d="m 120.72,39.66 c 0,-0.42 0,-0.84 0,-1.26 0,-0.42 0,-0.84 0,-1.29 0.52,0 1.02,0 1.55,0 0,2.39 0,4.77 0,7.17 -0.43,0 -0.86,0 -1.32,0 -0.03,-0.2 -0.06,-0.39 -0.1,-0.6 -0.05,0.03 -0.09,0.05 -0.11,0.08 -0.61,0.85 -2.24,1.01 -3.08,-0.19 -0.49,-0.69 -0.57,-1.48 -0.46,-2.29 0.06,-0.43 0.21,-0.84 0.47,-1.19 0.53,-0.72 1.44,-1.05 2.3,-0.8 0.25,0.08 0.47,0.23 0.75,0.37 z m -0.01,2.17 c 0,0 0,0 0,0 0.01,-0.17 0.02,-0.34 0.01,-0.51 -0.02,-0.41 -0.28,-0.75 -0.64,-0.86 -0.4,-0.12 -0.82,0.03 -1.07,0.38 -0.35,0.49 -0.35,1.45 -0.01,1.94 0.23,0.32 0.63,0.48 1,0.4 0.4,-0.09 0.67,-0.41 0.71,-0.84 0.01,-0.17 0,-0.34 0,-0.51 z"
   id="path36" />
		<path
   class="st3"
   d="m 116.33,19.31 c -0.03,0.23 -0.06,0.41 -0.09,0.6 -0.43,0 -0.84,0 -1.27,0 0,-2.39 0,-4.76 0,-7.19 0.52,-0.02 1.02,-0.01 1.55,-0.01 0,0.92 0,1.81 0,2.75 0.1,-0.06 0.15,-0.09 0.19,-0.13 0.97,-0.83 2.44,-0.61 3.02,0.52 0.56,1.07 0.52,2.18 -0.11,3.22 -0.47,0.77 -1.36,1.12 -2.25,0.93 -0.31,-0.06 -0.59,-0.21 -0.82,-0.44 -0.06,-0.07 -0.12,-0.15 -0.22,-0.25 z m 0.21,-1.87 c 0,0 0,0 0,0 0,0.14 -0.01,0.29 0,0.43 0.02,0.47 0.32,0.83 0.75,0.93 0.42,0.1 0.87,-0.12 1.06,-0.55 0.24,-0.55 0.24,-1.12 -0.02,-1.67 -0.2,-0.41 -0.6,-0.59 -1.05,-0.51 -0.39,0.07 -0.7,0.43 -0.74,0.86 -0.01,0.17 0,0.34 0,0.51 z"
   id="path38" />
		<path
   class="st4"
   d="m 175.6,37.11 c 0.53,0 1.01,0 1.55,0 0,2.39 0,4.77 0,7.18 -0.41,0 -0.85,0 -1.31,0 -0.02,-0.18 -0.05,-0.36 -0.08,-0.59 -0.09,0.07 -0.15,0.1 -0.19,0.15 -0.62,0.72 -1.96,0.85 -2.81,-0.02 -0.43,-0.44 -0.63,-0.99 -0.69,-1.59 -0.08,-0.79 0.05,-1.54 0.54,-2.19 0.7,-0.95 2.13,-1.08 2.86,-0.44 0.02,0.01 0.05,0.02 0.11,0.04 0.04,-0.43 0.01,-0.86 0.02,-1.28 0,-0.41 0,-0.83 0,-1.26 z m 0.03,4.68 c -0.02,-0.2 -0.01,-0.43 -0.05,-0.64 -0.07,-0.35 -0.29,-0.59 -0.63,-0.69 -0.36,-0.1 -0.7,-0.03 -0.97,0.26 -0.46,0.5 -0.48,1.61 -0.04,2.12 0.25,0.29 0.58,0.41 0.95,0.31 0.39,-0.1 0.63,-0.36 0.69,-0.77 0.03,-0.18 0.03,-0.37 0.05,-0.59 z"
   id="path40" />
		<path
   class="st4"
   d="m 200.22,14.98 c 0.42,0 0.84,0 1.28,0 0.03,0.19 0.07,0.38 0.11,0.61 0.08,-0.07 0.13,-0.12 0.18,-0.17 0.69,-0.74 2.34,-0.97 3.13,0.41 0.61,1.05 0.58,2.16 -0.04,3.21 -0.47,0.79 -1.39,1.16 -2.27,0.95 -0.28,-0.07 -0.54,-0.24 -0.84,-0.38 -0.05,0.21 -0.01,0.47 -0.02,0.72 -0.01,0.26 0,0.52 0,0.79 0,0.26 0,0.52 0,0.81 -0.52,0 -1,0 -1.54,0 0.01,-2.31 0.01,-4.61 0.01,-6.95 z m 3.57,2.55 c -0.04,-0.24 -0.05,-0.4 -0.08,-0.55 -0.02,-0.09 -0.04,-0.18 -0.08,-0.26 -0.18,-0.45 -0.52,-0.67 -0.96,-0.65 -0.42,0.02 -0.79,0.31 -0.85,0.78 -0.06,0.41 -0.05,0.83 0,1.24 0.05,0.41 0.38,0.69 0.75,0.74 0.44,0.06 0.82,-0.12 1,-0.52 0.11,-0.27 0.16,-0.57 0.22,-0.78 z"
   id="path42" />
		<path
   class="st4"
   d="m 137.11,39.36 c 0.43,0 0.84,0 1.28,0 0.04,0.2 0.07,0.38 0.11,0.62 0.09,-0.09 0.15,-0.15 0.22,-0.21 0.91,-0.85 2.35,-0.69 3.05,0.35 0.37,0.55 0.49,1.18 0.46,1.83 -0.02,0.42 -0.1,0.83 -0.28,1.21 -0.46,0.96 -1.47,1.47 -2.47,1.2 -0.28,-0.07 -0.53,-0.25 -0.82,-0.38 0,0.76 0,1.53 0,2.34 -0.51,0.02 -1,0 -1.54,0.01 -0.01,-2.32 -0.01,-4.63 -0.01,-6.97 z m 1.5,2.47 c 0.01,0 0.03,0 0.04,0 0,0.18 -0.02,0.37 0,0.55 0.07,0.47 0.38,0.78 0.8,0.84 0.43,0.06 0.82,-0.15 1.01,-0.57 0.24,-0.54 0.23,-1.09 -0.01,-1.63 -0.17,-0.38 -0.48,-0.58 -0.9,-0.56 -0.39,0.01 -0.74,0.29 -0.85,0.69 -0.05,0.21 -0.06,0.45 -0.09,0.68 z"
   id="path44" />
		<path
   class="st3"
   d="m 155.77,34.13 c -0.54,0 -1.03,0 -1.55,0 0,-2.32 0,-4.61 0,-6.94 0.41,0 0.84,0 1.28,0 0.03,0.18 0.07,0.37 0.11,0.59 0.08,-0.07 0.13,-0.12 0.19,-0.17 0.77,-0.79 2.44,-0.9 3.17,0.49 0.54,1.02 0.52,2.07 -0.05,3.08 -0.45,0.81 -1.38,1.22 -2.28,1.01 -0.29,-0.07 -0.56,-0.24 -0.88,-0.38 0.01,0.75 0.01,1.52 0.01,2.32 z m 2.02,-4.41 c -0.05,-0.3 -0.07,-0.54 -0.14,-0.76 -0.16,-0.5 -0.57,-0.77 -1.05,-0.7 -0.43,0.06 -0.79,0.44 -0.82,0.92 -0.02,0.33 -0.02,0.66 0,0.98 0.03,0.42 0.33,0.76 0.71,0.84 0.44,0.1 0.86,-0.07 1.06,-0.48 0.12,-0.26 0.17,-0.56 0.24,-0.8 z"
   id="path46" />
		<path
   class="st3"
   d="m 239.91,56.48 c -0.6,0 -1.13,0 -1.69,0 -0.18,-0.57 -0.35,-1.13 -0.53,-1.71 -0.64,0 -1.28,0 -1.95,0 -0.16,0.56 -0.32,1.12 -0.48,1.7 -0.53,0 -1.04,0 -1.6,0 0.69,-2.29 1.38,-4.54 2.07,-6.81 0.69,0 1.35,0 2.05,0 0.71,2.26 1.41,4.51 2.13,6.82 z m -2.45,-2.91 c -0.25,-0.89 -0.5,-1.76 -0.76,-2.69 -0.25,0.95 -0.47,1.81 -0.7,2.69 0.5,0 0.96,0 1.46,0 z"
   id="path48" />
		<path
   class="st5"
   d="m 102.61,56.48 c -0.18,0.01 -0.3,0.02 -0.41,0.02 -0.42,0 -0.83,0 -1.27,0 -0.18,-0.59 -0.35,-1.15 -0.53,-1.73 -0.64,0 -1.28,0 -1.95,0 -0.16,0.56 -0.32,1.12 -0.49,1.7 -0.51,0 -1.02,0 -1.52,0 -0.01,-0.3 1.66,-5.95 2.02,-6.81 0.65,0 1.31,0 2.03,0 0.7,2.26 1.41,4.52 2.12,6.82 z M 98.7,53.56 c 0.49,0 0.96,0 1.42,0 -0.04,-0.4 -0.63,-2.42 -0.75,-2.55 -0.22,0.84 -0.44,1.69 -0.67,2.55 z"
   id="path50" />
		<path
   class="st4"
   d="m 221.91,51.86 c 0,-0.86 0,-1.68 0,-2.57 0.53,-0.02 1.01,-0.02 1.55,0 0,2.4 0,4.77 0,7.19 -0.41,0.04 -0.85,0.01 -1.31,0.01 -0.03,-0.2 -0.06,-0.39 -0.09,-0.61 -0.07,0.06 -0.11,0.08 -0.15,0.12 -0.97,0.97 -2.43,0.79 -3.15,-0.37 -0.31,-0.51 -0.43,-1.07 -0.41,-1.65 0.02,-0.74 0.22,-1.41 0.76,-1.96 0.73,-0.75 2.06,-0.77 2.65,-0.22 0.03,0.02 0.07,0.03 0.15,0.06 z m 0.03,2.08 c -0.02,-0.21 -0.02,-0.45 -0.09,-0.67 -0.1,-0.34 -0.33,-0.57 -0.68,-0.63 -0.36,-0.07 -0.67,0.03 -0.92,0.32 -0.42,0.49 -0.44,1.56 -0.04,2.06 0.25,0.32 0.59,0.44 0.98,0.34 0.37,-0.09 0.61,-0.34 0.68,-0.73 0.04,-0.22 0.05,-0.44 0.07,-0.69 z"
   id="path52" />
		<path
   class="st4"
   d="m 145.55,30.85 c 0.94,0 1.85,0 2.78,0 0,0.43 0,0.81 0,1.2 -0.28,0.09 -3.4,0.12 -4.3,0.05 -0.08,-0.28 -0.12,-5.9 -0.04,-6.77 0.27,-0.08 3.73,-0.1 4.19,-0.02 0,0.39 0,0.79 0,1.23 -0.88,0 -1.74,0 -2.62,0 0,0.47 0,0.91 0,1.4 0.4,0.02 0.81,0.01 1.22,0.01 0.4,0 0.81,0 1.24,0 0,0.43 0,0.82 0,1.27 -0.82,0 -1.64,0 -2.47,0 0,0.56 0,1.06 0,1.63 z"
   id="path54" />
		<path
   class="st6"
   d="m 96.89,13.1 c 1.4,0 2.77,0 4.19,0 0,0.21 0,0.42 0,0.62 0,0.19 0,0.39 0,0.63 -0.89,0 -1.76,0 -2.65,0 0,0.49 0,0.93 0,1.4 0.82,0 1.63,0 2.46,0 0,0.43 0,0.83 0,1.27 -0.81,0 -1.61,0 -2.45,0 0,0.55 0,1.07 0,1.62 0.91,0 1.82,0 2.75,0 0,0.44 0,0.84 0,1.26 -1.43,0 -2.85,0 -4.27,0 -0.08,-0.27 -0.12,-5.95 -0.03,-6.8 z"
   id="path56" />
		<path
   class="st3"
   d="m 195.04,56.18 c 0.11,-0.43 0.2,-0.82 0.31,-1.24 0.13,0.05 0.24,0.08 0.34,0.12 0.51,0.2 1.03,0.31 1.57,0.26 0.19,-0.02 0.39,-0.06 0.56,-0.16 0.4,-0.22 0.47,-0.73 0.12,-1.02 -0.23,-0.19 -0.52,-0.29 -0.78,-0.43 -0.42,-0.21 -0.87,-0.37 -1.25,-0.64 -0.73,-0.5 -0.96,-1.31 -0.67,-2.11 0.14,-0.39 0.39,-0.72 0.75,-0.93 1.13,-0.67 2.29,-0.56 3.5,-0.14 -0.12,0.44 -0.23,0.84 -0.34,1.23 -0.35,-0.09 -0.66,-0.2 -0.97,-0.24 -0.29,-0.04 -0.6,-0.02 -0.89,0.02 -0.29,0.04 -0.51,0.22 -0.55,0.53 -0.04,0.3 0.14,0.5 0.39,0.62 0.3,0.15 0.62,0.27 0.93,0.41 0.29,0.14 0.6,0.27 0.87,0.44 1.2,0.76 1.1,2.6 -0.15,3.3 -0.59,0.33 -1.23,0.43 -1.89,0.41 -0.65,-0.02 -1.25,-0.12 -1.85,-0.43 z"
   id="path58" />
		<path
   class="st3"
   d="m 165.36,51.55 c 0.59,0 1.14,0 1.72,0 0.33,1.08 0.65,2.17 1,3.32 0.29,-1.14 0.56,-2.21 0.84,-3.31 0.54,0 1.07,0 1.62,0 -0.01,0.07 0,0.13 -0.02,0.19 -0.54,1.47 -1.06,2.95 -1.62,4.42 -0.17,0.44 -0.4,0.85 -0.65,1.25 -0.43,0.68 -1.04,1.13 -1.84,1.31 -0.04,0.01 -0.08,0.01 -0.12,0.02 -0.03,0 -0.05,-0.01 -0.11,-0.03 -0.1,-0.4 -0.21,-0.81 -0.33,-1.25 0.12,-0.05 0.24,-0.08 0.34,-0.14 0.23,-0.13 0.47,-0.24 0.66,-0.41 0.43,-0.38 0.45,-0.52 0.24,-1.06 -0.51,-1.27 -1.02,-2.55 -1.54,-3.82 -0.07,-0.15 -0.12,-0.31 -0.19,-0.49 z"
   id="path60" />
		<path
   class="st3"
   d="m 212.64,41.86 c 0,-0.69 0.18,-1.33 0.66,-1.84 0.6,-0.64 1.37,-0.85 2.21,-0.79 0.99,0.07 1.76,0.52 2.13,1.47 0.39,1.01 0.31,2 -0.39,2.85 -0.65,0.79 -1.54,0.99 -2.52,0.84 -1.08,-0.17 -1.81,-0.85 -2.03,-1.91 -0.04,-0.2 -0.04,-0.41 -0.06,-0.62 z m 3.65,-0.05 c -0.09,-0.33 -0.15,-0.66 -0.27,-0.97 -0.13,-0.31 -0.38,-0.49 -0.74,-0.49 -0.37,-0.01 -0.64,0.16 -0.8,0.47 -0.33,0.66 -0.34,1.33 -0.02,1.99 0.16,0.33 0.44,0.51 0.82,0.49 0.37,-0.01 0.63,-0.21 0.75,-0.54 0.13,-0.29 0.18,-0.61 0.26,-0.95 z"
   id="path62" />
		<path
   class="st3"
   d="m 198.53,41.82 c 0,1.01 -0.36,1.83 -1.29,2.3 -0.97,0.49 -1.95,0.46 -2.88,-0.14 -0.66,-0.43 -0.97,-1.09 -1.02,-1.86 -0.02,-0.35 0,-0.71 0.09,-1.05 0.22,-0.9 0.79,-1.48 1.69,-1.74 0.53,-0.15 1.06,-0.16 1.59,-0.03 1.04,0.26 1.75,1.13 1.81,2.21 0.01,0.1 0.01,0.21 0.01,0.31 z m -3.58,-0.02 c 0.01,0.4 0.05,0.75 0.24,1.06 0.38,0.62 1.18,0.62 1.52,-0.03 0.34,-0.65 0.32,-1.33 0.01,-2 -0.15,-0.3 -0.39,-0.48 -0.74,-0.48 -0.37,0 -0.62,0.17 -0.79,0.48 -0.19,0.31 -0.23,0.66 -0.24,0.97 z"
   id="path64" />
		<path
   class="st3"
   d="m 114.75,56.66 c -1.27,-0.03 -2.23,-0.74 -2.5,-1.9 -0.13,-0.57 -0.11,-1.15 0.08,-1.7 0.38,-1.11 1.36,-1.69 2.62,-1.65 0.83,0.03 1.53,0.34 2,1.05 0.99,1.48 0.28,3.57 -1.36,4.04 -0.27,0.08 -0.56,0.11 -0.84,0.16 z m 1.07,-2.61 c -0.04,-0.36 -0.09,-0.69 -0.25,-1 -0.16,-0.31 -0.4,-0.51 -0.77,-0.51 -0.37,0 -0.63,0.17 -0.79,0.49 -0.32,0.65 -0.32,1.31 -0.02,1.96 0.16,0.34 0.44,0.52 0.81,0.52 0.36,0 0.63,-0.2 0.76,-0.53 0.13,-0.3 0.18,-0.62 0.26,-0.93 z"
   id="path66" />
		<path
   class="st5"
   d="m 140.79,54.01 c -0.03,1.18 -0.57,2.03 -1.56,2.42 -1.05,0.41 -2.27,0.19 -2.99,-0.56 -0.57,-0.6 -0.74,-1.35 -0.65,-2.14 0.18,-1.69 1.46,-2.41 2.86,-2.3 1.22,0.1 2.01,0.77 2.26,1.88 0.05,0.23 0.05,0.47 0.08,0.7 z M 137.14,54 c 0.05,0.36 0.09,0.69 0.26,1 0.18,0.33 0.45,0.52 0.82,0.51 0.36,-0.01 0.62,-0.21 0.76,-0.53 0.28,-0.63 0.28,-1.27 0,-1.9 -0.15,-0.33 -0.4,-0.54 -0.79,-0.54 -0.39,0 -0.66,0.19 -0.8,0.53 -0.12,0.29 -0.17,0.62 -0.25,0.93 z"
   id="path68" />
		<path
   class="st3"
   d="m 211.03,17.4 c -0.01,1 -0.34,1.84 -1.27,2.31 -0.95,0.49 -1.92,0.48 -2.85,-0.08 -0.61,-0.37 -0.94,-0.94 -1.04,-1.63 -0.14,-0.94 0.02,-1.8 0.73,-2.49 0.91,-0.89 3.04,-1.04 3.98,0.34 0.32,0.46 0.46,0.98 0.45,1.55 z m -1.55,0.03 c -0.08,-0.32 -0.14,-0.63 -0.25,-0.92 -0.13,-0.35 -0.4,-0.55 -0.78,-0.56 -0.37,-0.01 -0.65,0.19 -0.81,0.52 -0.3,0.64 -0.3,1.29 0,1.93 0.15,0.33 0.42,0.52 0.81,0.52 0.39,0 0.65,-0.22 0.78,-0.55 0.12,-0.3 0.17,-0.63 0.25,-0.94 z"
   id="path70" />
		<path
   class="st3"
   d="m 132.51,53.99 c 0.01,0.99 -0.34,1.81 -1.24,2.29 -0.94,0.5 -1.92,0.49 -2.84,-0.06 -0.71,-0.42 -1.04,-1.1 -1.09,-1.89 -0.02,-0.36 0,-0.74 0.09,-1.09 0.26,-1.02 0.95,-1.61 1.97,-1.78 0.39,-0.06 0.82,-0.06 1.21,0.01 1.1,0.2 1.85,1.12 1.9,2.24 0,0.1 0,0.19 0,0.28 z m -3.59,-0.19 c 0.01,0.51 0.04,0.89 0.24,1.23 0.18,0.3 0.45,0.48 0.8,0.47 0.34,-0.01 0.6,-0.19 0.74,-0.5 0.3,-0.65 0.31,-1.31 0,-1.97 -0.15,-0.32 -0.4,-0.5 -0.77,-0.5 -0.37,0 -0.64,0.18 -0.78,0.5 -0.12,0.29 -0.18,0.6 -0.23,0.77 z"
   id="path72" />
		<path
   class="st5"
   d="m 272.66,53.91 c -0.02,1.11 -0.38,1.92 -1.28,2.39 -0.95,0.49 -1.93,0.48 -2.84,-0.1 -0.91,-0.57 -1.17,-1.48 -1.06,-2.5 0.18,-1.66 1.43,-2.36 2.84,-2.29 1.33,0.07 2.39,1.07 2.34,2.5 z M 269.03,54 c 0.04,0.36 0.09,0.69 0.25,1 0.18,0.32 0.45,0.52 0.82,0.51 0.36,-0.01 0.62,-0.21 0.76,-0.53 0.28,-0.63 0.28,-1.27 0.01,-1.9 -0.15,-0.33 -0.4,-0.54 -0.79,-0.54 -0.39,0 -0.66,0.19 -0.8,0.53 -0.12,0.29 -0.17,0.62 -0.25,0.93 z"
   id="path74" />
		<path
   class="st5"
   d="m 233.87,17.4 c 0,1.58 -1.06,2.66 -2.63,2.65 -1.6,-0.01 -2.59,-1.04 -2.58,-2.59 0,-1.58 1.06,-2.63 2.65,-2.63 1.51,-0.01 2.56,1.04 2.56,2.57 z m -1.62,0.03 c 0.01,-0.36 -0.05,-0.72 -0.25,-1.04 -0.35,-0.57 -1.11,-0.6 -1.45,-0.03 -0.41,0.69 -0.41,1.43 -0.02,2.13 0.35,0.62 1.14,0.59 1.5,-0.03 0.17,-0.32 0.22,-0.66 0.22,-1.03 z"
   id="path76" />
		<path
   class="st5"
   d="m 156.46,56.63 c -1.52,-0.01 -2.58,-1.06 -2.56,-2.58 0.02,-1.57 0.97,-2.64 2.67,-2.64 1.59,0 2.54,1.06 2.54,2.58 -0.01,1.59 -1.09,2.65 -2.65,2.64 z m -1,-2.61 c 0.08,0.31 0.13,0.64 0.24,0.93 0.13,0.34 0.42,0.54 0.79,0.55 0.38,0.01 0.65,-0.2 0.8,-0.53 0.28,-0.64 0.28,-1.29 -0.01,-1.93 -0.15,-0.32 -0.4,-0.51 -0.77,-0.51 -0.37,0 -0.62,0.18 -0.79,0.49 -0.16,0.31 -0.22,0.64 -0.26,1 z"
   id="path78" />
		<path
   class="st3"
   d="m 165.99,17.44 c -0.01,1.65 -1.22,2.73 -2.86,2.59 -1,-0.09 -1.77,-0.52 -2.13,-1.47 -0.38,-1 -0.31,-2 0.39,-2.85 0.63,-0.77 1.51,-0.97 2.45,-0.85 1.36,0.17 2.16,1.16 2.15,2.58 z m -1.54,-0.01 c -0.09,-0.34 -0.16,-0.66 -0.28,-0.96 -0.13,-0.33 -0.41,-0.51 -0.76,-0.52 -0.36,-0.01 -0.63,0.18 -0.79,0.49 -0.32,0.66 -0.33,1.34 0,2 0.15,0.31 0.43,0.49 0.79,0.48 0.35,-0.01 0.61,-0.18 0.74,-0.49 0.14,-0.32 0.2,-0.67 0.3,-1 z"
   id="path80" />
		<path
   class="st4"
   d="m 120.81,26.54 c 0,0.54 0,1.03 0,1.55 0.8,0 1.58,0 2.41,0 0.03,0.43 0.01,0.82 0.01,1.27 -0.81,0 -1.6,0 -2.44,0 0,0.94 0,1.83 0,2.74 -0.54,0 -1.03,0 -1.54,0 0,-2.27 0,-4.53 0,-6.81 1.39,0 2.76,0 4.15,0 0,0.4 0,0.8 0,1.25 -0.86,0 -1.72,0 -2.59,0 z"
   id="path82" />
		<path
   class="st4"
   d="m 103.51,32.11 c -0.54,0 -1.02,0 -1.54,0 0,-1.64 0,-3.27 0,-4.93 0.41,0 0.83,0 1.29,0 0.03,0.18 0.07,0.37 0.11,0.6 0.09,-0.09 0.16,-0.17 0.24,-0.23 0.55,-0.51 1.19,-0.64 1.89,-0.43 0.69,0.21 1.01,0.75 1.14,1.42 0.05,0.26 0.06,0.52 0.07,0.78 0.01,0.82 0,1.65 0,2.47 0,0.09 -0.01,0.18 -0.01,0.29 -0.51,0 -1,0 -1.53,0 -0.01,-0.11 -0.02,-0.22 -0.02,-0.33 0,-0.76 0,-1.52 0,-2.28 0,-0.19 -0.02,-0.39 -0.06,-0.58 -0.06,-0.29 -0.21,-0.51 -0.52,-0.57 -0.34,-0.07 -0.62,0.02 -0.84,0.29 -0.16,0.21 -0.21,0.44 -0.2,0.7 0,0.79 0,1.57 0,2.36 -0.02,0.14 -0.02,0.27 -0.02,0.44 z"
   id="path84" />
		<path
   class="st4"
   d="m 128.13,27.8 c 0.35,-0.41 0.72,-0.65 1.19,-0.73 1.05,-0.17 1.87,0.39 2.06,1.44 0.04,0.24 0.07,0.49 0.07,0.74 0.01,0.84 0,1.67 0,2.51 0,0.1 0,0.2 0,0.33 -0.52,0 -1.01,0 -1.53,0 -0.01,-0.11 -0.02,-0.22 -0.02,-0.34 0,-0.76 0,-1.52 0,-2.28 0,-0.21 -0.02,-0.42 -0.08,-0.62 -0.15,-0.57 -0.81,-0.75 -1.24,-0.35 -0.24,0.22 -0.31,0.5 -0.31,0.82 0,0.78 0,1.57 0,2.35 0,0.13 0,0.26 0,0.41 -0.52,0 -1.01,0 -1.54,0 0,-1.63 0,-3.26 0,-4.91 0.4,0 0.81,0 1.28,0 0.03,0.18 0.07,0.37 0.12,0.63 z"
   id="path86" />
		<path
   class="st4"
   d="m 101.06,44.3 c -0.52,0 -1,0 -1.53,0 0,-1.64 0,-3.26 0,-4.94 0.4,-0.03 0.82,-0.01 1.28,-0.01 0.04,0.2 0.07,0.39 0.11,0.61 0.08,-0.07 0.14,-0.12 0.2,-0.18 0.53,-0.53 1.18,-0.66 1.88,-0.47 0.7,0.19 1.03,0.72 1.18,1.38 0.03,0.11 0.05,0.23 0.05,0.35 0,1.07 0,2.14 0,3.26 -0.5,0.01 -0.99,0.01 -1.52,0.01 -0.01,-0.13 -0.02,-0.24 -0.02,-0.35 0,-0.77 0,-1.54 0,-2.32 0,-0.17 -0.02,-0.34 -0.05,-0.5 -0.1,-0.44 -0.32,-0.63 -0.72,-0.63 -0.39,0 -0.7,0.24 -0.8,0.62 -0.04,0.15 -0.05,0.31 -0.05,0.47 0,0.81 0,1.62 0,2.43 0.01,0.07 0,0.15 -0.01,0.27 z"
   id="path88" />
		<path
   class="st3"
   d="m 156.58,19.92 c -0.51,0 -0.99,0 -1.5,0 -0.01,-0.12 -0.02,-0.24 -0.02,-0.35 0,-0.78 0,-1.57 0,-2.35 0,-0.17 -0.01,-0.34 -0.05,-0.5 -0.1,-0.41 -0.38,-0.63 -0.75,-0.61 -0.36,0.02 -0.7,0.31 -0.77,0.68 -0.02,0.13 -0.02,0.26 -0.02,0.39 0,0.82 0,1.65 0,2.47 0,0.08 -0.01,0.15 -0.02,0.27 -0.5,0.03 -0.99,0.01 -1.53,0.01 0,-1.65 0,-3.27 0,-4.95 0.4,-0.02 0.83,0 1.29,-0.01 0.03,0.21 0.05,0.39 0.08,0.61 0.08,-0.07 0.15,-0.12 0.21,-0.17 0.54,-0.53 1.19,-0.68 1.92,-0.49 0.42,0.12 0.74,0.39 0.94,0.78 0.18,0.33 0.27,0.68 0.27,1.05 0.01,1.01 0,2.01 0,3.02 -0.01,0.04 -0.03,0.07 -0.05,0.15 z"
   id="path90" />
		<path
   class="st4"
   d="m 186.81,32.1 c -0.54,0 -1.03,0 -1.55,0 0,-1.65 0,-3.28 0,-4.92 0.43,0 0.86,0 1.29,0 0.03,0.2 0.06,0.37 0.1,0.6 0.11,-0.1 0.18,-0.18 0.26,-0.25 0.76,-0.7 1.98,-0.66 2.6,0.08 0.27,0.32 0.39,0.71 0.44,1.12 0.02,0.18 0.02,0.37 0.02,0.55 0,0.93 0,1.86 0,2.81 -0.52,0 -1.02,0 -1.56,0 0,-0.14 0,-0.27 0,-0.4 0,-0.76 0.01,-1.52 0,-2.28 0,-0.21 -0.01,-0.42 -0.08,-0.62 -0.17,-0.51 -0.77,-0.66 -1.18,-0.32 -0.25,0.21 -0.35,0.48 -0.34,0.8 0.01,0.81 0,1.62 0,2.43 0,0.13 0,0.24 0,0.4 z"
   id="path92" />
		<path
   class="st4"
   d="m 179.33,51.56 c 0.04,0.19 0.07,0.38 0.11,0.61 0.07,-0.07 0.12,-0.11 0.16,-0.16 0.49,-0.53 1.11,-0.66 1.8,-0.55 0.68,0.12 1.17,0.67 1.31,1.45 0.04,0.21 0.06,0.42 0.06,0.62 0.01,0.89 0,1.78 0,2.67 0,0.08 -0.01,0.15 -0.01,0.27 -0.5,0.05 -0.99,0.01 -1.51,0.02 -0.01,-0.13 -0.02,-0.24 -0.02,-0.36 0,-0.76 0,-1.52 0,-2.28 0,-0.19 -0.02,-0.39 -0.06,-0.58 -0.06,-0.29 -0.22,-0.51 -0.52,-0.57 -0.33,-0.07 -0.62,0.02 -0.84,0.3 -0.16,0.21 -0.2,0.45 -0.2,0.7 0,0.81 0,1.62 0,2.43 0,0.1 0,0.2 0,0.33 -0.53,0 -1.02,0 -1.55,0 0,-1.64 0,-3.27 0,-4.92 0.4,0.02 0.83,0.02 1.27,0.02 z"
   id="path94" />
		<path
   class="st3"
   d="m 256.36,56.48 c -0.52,0 -1,0 -1.52,0 -0.01,-0.12 -0.03,-0.23 -0.03,-0.34 0,-0.73 0,-1.47 0,-2.2 0,-0.18 0,-0.37 -0.03,-0.55 -0.07,-0.46 -0.34,-0.71 -0.75,-0.7 -0.42,0 -0.77,0.32 -0.82,0.75 -0.01,0.12 -0.01,0.24 -0.01,0.35 0,0.76 0,1.52 0,2.28 0,0.13 0,0.25 0,0.4 -0.53,0 -1.02,0 -1.55,0 0,-1.65 0,-3.28 0,-4.93 0.42,0 0.84,0 1.29,0 0.03,0.18 0.05,0.36 0.08,0.6 0.12,-0.11 0.21,-0.18 0.29,-0.25 0.54,-0.48 1.16,-0.57 1.84,-0.39 0.43,0.11 0.76,0.38 0.93,0.78 0.12,0.28 0.25,0.6 0.25,0.9 0.05,1.09 0.03,2.17 0.03,3.3 z"
   id="path96" />
		<path
   class="st3"
   d="m 221.7,19.91 c -0.44,0 -0.87,0 -1.34,0 -0.03,-0.12 -0.06,-0.25 -0.11,-0.42 -0.09,0.06 -0.17,0.12 -0.25,0.17 -0.53,0.39 -1.13,0.49 -1.75,0.3 -1.28,-0.4 -1.3,-1.95 -0.61,-2.62 0.28,-0.27 0.61,-0.45 0.99,-0.54 0.34,-0.08 0.69,-0.12 1.04,-0.17 0.13,-0.02 0.26,-0.02 0.38,-0.02 0.02,-0.41 -0.16,-0.62 -0.59,-0.67 -0.42,-0.05 -0.83,0.02 -1.23,0.17 -0.12,0.05 -0.24,0.1 -0.4,0.17 -0.1,-0.33 -0.19,-0.64 -0.28,-0.96 0.06,-0.04 0.11,-0.09 0.17,-0.11 0.79,-0.34 1.6,-0.47 2.45,-0.3 0.82,0.16 1.34,0.72 1.45,1.55 0.03,0.23 0.04,0.47 0.05,0.7 0.02,0.86 0.03,1.73 0.04,2.59 0,0.04 0,0.09 -0.01,0.16 z m -1.55,-2.31 c -0.43,-0.02 -0.8,0.03 -1.13,0.23 -0.25,0.15 -0.35,0.45 -0.27,0.72 0.08,0.26 0.3,0.41 0.6,0.4 0.42,-0.01 0.77,-0.34 0.79,-0.76 0.02,-0.18 0.01,-0.36 0.01,-0.59 z"
   id="path98" />
		<path
   class="st3"
   d="m 168.16,44.31 c -0.04,-0.15 -0.07,-0.27 -0.11,-0.43 -0.11,0.08 -0.18,0.13 -0.26,0.19 -0.54,0.38 -1.13,0.48 -1.75,0.28 -1.06,-0.34 -1.39,-1.75 -0.61,-2.57 0.31,-0.33 0.69,-0.52 1.12,-0.61 0.43,-0.09 0.87,-0.14 1.31,-0.21 0.03,-0.33 -0.07,-0.48 -0.4,-0.59 -0.4,-0.13 -0.8,-0.06 -1.2,0.05 -0.2,0.06 -0.39,0.14 -0.63,0.22 -0.05,-0.17 -0.1,-0.33 -0.15,-0.48 -0.04,-0.15 -0.08,-0.3 -0.14,-0.48 0.13,-0.06 0.26,-0.13 0.39,-0.18 0.69,-0.25 1.39,-0.34 2.12,-0.23 0.89,0.14 1.48,0.74 1.57,1.65 0.03,0.27 0.04,0.55 0.04,0.82 0.01,0.84 0,1.67 0,2.57 -0.39,0.01 -0.84,0 -1.3,0 z m -0.2,-2.36 c -0.3,0.04 -0.56,0.06 -0.81,0.13 -0.16,0.04 -0.31,0.13 -0.44,0.24 -0.19,0.17 -0.23,0.46 -0.13,0.68 0.1,0.22 0.31,0.34 0.57,0.33 0.42,-0.01 0.77,-0.34 0.8,-0.76 0.02,-0.17 0.01,-0.36 0.01,-0.62 z"
   id="path100" />
		<path
   class="st4"
   d="m 211.79,14.98 c 0.41,0 0.82,0 1.28,0 0.03,0.19 0.06,0.37 0.1,0.6 0.08,-0.07 0.14,-0.12 0.2,-0.18 0.55,-0.54 1.2,-0.68 1.92,-0.47 0.66,0.19 0.99,0.7 1.14,1.33 0.04,0.16 0.07,0.34 0.07,0.5 0.01,1.03 0,2.07 0,3.1 -0.28,0.09 -1.06,0.1 -1.53,0.03 -0.01,-0.11 -0.02,-0.22 -0.02,-0.34 0,-0.76 0,-1.52 0,-2.28 0,-0.18 -0.02,-0.37 -0.06,-0.54 -0.1,-0.41 -0.34,-0.62 -0.69,-0.63 -0.36,-0.01 -0.72,0.25 -0.81,0.62 -0.05,0.17 -0.05,0.36 -0.06,0.54 -0.01,0.79 0,1.57 0,2.36 0,0.09 -0.01,0.18 -0.02,0.29 -0.49,0 -0.97,0 -1.51,0 -0.01,-1.63 -0.01,-3.25 -0.01,-4.93 z"
   id="path102" />
		<path
   class="st3"
   d="m 192.41,56.49 c -0.44,0 -0.88,0 -1.33,0 -0.04,-0.14 -0.08,-0.26 -0.13,-0.44 -0.32,0.3 -0.67,0.49 -1.08,0.56 -0.93,0.16 -1.74,-0.33 -1.93,-1.19 -0.16,-0.7 0.15,-1.4 0.79,-1.78 0.52,-0.31 1.1,-0.39 1.69,-0.45 0.12,-0.01 0.23,-0.01 0.35,-0.02 0.03,-0.34 -0.08,-0.51 -0.4,-0.62 -0.39,-0.13 -0.78,-0.06 -1.16,0.04 -0.21,0.06 -0.42,0.14 -0.67,0.23 -0.09,-0.32 -0.18,-0.62 -0.29,-0.96 0.16,-0.07 0.3,-0.15 0.44,-0.2 0.6,-0.21 1.22,-0.3 1.85,-0.23 1.15,0.12 1.77,0.77 1.82,1.92 0.02,0.39 0,0.79 0.01,1.18 0.03,0.64 0.04,1.28 0.04,1.96 z m -1.52,-2.29 c -0.43,-0.04 -0.81,-0.01 -1.14,0.21 -0.27,0.17 -0.37,0.51 -0.25,0.79 0.1,0.25 0.41,0.39 0.73,0.31 0.38,-0.09 0.64,-0.38 0.66,-0.77 0.01,-0.17 0,-0.34 0,-0.54 z"
   id="path104" />
		<path
   class="st4"
   d="m 148.17,39.36 c 0.42,0 0.83,0 1.27,0 0.04,0.19 0.07,0.38 0.11,0.6 0.08,-0.07 0.13,-0.11 0.18,-0.16 0.58,-0.59 1.27,-0.72 2.02,-0.46 0.73,0.25 1,0.87 1.1,1.58 0.02,0.17 0.02,0.34 0.02,0.51 0,0.82 0,1.65 0,2.47 0,0.12 0,0.23 0,0.37 -0.52,0 -1.01,0 -1.54,0 0,-0.14 0,-0.27 0,-0.4 0,-0.68 0,-1.36 0,-2.04 0,-0.21 -0.02,-0.42 -0.05,-0.63 -0.07,-0.46 -0.3,-0.7 -0.69,-0.72 -0.42,-0.02 -0.79,0.26 -0.87,0.69 -0.02,0.13 -0.02,0.26 -0.02,0.39 0,0.82 0,1.65 0,2.47 0,0.06 -0.01,0.13 -0.01,0.22 -0.5,0 -0.99,0 -1.52,0 0,-1.59 0,-3.22 0,-4.89 z"
   id="path106" />
		<path
   class="st3"
   d="m 139.46,28.8 c -0.01,-0.38 -0.11,-0.53 -0.43,-0.63 -0.42,-0.13 -0.83,-0.06 -1.23,0.07 -0.19,0.06 -0.36,0.13 -0.59,0.22 -0.09,-0.33 -0.18,-0.63 -0.27,-0.96 0.11,-0.06 0.2,-0.12 0.29,-0.16 0.75,-0.29 1.52,-0.4 2.31,-0.24 0.79,0.15 1.31,0.67 1.45,1.46 0.04,0.24 0.06,0.49 0.07,0.74 0.01,0.93 0,1.86 0,2.81 -0.4,0 -0.84,0 -1.31,0 -0.04,-0.12 -0.08,-0.25 -0.13,-0.42 -0.08,0.06 -0.16,0.13 -0.24,0.18 -0.56,0.4 -1.18,0.49 -1.83,0.26 -0.54,-0.19 -0.86,-0.59 -0.95,-1.15 -0.1,-0.62 0.07,-1.17 0.59,-1.57 0.53,-0.41 1.16,-0.52 1.8,-0.58 0.16,-0.03 0.31,-0.03 0.47,-0.03 z m 0.08,1 c -0.32,-0.05 -0.59,0.01 -0.86,0.09 -0.14,0.05 -0.29,0.13 -0.4,0.23 -0.2,0.19 -0.23,0.43 -0.12,0.68 0.09,0.21 0.31,0.34 0.57,0.33 0.4,-0.01 0.75,-0.31 0.8,-0.72 0.03,-0.18 0.01,-0.39 0.01,-0.61 z"
   id="path108" />
		<path
   class="st3"
   d="m 249.05,53.16 c -0.03,-0.38 -0.14,-0.53 -0.46,-0.61 -0.48,-0.13 -0.93,-0.02 -1.38,0.14 -0.12,0.04 -0.24,0.1 -0.4,0.17 -0.09,-0.32 -0.18,-0.63 -0.28,-0.94 0.22,-0.22 0.51,-0.28 0.78,-0.35 0.5,-0.13 1,-0.17 1.52,-0.12 1.11,0.11 1.76,0.77 1.8,1.9 0.02,0.51 0.01,1.02 0.01,1.53 0,0.52 0,1.04 0,1.63 -0.39,0.02 -0.84,0.01 -1.3,0 -0.04,-0.14 -0.08,-0.26 -0.13,-0.42 -0.1,0.07 -0.18,0.13 -0.26,0.18 -0.55,0.39 -1.16,0.48 -1.79,0.26 -1.04,-0.36 -1.34,-1.74 -0.57,-2.56 0.42,-0.44 0.97,-0.61 1.54,-0.7 0.3,-0.06 0.6,-0.08 0.92,-0.11 z m 0.08,1.03 c -0.45,-0.02 -0.84,0 -1.17,0.24 -0.24,0.17 -0.32,0.51 -0.21,0.77 0.1,0.23 0.37,0.36 0.66,0.32 0.39,-0.06 0.69,-0.37 0.72,-0.76 0.01,-0.17 0,-0.35 0,-0.57 z"
   id="path110" />
		<path
   class="st3"
   d="m 151.11,17.95 c -1.06,0 -2.09,0 -3.14,0 -0.02,0.38 0.2,0.57 0.47,0.72 0.32,0.18 0.67,0.22 1.03,0.19 0.4,-0.03 0.8,-0.1 1.24,-0.15 0.06,0.31 0.13,0.64 0.2,1.01 -0.22,0.07 -0.43,0.15 -0.64,0.2 -0.57,0.13 -1.14,0.16 -1.72,0.08 -1.49,-0.21 -2.18,-1.26 -2.11,-2.68 0.01,-0.3 0.09,-0.6 0.19,-0.88 0.53,-1.51 2.1,-1.87 3.24,-1.44 0.46,0.18 0.79,0.51 1.01,0.95 0.29,0.62 0.38,1.27 0.23,2 z m -3.16,-1.1 c 0.58,0 1.17,0 1.75,0 0,-0.59 -0.28,-0.93 -0.77,-0.96 -0.55,-0.03 -0.9,0.32 -0.98,0.96 z"
   id="path112" />
		<path
   class="st3"
   d="m 158.08,44.29 c -0.44,0 -0.88,0 -1.33,0 -0.03,-0.13 -0.07,-0.25 -0.11,-0.41 -0.1,0.07 -0.18,0.13 -0.26,0.18 -0.53,0.37 -1.1,0.48 -1.72,0.29 -0.56,-0.17 -0.91,-0.55 -1.03,-1.13 -0.13,-0.61 0.03,-1.14 0.49,-1.57 0.29,-0.26 0.63,-0.42 1.01,-0.5 0.43,-0.09 0.87,-0.14 1.32,-0.21 0.03,-0.32 -0.07,-0.48 -0.39,-0.58 -0.4,-0.13 -0.8,-0.06 -1.2,0.05 -0.2,0.06 -0.39,0.14 -0.63,0.22 -0.1,-0.31 -0.19,-0.62 -0.29,-0.96 0.15,-0.07 0.29,-0.15 0.43,-0.2 0.64,-0.23 1.29,-0.32 1.97,-0.23 1.06,0.14 1.67,0.79 1.71,1.85 0.01,0.34 0,0.68 0.01,1.02 0,0.72 0.01,1.43 0.02,2.18 z m -1.54,-2.32 c -0.41,0.02 -0.79,0.02 -1.12,0.23 -0.25,0.16 -0.35,0.43 -0.28,0.72 0.06,0.23 0.25,0.39 0.51,0.41 0.4,0.04 0.83,-0.27 0.88,-0.67 0.03,-0.21 0.01,-0.43 0.01,-0.69 z"
   id="path114" />
		<path
   class="st3"
   d="m 116.33,32.1 c -0.43,0 -0.87,0 -1.33,0 -0.04,-0.14 -0.08,-0.27 -0.13,-0.44 -0.34,0.31 -0.71,0.51 -1.16,0.56 -0.82,0.1 -1.55,-0.29 -1.8,-1 -0.26,-0.75 0.04,-1.54 0.74,-1.96 0.5,-0.3 1.05,-0.39 1.61,-0.44 0.14,-0.01 0.29,-0.01 0.43,-0.02 0.02,-0.34 -0.05,-0.48 -0.32,-0.6 -0.3,-0.13 -0.62,-0.12 -0.93,-0.06 -0.32,0.07 -0.63,0.18 -0.99,0.28 -0.09,-0.3 -0.18,-0.62 -0.28,-0.96 1,-0.44 1.99,-0.63 3,-0.25 0.77,0.28 1.06,0.94 1.11,1.7 0.03,0.4 0.01,0.81 0.01,1.22 0.02,0.64 0.03,1.28 0.04,1.97 z m -1.53,-2.32 c -0.43,0.01 -0.81,0.03 -1.14,0.25 -0.25,0.16 -0.34,0.43 -0.26,0.72 0.06,0.23 0.26,0.38 0.53,0.4 0.42,0.03 0.83,-0.31 0.87,-0.74 0.02,-0.19 0,-0.39 0,-0.63 z"
   id="path116" />
		<path
   class="st3"
   d="m 194.78,28.43 c -0.09,-0.32 -0.18,-0.62 -0.27,-0.94 0.11,-0.06 0.21,-0.12 0.32,-0.16 0.71,-0.27 1.44,-0.38 2.19,-0.25 0.92,0.15 1.5,0.75 1.57,1.69 0.03,0.44 0.02,0.89 0.02,1.33 0,0.65 0,1.31 0,2.01 -0.4,0.03 -0.85,0.01 -1.31,0 -0.03,-0.15 -0.06,-0.27 -0.1,-0.43 -0.12,0.09 -0.21,0.15 -0.31,0.22 -0.53,0.36 -1.12,0.45 -1.72,0.25 -0.6,-0.2 -0.95,-0.64 -1.02,-1.27 -0.07,-0.67 0.18,-1.21 0.75,-1.58 0.51,-0.33 1.09,-0.43 1.68,-0.48 0.14,-0.01 0.29,-0.02 0.43,-0.03 0.01,-0.35 -0.06,-0.49 -0.33,-0.6 -0.3,-0.12 -0.62,-0.12 -0.93,-0.05 -0.31,0.08 -0.61,0.18 -0.97,0.29 z m 2.33,1.36 c -0.41,-0.01 -0.77,0.03 -1.1,0.22 -0.26,0.15 -0.37,0.43 -0.31,0.7 0.06,0.25 0.26,0.41 0.54,0.44 0.4,0.04 0.82,-0.29 0.86,-0.69 0.03,-0.21 0.01,-0.42 0.01,-0.67 z"
   id="path118" />
		<path
   class="st3"
   d="m 112.37,16.56 c -0.02,-0.38 -0.17,-0.57 -0.56,-0.62 -0.26,-0.03 -0.52,0 -0.78,0.02 -0.15,0.02 -0.31,0.07 -0.45,0.12 -0.14,0.04 -0.27,0.11 -0.44,0.18 -0.1,-0.33 -0.19,-0.65 -0.3,-0.99 1.01,-0.44 2.01,-0.63 3.03,-0.24 0.76,0.29 1.03,0.93 1.07,1.68 0.03,0.63 0.01,1.26 0.01,1.89 0.01,0.43 0.03,0.86 0.04,1.31 -0.44,0 -0.88,0 -1.35,0 -0.04,-0.13 -0.07,-0.26 -0.12,-0.43 -0.08,0.06 -0.14,0.1 -0.19,0.15 -0.55,0.43 -1.16,0.53 -1.81,0.33 -1.1,-0.34 -1.36,-1.73 -0.64,-2.54 0.29,-0.33 0.66,-0.53 1.07,-0.62 0.46,-0.1 0.93,-0.16 1.42,-0.24 z m 0.08,1.04 c -0.43,-0.01 -0.8,0.02 -1.13,0.23 -0.25,0.16 -0.35,0.43 -0.27,0.72 0.06,0.24 0.28,0.4 0.56,0.4 0.43,0.01 0.81,-0.33 0.84,-0.76 0.01,-0.18 0,-0.37 0,-0.59 z"
   id="path120" />
		<path
   class="st3"
   d="m 194.25,17.95 c -1.05,0 -2.09,0 -3.14,0 -0.01,0.37 0.19,0.57 0.45,0.71 0.33,0.19 0.7,0.23 1.06,0.2 0.4,-0.03 0.8,-0.1 1.22,-0.15 0.06,0.32 0.13,0.65 0.2,1.03 -0.31,0.08 -0.59,0.19 -0.88,0.21 -0.52,0.04 -1.05,0.1 -1.56,0.02 -1.65,-0.26 -2.11,-1.53 -2.02,-2.71 0.03,-0.34 0.13,-0.7 0.26,-1.02 0.61,-1.42 2.2,-1.67 3.24,-1.21 0.42,0.19 0.73,0.51 0.93,0.92 0.31,0.64 0.38,1.29 0.24,2 z m -1.41,-1.1 c 0,-0.6 -0.3,-0.94 -0.8,-0.97 -0.52,-0.03 -0.99,0.49 -0.94,0.97 0.58,0 1.16,0 1.74,0 z"
   id="path122" />
		<path
   class="st3"
   d="m 127.82,17.95 c -1.05,0 -2.08,0 -3.12,0 -0.04,0.29 0.09,0.49 0.29,0.61 0.21,0.12 0.45,0.23 0.68,0.27 0.57,0.1 1.14,0.01 1.74,-0.16 0.07,0.35 0.14,0.68 0.2,1.02 -0.27,0.18 -0.56,0.22 -0.85,0.27 -0.57,0.1 -1.15,0.12 -1.72,0 -1.08,-0.24 -1.68,-0.88 -1.85,-1.97 -0.15,-0.95 0.07,-1.8 0.75,-2.49 0.69,-0.7 1.95,-0.87 2.81,-0.41 0.64,0.34 0.95,0.92 1.08,1.6 0.09,0.4 0.11,0.81 -0.01,1.26 z m -3.15,-1.1 c 0.61,0 1.19,0 1.76,0 -0.02,-0.6 -0.3,-0.93 -0.78,-0.96 -0.52,-0.04 -0.89,0.32 -0.98,0.96 z"
   id="path124" />
		<path
   class="st3"
   d="m 209.36,44.12 c -0.26,0.07 -0.49,0.15 -0.73,0.2 -0.58,0.12 -1.17,0.15 -1.75,0.05 -1.04,-0.17 -1.74,-0.85 -1.93,-1.9 -0.16,-0.85 0,-1.64 0.52,-2.34 0.74,-1 2.21,-1.1 3.05,-0.64 0.66,0.37 0.97,0.98 1.07,1.69 0.05,0.36 0.01,0.73 0.01,1.14 -1.07,0 -2.12,0 -3.19,0 0.01,0.37 0.18,0.6 0.45,0.72 0.27,0.12 0.57,0.21 0.86,0.22 0.35,0.02 0.7,-0.06 1.05,-0.1 0.11,-0.01 0.22,-0.05 0.38,-0.08 0.07,0.34 0.14,0.67 0.21,1.04 z m -1.21,-2.89 c 0,-0.59 -0.29,-0.93 -0.77,-0.95 -0.55,-0.03 -0.92,0.33 -0.98,0.95 0.59,0 1.17,0 1.75,0 z"
   id="path126" />
		<path
   class="st3"
   d="m 178.83,17.95 c -1.06,0 -2.11,0 -3.16,0 -0.01,0.37 0.19,0.56 0.44,0.71 0.34,0.2 0.72,0.24 1.1,0.21 0.39,-0.03 0.77,-0.1 1.21,-0.15 0.06,0.31 0.12,0.64 0.18,0.97 -0.26,0.19 -0.55,0.23 -0.83,0.27 -0.58,0.1 -1.17,0.13 -1.75,0 -1.01,-0.22 -1.63,-0.84 -1.82,-1.87 -0.14,-0.77 -0.03,-1.51 0.41,-2.18 0.65,-1.01 2.11,-1.39 3.16,-0.8 0.23,0.13 0.45,0.32 0.61,0.53 0.51,0.68 0.56,1.46 0.45,2.31 z m -1.41,-1.1 c -0.04,-0.65 -0.36,-1 -0.89,-0.97 -0.49,0.02 -0.86,0.44 -0.85,0.97 0.58,0 1.16,0 1.74,0 z"
   id="path128" />
		<path
   class="st3"
   d="m 112.69,43.11 c 0.06,0.31 0.12,0.64 0.19,0.99 -0.67,0.28 -1.34,0.35 -2.02,0.32 -0.26,-0.01 -0.52,-0.06 -0.77,-0.13 -0.83,-0.25 -1.38,-0.78 -1.57,-1.64 -0.19,-0.85 -0.1,-1.66 0.39,-2.41 0.73,-1.11 2.24,-1.22 3.11,-0.77 0.06,0.03 0.11,0.07 0.17,0.1 0.9,0.55 1.14,2.07 0.87,2.76 -1.02,0 -2.05,0 -3.1,0 -0.05,0.35 0.15,0.53 0.38,0.68 0.28,0.19 0.61,0.26 0.93,0.25 0.46,-0.02 0.91,-0.09 1.42,-0.15 z m -1.03,-1.88 c 0.03,-0.57 -0.26,-0.93 -0.75,-0.95 -0.56,-0.03 -0.95,0.36 -0.96,0.95 0.57,0 1.14,0 1.71,0 z"
   id="path130" />
		<path
   class="st3"
   d="m 164.53,30.14 c -1.07,0 -2.1,0 -3.16,0 -0.02,0.37 0.19,0.57 0.46,0.72 0.34,0.19 0.72,0.25 1.1,0.21 0.38,-0.04 0.75,-0.1 1.18,-0.17 0.06,0.32 0.13,0.65 0.2,1.01 -0.64,0.28 -1.29,0.33 -1.94,0.32 -0.25,-0.01 -0.5,-0.04 -0.74,-0.1 -0.94,-0.23 -1.53,-0.82 -1.72,-1.78 -0.17,-0.88 -0.03,-1.7 0.52,-2.42 0.83,-1.09 2.62,-1.21 3.51,-0.26 0.12,0.12 0.22,0.26 0.3,0.41 0.34,0.63 0.39,1.31 0.29,2.06 z m -1.4,-1.1 c -0.1,-0.72 -0.41,-1.01 -0.98,-0.95 -0.46,0.05 -0.79,0.47 -0.76,0.95 0.57,0 1.14,0 1.74,0 z"
   id="path132" />
		<path
   class="st3"
   d="m 100.78,30.89 c 0.07,0.33 0.13,0.65 0.2,1.02 -0.2,0.07 -0.39,0.15 -0.58,0.19 -0.55,0.12 -1.11,0.16 -1.68,0.1 -1.27,-0.13 -2.08,-0.94 -2.2,-2.22 -0.05,-0.56 0.05,-1.09 0.29,-1.6 0.64,-1.35 2.19,-1.6 3.21,-1.15 0.56,0.25 0.9,0.71 1.08,1.28 0.17,0.52 0.17,1.05 0.09,1.62 -1.06,0 -2.1,0 -3.17,0 0.03,0.43 0.27,0.65 0.59,0.79 0.34,0.15 0.71,0.19 1.08,0.14 0.34,-0.04 0.69,-0.1 1.09,-0.17 z m -1,-1.85 c 0.01,-0.69 -0.45,-0.99 -0.88,-0.96 -0.5,0.03 -0.86,0.41 -0.86,0.96 0.57,0 1.14,0 1.74,0 z"
   id="path134" />
		<path
   class="st3"
   d="m 184.5,30.14 c -1.08,0 -2.12,0 -3.19,0 0.04,0.41 0.27,0.63 0.58,0.77 0.35,0.16 0.73,0.2 1.12,0.15 0.34,-0.04 0.67,-0.11 1.05,-0.17 0.14,0.3 0.14,0.65 0.23,1.01 -0.12,0.05 -0.23,0.1 -0.34,0.13 -0.7,0.2 -1.42,0.26 -2.14,0.14 -1.06,-0.17 -1.73,-0.83 -1.94,-1.89 -0.13,-0.7 -0.04,-1.38 0.3,-2.02 0.68,-1.27 2.21,-1.47 3.2,-1.01 0.51,0.24 0.83,0.67 1.01,1.2 0.18,0.53 0.19,1.08 0.12,1.69 z m -3.18,-1.1 c 0.58,0 1.17,0 1.75,0 -0.04,-0.63 -0.31,-0.95 -0.83,-0.95 -0.52,-0.01 -0.87,0.34 -0.92,0.95 z"
   id="path136" />
		<path
   class="st3"
   d="m 182.56,42.33 c -1.05,0 -2.08,0 -3.13,0 -0.02,0.37 0.19,0.58 0.46,0.72 0.42,0.23 0.88,0.25 1.34,0.19 0.3,-0.04 0.59,-0.1 0.93,-0.16 0.06,0.33 0.13,0.67 0.2,1.02 -0.68,0.28 -1.35,0.35 -2.03,0.32 -0.26,-0.01 -0.52,-0.06 -0.77,-0.13 -0.83,-0.25 -1.38,-0.79 -1.57,-1.64 -0.22,-1.03 -0.07,-1.98 0.71,-2.76 0.7,-0.7 1.94,-0.88 2.81,-0.4 0.24,0.14 0.46,0.34 0.64,0.56 0.37,0.43 0.63,1.41 0.41,2.28 z m -3.14,-1.11 c 0.6,0 1.18,0 1.76,0 -0.07,-0.66 -0.33,-0.94 -0.84,-0.95 -0.51,0 -0.85,0.34 -0.92,0.95 z"
   id="path138" />
		<path
   class="st3"
   d="m 122.55,54.52 c -0.56,0 -1.08,0 -1.61,0 -0.51,0 -1.02,0 -1.55,0 -0.05,0.32 0.13,0.5 0.34,0.66 0.27,0.2 0.59,0.29 0.93,0.27 0.47,-0.02 0.93,-0.08 1.44,-0.13 0.13,0.26 0.14,0.61 0.22,0.97 -0.16,0.06 -0.31,0.13 -0.47,0.17 -0.65,0.15 -1.31,0.22 -1.98,0.11 -1.03,-0.17 -1.73,-0.81 -1.94,-1.84 -0.15,-0.74 -0.06,-1.46 0.32,-2.12 0.62,-1.08 2.07,-1.52 3.18,-0.96 0.36,0.18 0.64,0.45 0.83,0.81 0.35,0.63 0.4,1.31 0.29,2.06 z m -1.42,-1.08 c 0,-0.63 -0.31,-0.98 -0.83,-0.98 -0.53,0 -0.89,0.39 -0.91,0.98 0.58,0 1.16,0 1.74,0 z"
   id="path140" />
		<path
   class="st3"
   d="m 228.92,54.52 c -1.1,0 -2.14,0 -3.21,0 0.03,0.38 0.22,0.6 0.51,0.74 0.45,0.23 0.94,0.22 1.42,0.16 0.26,-0.03 0.51,-0.09 0.82,-0.15 0.07,0.33 0.13,0.66 0.2,1 -0.12,0.05 -0.21,0.1 -0.3,0.13 -0.81,0.23 -1.62,0.31 -2.44,0.09 -0.99,-0.27 -1.54,-0.95 -1.69,-1.95 -0.09,-0.65 0,-1.28 0.31,-1.87 0.59,-1.11 2.05,-1.6 3.19,-1.05 0.76,0.37 1.08,1.04 1.18,1.83 0.05,0.34 0.01,0.68 0.01,1.07 z m -3.2,-1.08 c 0.6,0 1.18,0 1.76,0 -0.03,-0.64 -0.31,-0.94 -0.81,-0.98 -0.48,-0.04 -0.96,0.42 -0.95,0.98 z"
   id="path142" />
		<path
   class="st3"
   d="m 205,54.52 c -1.07,0 -2.1,0 -3.15,0 -0.05,0.32 0.13,0.5 0.34,0.66 0.27,0.2 0.59,0.29 0.92,0.27 0.47,-0.02 0.93,-0.08 1.44,-0.13 0.13,0.27 0.14,0.61 0.22,0.97 -0.16,0.06 -0.31,0.13 -0.47,0.17 -0.64,0.14 -1.28,0.21 -1.94,0.11 -1.08,-0.17 -1.78,-0.81 -1.99,-1.88 -0.17,-0.89 -0.01,-1.72 0.57,-2.44 0.79,-0.99 2.27,-0.98 3.01,-0.57 0.33,0.18 0.58,0.44 0.76,0.77 0.35,0.64 0.39,1.32 0.29,2.07 z m -1.4,-1.07 c -0.04,-0.68 -0.35,-1.01 -0.91,-0.98 -0.5,0.02 -0.87,0.45 -0.83,0.98 0.57,0 1.14,0 1.74,0 z"
   id="path144" />
		<path
   class="st5"
   d="m 177.27,54.52 c -1.08,0 -2.12,0 -3.18,0 0.03,0.44 0.29,0.66 0.64,0.8 0.43,0.17 0.87,0.16 1.31,0.1 0.26,-0.03 0.51,-0.09 0.8,-0.15 0.07,0.34 0.13,0.67 0.2,1.01 -0.34,0.17 -0.68,0.23 -1.03,0.28 -0.47,0.07 -0.94,0.08 -1.41,0 -1.09,-0.18 -1.79,-0.85 -1.97,-1.94 -0.17,-0.99 0.05,-1.88 0.79,-2.59 0.68,-0.65 1.92,-0.82 2.75,-0.38 0.64,0.34 0.97,0.91 1.08,1.6 0.07,0.4 0.02,0.81 0.02,1.27 z m -3.18,-1.06 c 0.32,0 0.6,0 0.89,0 0.29,-0.01 0.59,0.03 0.88,-0.03 -0.02,-0.62 -0.3,-0.95 -0.78,-0.97 -0.55,-0.02 -0.9,0.32 -0.99,1 z"
   id="path146" />
		<path
   class="st5"
   d="m 212.84,54.51 c 0.04,0.44 0.28,0.65 0.61,0.79 0.44,0.19 0.89,0.18 1.35,0.11 0.26,-0.03 0.51,-0.09 0.8,-0.15 0.07,0.34 0.13,0.67 0.21,1.02 -0.72,0.28 -1.43,0.37 -2.17,0.3 -0.16,-0.01 -0.31,-0.04 -0.46,-0.08 -1.54,-0.36 -1.92,-1.65 -1.81,-2.76 0.06,-0.6 0.28,-1.14 0.68,-1.6 0.79,-0.9 2.22,-0.89 2.93,-0.49 0.44,0.25 0.73,0.62 0.91,1.09 0.21,0.55 0.22,1.12 0.14,1.74 -1.06,0.03 -2.11,0.03 -3.19,0.03 z m -0.01,-1.05 c 0.32,0 0.6,0 0.89,0 0.3,0 0.59,0 0.88,0 0.01,-0.59 -0.27,-0.96 -0.72,-1 -0.56,-0.05 -0.92,0.28 -1.05,1 z"
   id="path148" />
		<path
   class="st3"
   d="m 150.24,29.59 c -0.28,-0.42 -0.56,-0.82 -0.83,-1.22 -0.26,-0.39 -0.52,-0.77 -0.8,-1.2 0.61,0 1.16,0 1.74,0 0.28,0.48 0.57,0.97 0.88,1.52 0.2,-0.38 0.38,-0.71 0.56,-1.05 0.33,-0.6 0.14,-0.48 0.83,-0.49 0.35,-0.01 0.7,0 1.12,0 -0.57,0.82 -1.09,1.58 -1.63,2.37 0.54,0.85 1.07,1.69 1.64,2.58 -0.63,0 -1.18,0 -1.76,0 -0.28,-0.51 -0.57,-1.02 -0.87,-1.57 -0.06,0.09 -0.11,0.15 -0.15,0.23 -0.2,0.38 -0.4,0.77 -0.59,1.15 -0.07,0.14 -0.15,0.22 -0.33,0.22 -0.47,-0.01 -0.94,0 -1.49,0 0.28,-0.47 0.57,-0.87 0.84,-1.28 0.27,-0.41 0.54,-0.81 0.84,-1.26 z"
   id="path150" />
		<path
   class="st3"
   d="m 218.3,44.08 c 0.1,-0.37 0.18,-0.71 0.27,-1.05 0.4,0.1 0.76,0.21 1.13,0.28 0.17,0.03 0.36,0 0.54,-0.02 0.17,-0.02 0.29,-0.12 0.32,-0.3 0.03,-0.19 -0.05,-0.34 -0.22,-0.42 -0.15,-0.08 -0.31,-0.13 -0.47,-0.2 -0.25,-0.11 -0.51,-0.21 -0.74,-0.35 -1.09,-0.68 -0.76,-1.9 -0.05,-2.4 0.4,-0.28 0.86,-0.39 1.33,-0.4 0.49,-0.01 0.96,0.07 1.45,0.3 -0.08,0.34 -0.16,0.67 -0.25,1.03 -0.3,-0.08 -0.58,-0.17 -0.87,-0.22 -0.19,-0.03 -0.4,-0.01 -0.57,0.05 -0.28,0.1 -0.32,0.41 -0.07,0.58 0.16,0.11 0.35,0.18 0.53,0.26 0.25,0.11 0.52,0.2 0.75,0.34 1,0.62 0.95,2.02 -0.09,2.58 -0.43,0.23 -0.89,0.3 -1.37,0.29 -0.56,0 -1.08,-0.09 -1.62,-0.35 z"
   id="path152" />
		<path
   class="st3"
   d="m 193.74,30.95 c 0,0.4 0,0.76 0,1.15 -0.57,0.16 -1.13,0.21 -1.69,0 -0.49,-0.18 -0.74,-0.57 -0.83,-1.06 -0.05,-0.27 -0.06,-0.55 -0.07,-0.82 -0.01,-0.62 0,-1.25 0,-1.9 -0.23,-0.02 -0.42,-0.03 -0.63,-0.04 0,-0.37 0,-0.72 0,-1.1 0.21,-0.01 0.4,-0.02 0.62,-0.03 0,-0.3 0,-0.59 0,-0.91 0.52,-0.14 1.01,-0.28 1.55,-0.43 0,0.47 0,0.88 0,1.35 0.37,0 0.72,0 1.08,0 0,0.4 0,0.74 0,1.13 -0.34,0 -0.67,0 -0.98,0 -0.05,0.06 -0.08,0.07 -0.08,0.09 -0.01,0.67 -0.03,1.33 -0.01,2 0.01,0.42 0.21,0.57 0.63,0.58 0.12,-0.01 0.24,-0.01 0.41,-0.01 z"
   id="path154" />
		<path
   class="st3"
   d="m 257.55,52.7 c -0.23,-0.01 -0.41,-0.02 -0.65,-0.04 0,-0.19 0,-0.37 0,-0.55 0,-0.18 0,-0.36 0,-0.57 0.22,-0.02 0.41,-0.03 0.63,-0.04 0,-0.29 0,-0.58 0,-0.89 0.51,-0.14 0.99,-0.28 1.53,-0.43 0,0.46 0,0.88 0,1.34 0.4,0 0.74,0 1.11,0 0,0.4 0,0.74 0,1.14 -0.35,0 -0.69,0 -1.09,0 0,0.24 0,0.43 0,0.62 0,0.43 -0.01,0.86 0,1.3 0.02,0.61 0.18,0.75 0.79,0.74 0.06,0 0.13,0 0.24,0 0.04,0.37 0.01,0.74 0.02,1.15 -0.68,0.19 -1.33,0.25 -1.96,-0.13 -0.31,-0.19 -0.47,-0.49 -0.54,-0.83 -0.05,-0.27 -0.08,-0.54 -0.08,-0.82 -0.01,-0.64 0,-1.3 0,-1.99 z"
   id="path156" />
		<path
   class="st3"
   d="m 240.57,52.7 c -0.23,-0.01 -0.41,-0.02 -0.62,-0.03 0,-0.37 0,-0.73 0,-1.12 0.19,-0.01 0.38,-0.03 0.61,-0.04 0,-0.29 0,-0.58 0,-0.89 0.51,-0.14 0.99,-0.28 1.53,-0.43 0,0.46 0,0.88 0,1.34 0.4,0 0.74,0 1.11,0 0,0.4 0,0.74 0,1.14 -0.35,0 -0.69,0 -1.09,0 0,0.24 0,0.43 0,0.62 0,0.43 -0.01,0.86 0,1.3 0.02,0.61 0.18,0.75 0.79,0.74 0.06,0 0.13,0 0.25,0 0.03,0.37 0.01,0.74 0.01,1.15 -0.69,0.19 -1.36,0.26 -1.99,-0.15 -0.29,-0.19 -0.44,-0.48 -0.51,-0.81 -0.05,-0.27 -0.08,-0.54 -0.08,-0.82 -0.01,-0.65 -0.01,-1.31 -0.01,-2 z"
   id="path158" />
		<path
   class="st3"
   d="m 101.77,19.69 c 0.09,-0.38 0.18,-0.72 0.27,-1.07 0.27,0.09 0.51,0.19 0.76,0.24 0.29,0.05 0.6,0.05 0.89,0.05 0.17,0 0.29,-0.11 0.33,-0.29 0.04,-0.19 -0.04,-0.34 -0.21,-0.42 -0.16,-0.09 -0.33,-0.15 -0.5,-0.22 -0.25,-0.11 -0.51,-0.21 -0.74,-0.35 -1.02,-0.62 -0.78,-1.89 -0.03,-2.4 0.43,-0.29 0.91,-0.4 1.41,-0.39 0.46,0.01 0.91,0.09 1.36,0.3 -0.09,0.35 -0.17,0.69 -0.26,1.04 -0.27,-0.08 -0.51,-0.17 -0.75,-0.21 -0.21,-0.03 -0.44,-0.02 -0.65,0.02 -0.1,0.02 -0.2,0.16 -0.25,0.27 -0.06,0.15 0.03,0.29 0.17,0.36 0.17,0.09 0.36,0.16 0.53,0.25 0.24,0.11 0.49,0.19 0.71,0.33 0.51,0.3 0.74,0.76 0.7,1.35 -0.04,0.57 -0.33,0.98 -0.83,1.24 -0.37,0.19 -0.77,0.25 -1.18,0.26 -0.57,0.01 -1.15,-0.07 -1.73,-0.36 z"
   id="path160" />
		<path
   class="st3"
   d="m 234.32,19.7 c 0.09,-0.39 0.18,-0.73 0.26,-1.05 0.43,0.1 0.82,0.2 1.22,0.28 0.15,0.03 0.31,0 0.47,-0.03 0.16,-0.03 0.29,-0.12 0.31,-0.3 0.02,-0.18 -0.04,-0.31 -0.19,-0.4 -0.16,-0.09 -0.33,-0.15 -0.5,-0.22 -0.27,-0.13 -0.56,-0.23 -0.81,-0.39 -0.81,-0.55 -0.84,-1.65 -0.08,-2.28 0.3,-0.25 0.65,-0.38 1.03,-0.44 0.62,-0.1 1.22,-0.01 1.84,0.26 -0.08,0.35 -0.16,0.69 -0.25,1.05 -0.25,-0.07 -0.47,-0.16 -0.7,-0.2 -0.19,-0.04 -0.39,-0.05 -0.58,-0.03 -0.19,0.02 -0.36,0.11 -0.39,0.33 -0.03,0.2 0.11,0.31 0.26,0.39 0.15,0.07 0.31,0.13 0.47,0.2 0.18,0.08 0.37,0.14 0.54,0.23 0.61,0.31 0.91,0.8 0.85,1.5 -0.06,0.65 -0.43,1.06 -1.02,1.27 -0.91,0.31 -1.8,0.23 -2.73,-0.17 z"
   id="path162" />
		<path
   class="st3"
   d="m 159.56,56.26 c 0.09,-0.37 0.18,-0.7 0.26,-1.04 0.37,0.1 0.71,0.22 1.05,0.28 0.21,0.04 0.44,0 0.66,-0.03 0.15,-0.02 0.26,-0.12 0.28,-0.29 0.03,-0.17 -0.04,-0.32 -0.19,-0.4 -0.18,-0.1 -0.38,-0.17 -0.57,-0.25 -0.26,-0.12 -0.53,-0.23 -0.77,-0.39 -0.86,-0.58 -0.68,-1.63 -0.2,-2.12 0.44,-0.46 1,-0.6 1.61,-0.61 0.47,0 0.94,0.06 1.41,0.31 -0.08,0.33 -0.16,0.67 -0.25,1.02 -0.28,-0.08 -0.53,-0.16 -0.78,-0.2 -0.16,-0.03 -0.34,-0.02 -0.51,-0.01 -0.18,0.01 -0.33,0.1 -0.37,0.29 -0.04,0.2 0.08,0.33 0.24,0.41 0.15,0.08 0.31,0.13 0.47,0.2 0.23,0.1 0.46,0.18 0.68,0.31 0.54,0.31 0.79,0.79 0.74,1.41 -0.05,0.59 -0.37,1 -0.89,1.24 -0.54,0.25 -1.11,0.29 -1.69,0.22 -0.4,-0.05 -0.79,-0.12 -1.18,-0.35 z"
   id="path164" />
		<path
   class="st3"
   d="m 125.62,44.06 c 0.08,-0.35 0.17,-0.69 0.25,-1.03 0.39,0.1 0.75,0.21 1.11,0.28 0.19,0.03 0.39,0 0.58,-0.02 0.17,-0.02 0.28,-0.13 0.3,-0.31 0.02,-0.18 -0.05,-0.31 -0.21,-0.39 -0.17,-0.09 -0.36,-0.15 -0.54,-0.24 -0.27,-0.13 -0.55,-0.24 -0.8,-0.41 -0.84,-0.57 -0.67,-1.59 -0.21,-2.09 0.45,-0.49 1.04,-0.64 1.67,-0.63 0.45,0 0.91,0.06 1.37,0.32 -0.08,0.33 -0.16,0.67 -0.25,1.01 -0.31,-0.08 -0.58,-0.17 -0.86,-0.21 -0.19,-0.03 -0.4,-0.01 -0.57,0.05 -0.28,0.09 -0.33,0.4 -0.09,0.58 0.15,0.11 0.35,0.18 0.52,0.26 0.25,0.11 0.51,0.2 0.75,0.34 1.02,0.58 0.93,2.08 -0.07,2.57 -0.3,0.15 -0.64,0.22 -0.97,0.28 -0.6,0.1 -1.38,-0.05 -1.98,-0.36 z"
   id="path166" />
		<path
   class="st4"
   d="m 108.04,16.08 c 0,0.74 -0.02,1.41 0.01,2.08 0.02,0.45 0.2,0.59 0.65,0.6 0.12,0 0.23,0 0.37,0 0,0.38 0,0.74 0,1.16 -0.63,0.15 -1.26,0.23 -1.88,-0.11 -0.35,-0.19 -0.53,-0.5 -0.61,-0.87 -0.05,-0.27 -0.08,-0.54 -0.08,-0.82 -0.01,-0.65 0,-1.31 0,-2 -0.21,-0.02 -0.4,-0.03 -0.62,-0.05 0,-0.36 0,-0.71 0,-1.09 0.19,-0.01 0.37,-0.02 0.59,-0.03 0,-0.3 0,-0.59 0,-0.9 0.28,-0.08 0.53,-0.16 0.78,-0.23 0.24,-0.07 0.47,-0.12 0.77,-0.2 0,0.46 0,0.89 0,1.34 0.39,0 0.72,0 1.09,0 0,0.38 0,0.73 0,1.12 -0.35,0 -0.69,0 -1.07,0 z"
   id="path168" />
		<path
   class="st5"
   d="m 108.01,44.29 c -0.53,0.14 -1.06,0.2 -1.59,0.04 -0.66,-0.21 -0.92,-0.71 -0.96,-1.34 -0.04,-0.56 -0.02,-1.13 -0.03,-1.69 0,-0.25 0,-0.49 0,-0.77 -0.23,-0.02 -0.43,-0.04 -0.65,-0.06 0,-0.37 0,-0.71 0,-1.09 0.2,-0.02 0.4,-0.03 0.64,-0.05 0,-0.3 0,-0.58 0,-0.9 0.51,-0.14 1,-0.28 1.52,-0.42 0,0.46 0,0.87 0,1.33 0.37,0 0.72,0 1.09,0 0,0.39 0,0.74 0,1.14 -0.34,0 -0.68,0 -1.08,0 0,0.23 0,0.41 0,0.59 0,0.42 0,0.84 0.01,1.26 0,0.14 0.02,0.29 0.06,0.43 0.08,0.29 0.2,0.38 0.51,0.4 0.08,0 0.16,0 0.24,0 0.08,0 0.15,0 0.26,0 -0.02,0.36 -0.02,0.72 -0.02,1.13 z"
   id="path170" />
		<path
   class="st4"
   d="m 157.8,16.11 c -0.24,-0.01 -0.43,-0.03 -0.65,-0.04 0,-0.36 0,-0.71 0,-1.09 0.2,-0.01 0.39,-0.02 0.63,-0.03 0,-0.3 0,-0.59 0,-0.91 0.52,-0.14 1,-0.28 1.54,-0.42 0,0.46 0,0.88 0,1.33 0.37,0 0.7,0 1.08,0 0.05,0.39 0.02,0.75 0.02,1.14 -0.37,0 -0.71,0 -1.06,0 -0.02,0.12 -0.04,0.21 -0.04,0.3 0,0.5 0,1 0,1.49 0,0.14 0.02,0.29 0.05,0.43 0.07,0.32 0.22,0.44 0.55,0.45 0.14,0.01 0.29,0 0.45,0 0,0.38 0,0.74 0,1.15 -0.67,0.16 -1.34,0.25 -1.97,-0.16 -0.45,-0.29 -0.56,-0.78 -0.58,-1.27 -0.03,-0.63 -0.01,-1.26 -0.02,-1.89 0,-0.15 0,-0.29 0,-0.48 z"
   id="path172" />
		<path
   class="st3"
   d="m 136.03,30.89 c 0.06,0.37 0.12,0.72 0.17,1.09 -0.42,0.22 -0.86,0.24 -1.28,0.25 -0.74,0.02 -1.44,-0.12 -1.99,-0.66 -0.79,-0.78 -0.91,-1.74 -0.61,-2.76 0.3,-1 1.05,-1.53 2.05,-1.71 0.71,-0.13 1.32,-0.06 1.84,0.17 -0.07,0.34 -0.14,0.7 -0.22,1.07 -0.09,-0.01 -0.17,-0.01 -0.24,-0.02 -0.19,-0.02 -0.39,-0.07 -0.58,-0.07 -0.84,-0.02 -1.38,0.51 -1.39,1.35 -0.01,0.84 0.55,1.42 1.39,1.4 0.27,0 0.54,-0.06 0.86,-0.11 z"
   id="path174" />
		<path
   class="st3"
   d="m 132.36,15.04 c -0.08,0.38 -0.15,0.74 -0.23,1.11 -0.25,-0.03 -0.48,-0.07 -0.7,-0.09 -0.52,-0.05 -0.97,0.08 -1.27,0.54 -0.31,0.49 -0.33,1.02 -0.07,1.53 0.25,0.5 0.7,0.69 1.23,0.68 0.27,0 0.54,-0.07 0.85,-0.12 0.06,0.36 0.12,0.72 0.18,1.13 -1.03,0.28 -2.01,0.36 -2.95,-0.2 -0.48,-0.29 -0.79,-0.72 -0.95,-1.25 -0.18,-0.58 -0.18,-1.16 0,-1.74 0.23,-0.75 0.71,-1.28 1.44,-1.56 0.79,-0.31 1.6,-0.31 2.47,-0.03 z"
   id="path176" />
		<path
   class="st3"
   d="m 133.86,39.43 c -0.09,0.4 -0.16,0.75 -0.24,1.12 -0.77,-0.15 -1.53,-0.29 -1.99,0.5 -0.32,0.54 -0.29,1.11 0.07,1.63 0.35,0.51 0.89,0.61 1.98,0.39 0.06,0.36 0.12,0.71 0.19,1.09 -0.11,0.05 -0.2,0.1 -0.29,0.13 -0.6,0.15 -1.22,0.19 -1.83,0.06 -1.1,-0.24 -1.82,-1.08 -1.9,-2.21 -0.11,-1.61 0.87,-2.75 2.48,-2.89 0.5,-0.05 1,-0.01 1.53,0.18 z"
   id="path178" />
		<path
   class="st3"
   d="m 153.47,55.29 c 0.06,0.33 0.12,0.69 0.18,1.07 -0.11,0.04 -0.2,0.1 -0.29,0.12 -0.67,0.17 -1.34,0.2 -2.01,0.01 -0.97,-0.28 -1.6,-1.03 -1.7,-2.03 -0.04,-0.42 -0.03,-0.84 0.1,-1.24 0.32,-1 1.04,-1.55 2.04,-1.73 0.56,-0.1 1.12,-0.08 1.67,0.07 0.06,0.02 0.12,0.05 0.2,0.09 -0.08,0.37 -0.15,0.72 -0.23,1.09 -0.13,-0.02 -0.23,-0.03 -0.33,-0.05 -0.16,-0.02 -0.31,-0.05 -0.47,-0.05 -0.56,-0.02 -1.01,0.18 -1.26,0.7 -0.26,0.55 -0.22,1.1 0.14,1.59 0.23,0.31 0.57,0.46 0.95,0.46 0.33,-0.01 0.65,-0.06 1.01,-0.1 z"
   id="path180" />
		<path
   class="st3"
   d="m 127.07,56.37 c -0.58,0.23 -1.14,0.29 -1.72,0.23 -0.27,-0.03 -0.54,-0.09 -0.8,-0.18 -0.75,-0.28 -1.24,-0.82 -1.42,-1.6 -0.22,-1 -0.08,-1.93 0.7,-2.68 0.36,-0.35 0.8,-0.55 1.28,-0.64 0.65,-0.12 1.29,-0.12 1.96,0.12 -0.08,0.38 -0.16,0.74 -0.24,1.12 -0.78,-0.16 -1.53,-0.28 -2,0.5 -0.32,0.54 -0.31,1.13 0.07,1.63 0.51,0.68 1.23,0.56 1.97,0.38 0.07,0.37 0.13,0.72 0.2,1.12 z"
   id="path182" />
		<path
   class="st3"
   d="m 267.22,51.62 c -0.09,0.39 -0.16,0.73 -0.24,1.1 -0.12,-0.02 -0.22,-0.03 -0.32,-0.04 -0.14,-0.02 -0.28,-0.05 -0.43,-0.05 -0.53,-0.03 -0.99,0.13 -1.26,0.62 -0.28,0.51 -0.27,1.03 0.01,1.54 0.22,0.38 0.57,0.58 1,0.59 0.33,0.01 0.67,-0.05 1.05,-0.07 0.05,0.32 0.12,0.68 0.18,1.06 -0.1,0.04 -0.19,0.1 -0.28,0.12 -0.68,0.17 -1.37,0.21 -2.05,0 -0.99,-0.3 -1.61,-1.1 -1.68,-2.14 -0.05,-0.82 0.13,-1.56 0.73,-2.16 0.37,-0.37 0.83,-0.6 1.34,-0.69 0.64,-0.12 1.28,-0.12 1.95,0.12 z"
   id="path184" />
		<path
   class="st3"
   d="m 245.44,49.31 c 0,2.41 0,4.78 0,7.17 -0.51,0 -1.01,0 -1.53,0 0,-2.39 0,-4.77 0,-7.17 0.51,0 1,0 1.53,0 z"
   id="path186" />
		<path
   class="st3"
   d="m 109.58,24.91 c 0.51,0 1,0 1.51,0 0,2.4 0,4.77 0,7.18 -0.5,0 -0.99,0 -1.51,0 0,-2.38 0,-4.77 0,-7.18 z"
   id="path188" />
		<path
   class="st7"
   d="m 201.17,32.1 c -0.5,0 -0.99,0 -1.51,0 0,-2.4 0,-4.77 0,-7.18 0.5,0 0.99,0 1.51,0 0,2.39 0,4.77 0,7.18 z"
   id="path190" />
		<path
   class="st7"
   d="m 120.9,12.72 c 0.51,0 0.99,0 1.49,0 0,2.39 0,4.77 0,7.19 -0.49,0.04 -0.98,0.01 -1.47,0.02 -0.08,-0.3 -0.1,-6.7 -0.02,-7.21 z"
   id="path192" />
		<path
   class="st3"
   d="m 142.99,37.11 c 0.51,0 1,0 1.52,0 0,2.39 0,4.76 0,7.14 -0.26,0.08 -1.01,0.1 -1.52,0.03 0,-2.38 0,-4.75 0,-7.17 z"
   id="path194" />
		<path
   class="st7"
   d="m 211.86,44.29 c -0.51,0 -0.99,0 -1.47,0 -0.08,-0.27 -0.11,-6.68 -0.02,-7.18 0.49,0 0.97,0 1.49,0 0,2.39 0,4.76 0,7.18 z"
   id="path196" />
		<path
   class="st3"
   d="m 187.18,49.28 c 0,2.42 0,4.79 0,7.19 -0.51,0 -1,0 -1.51,0 0,-2.38 0,-4.75 0,-7.18 0.49,-0.03 0.99,0 1.51,-0.01 z"
   id="path198" />
		<path
   class="st3"
   d="m 231.18,56.48 c -0.51,0 -1,0 -1.51,0 0,-2.4 0,-4.77 0,-7.17 0.5,0 0.99,0 1.51,0 0,2.38 0,4.75 0,7.17 z"
   id="path200" />
		<path
   class="st6"
   d="m 195.08,12.72 c 0.49,0 0.96,0 1.42,0 0.08,0.28 0.11,6.66 0.03,7.19 -0.47,0 -0.95,0 -1.43,0 -0.07,-0.27 -0.1,-6.65 -0.02,-7.19 z"
   id="path202" />
		<path
   class="st8"
   d="m 133.29,56.49 c 0,-2.41 0,-4.78 0,-7.17 0.5,0 0.99,0 1.5,0 0,2.38 0,4.75 0,7.16 -0.49,0.04 -0.98,0.02 -1.5,0.01 z"
   id="path204" />
		<path
   class="st8"
   d="m 96.88,44.29 c 0,-2.29 0,-4.53 0,-6.8 0.51,0 1,0 1.51,0 0,2.27 0,4.53 0,6.8 -0.51,0 -1,0 -1.51,0 z"
   id="path206" />
		<path
   class="st4"
   d="m 222.7,14.99 c 0.42,0 0.83,0 1.26,0 0.03,0.26 0.05,0.5 0.08,0.84 0.39,-0.7 0.88,-1.08 1.66,-0.97 0.05,0.47 0.02,0.94 0.02,1.44 -0.15,0 -0.27,0 -0.4,0 -0.7,0.01 -1.09,0.39 -1.1,1.1 -0.01,0.68 0,1.36 0,2.04 0,0.14 0,0.29 0,0.48 -0.51,0.02 -1,0.01 -1.53,0.01 0.01,-1.65 0.01,-3.28 0.01,-4.94 z"
   id="path208" />
		<path
   class="st3"
   d="m 115.43,44.29 c -0.54,0 -1.03,0 -1.56,0 0,-1.65 0,-3.28 0,-4.93 0.41,0 0.82,0 1.27,0 0.03,0.26 0.05,0.51 0.09,0.84 0.38,-0.7 0.87,-1.09 1.68,-0.95 0,0.47 0,0.93 0,1.42 -0.14,0 -0.28,0 -0.41,0 -0.66,0.01 -1.05,0.39 -1.06,1.05 -0.01,0.72 0,1.44 0,2.16 -0.01,0.14 -0.01,0.26 -0.01,0.41 z"
   id="path210" />
		<path
   class="st3"
   d="m 168.33,27.07 c 0,0.47 0,0.93 0,1.41 -0.09,0.01 -0.18,0.02 -0.26,0.01 -0.74,-0.07 -1.26,0.38 -1.22,1.21 0.03,0.65 0.01,1.31 0.01,1.96 0,0.13 0,0.26 0,0.38 -0.28,0.09 -1.07,0.11 -1.55,0.03 0,-1.62 0,-3.25 0,-4.9 0.41,0 0.83,0 1.28,0 0.02,0.24 0.03,0.48 0.05,0.74 0.25,-0.24 0.46,-0.5 0.72,-0.69 0.27,-0.2 0.61,-0.26 0.97,-0.15 z"
   id="path212" />
		<path
   class="st4"
   d="m 110.15,51.56 c 0.03,0.25 0.05,0.49 0.09,0.83 0.4,-0.7 0.88,-1.07 1.66,-0.94 0,0.47 0,0.92 0,1.42 -0.13,0 -0.25,0 -0.37,0 -0.68,0.01 -1.07,0.38 -1.1,1.07 -0.02,0.47 0,0.94 0,1.41 0,0.37 0,0.73 0,1.14 -0.26,0.01 -0.51,0.01 -0.75,0.01 -0.25,0 -0.49,0 -0.78,0 0,-1.66 0,-3.28 0,-4.94 0.39,0 0.81,0 1.25,0 z"
   id="path214" />
		<path
   class="st3"
   d="m 159.08,39.36 c 0.42,0 0.83,0 1.27,0 0.02,0.26 0.04,0.52 0.07,0.85 0.39,-0.68 0.88,-1.09 1.68,-0.95 0,0.48 0,0.94 0,1.43 -0.13,0 -0.25,0 -0.36,0 -0.7,0 -1.1,0.38 -1.11,1.08 -0.01,0.75 0,1.49 0,2.24 0,0.09 -0.01,0.18 -0.01,0.29 -0.52,0 -1.01,0 -1.53,0 -0.01,-1.65 -0.01,-3.28 -0.01,-4.94 z"
   id="path216" />
		<path
   class="st7"
   d="m 262.39,56.49 c -0.49,0 -0.98,0 -1.5,0 0,-1.64 0,-3.27 0,-4.94 0.49,-0.04 0.98,-0.01 1.46,-0.02 0.09,0.29 0.12,4.4 0.04,4.96 z"
   id="path218" />
		<path
   class="st3"
   d="m 145.58,39.36 c 0.52,0 1,0 1.51,0 0,1.64 0,3.27 0,4.93 -0.5,0 -0.99,0 -1.51,0 0,-1.64 0,-3.27 0,-4.93 z"
   id="path220" />
		<path
   class="st3"
   d="m 227.88,19.92 c -0.51,0 -0.99,0 -1.5,0 0,-1.64 0,-3.27 0,-4.93 0.49,0 0.99,0 1.5,0 0,1.63 0,3.26 0,4.93 z"
   id="path222" />
		<path
   class="st7"
   d="m 170.48,32.11 c -0.5,0 -0.98,0 -1.49,0 0,-1.64 0,-3.27 0,-4.93 0.49,0 0.98,0 1.47,0 0.07,0.27 0.09,4.35 0.02,4.93 z"
   id="path224" />
		<path
   class="st3"
   d="m 144.15,14.98 c 0.51,0 1,0 1.52,0 0,1.64 0,3.27 0,4.92 -0.5,0 -0.99,0 -1.48,0 -0.08,-0.28 -0.11,-4.04 -0.04,-4.92 z"
   id="path226" />
		<path
   class="st7"
   d="m 133.02,14.98 c 0.5,0 0.98,0 1.46,0 0.08,0.28 0.11,4.18 0.04,4.92 -0.49,0 -0.98,0 -1.47,0 -0.08,-0.26 -0.1,-4.23 -0.03,-4.92 z"
   id="path228" />
		<path
   class="st3"
   d="m 124.84,44.29 c -0.51,0 -1,0 -1.52,0 0,-1.64 0,-3.27 0,-4.92 0.5,0 0.99,0 1.48,0 0.08,0.28 0.11,4.12 0.04,4.92 z"
   id="path230" />
		<path
   class="st9"
   d="m 41.46,44.89 c 0,0.46 0,0.89 0,1.33 -1.74,0 -3.46,0 -5.21,0 0,-0.45 0,-0.88 0,-1.33 1.74,0 3.46,0 5.21,0 z"
   id="path232" />
		<path
   class="st8"
   d="m 148.83,56.48 c -0.5,0 -0.98,0 -1.49,0 0,-1.64 0,-3.27 0,-4.92 0.48,0 0.96,0 1.44,0 0.1,0.27 0.13,3.91 0.05,4.92 z"
   id="path234" />
		<path
   class="st8"
   d="m 136.02,44.29 c -0.5,0 -0.98,0 -1.49,0 0,-1.64 0,-3.27 0,-4.92 0.49,0 0.97,0 1.45,0 0.08,0.28 0.11,4.08 0.04,4.92 z"
   id="path236" />
		<path
   class="st8"
   d="m 164.27,39.35 c 0,1.67 0,3.29 0,4.93 -0.5,0 -0.98,0 -1.46,0 -0.08,-0.27 -0.12,-3.85 -0.04,-4.93 0.48,-0.01 0.97,-0.01 1.5,0 z"
   id="path238" />
		<path
   class="st8"
   d="m 125.64,32.1 c -0.51,0 -0.99,0 -1.49,0 0,-1.64 0,-3.26 0,-4.93 0.48,-0.02 0.97,-0.01 1.49,0 0,1.64 0,3.27 0,4.93 z"
   id="path240" />
		<path
   class="st8"
   d="m 197.65,14.99 c 0.5,0 0.98,0 1.46,0 0.08,0.29 0.11,4.09 0.04,4.94 -0.48,0.02 -0.97,0 -1.45,0.01 -0.1,-0.32 -0.13,-4.05 -0.05,-4.95 z"
   id="path242" />
		<path
   class="st7"
   d="m 198.39,14.35 c -0.48,0 -0.81,-0.31 -0.81,-0.76 -0.01,-0.46 0.35,-0.8 0.83,-0.8 0.46,0 0.81,0.33 0.82,0.78 0,0.46 -0.34,0.78 -0.84,0.78 z"
   id="path244" />
		<path
   class="st7"
   d="m 133.79,14.35 c -0.48,0.01 -0.82,-0.29 -0.83,-0.74 -0.01,-0.47 0.32,-0.81 0.81,-0.82 0.47,-0.01 0.84,0.34 0.84,0.79 -0.01,0.45 -0.34,0.77 -0.82,0.77 z"
   id="path246" />
		<path
   class="st7"
   d="m 124.9,26.54 c -0.48,0 -0.81,-0.31 -0.81,-0.76 0,-0.46 0.35,-0.8 0.83,-0.8 0.46,0 0.81,0.33 0.81,0.78 0.01,0.46 -0.33,0.78 -0.83,0.78 z"
   id="path248" />
		<path
   class="st3"
   d="m 247.84,50.93 c 0.29,-0.52 0.54,-0.96 0.8,-1.4 0.05,-0.08 0.15,-0.16 0.24,-0.16 0.4,-0.02 0.8,-0.01 1.28,-0.01 -0.11,0.15 -0.18,0.26 -0.26,0.35 -0.28,0.35 -0.56,0.69 -0.83,1.04 -0.1,0.13 -0.21,0.18 -0.37,0.18 -0.26,-0.01 -0.52,0 -0.86,0 z"
   id="path250" />
		<path
   class="st7"
   d="m 124.08,38.73 c -0.48,0 -0.81,-0.3 -0.82,-0.75 -0.01,-0.45 0.35,-0.8 0.83,-0.8 0.48,0 0.83,0.34 0.83,0.8 -0.01,0.45 -0.35,0.75 -0.84,0.75 z"
   id="path252" />
		<path
   class="st7"
   d="m 144.92,14.35 c -0.47,0.01 -0.82,-0.3 -0.83,-0.75 -0.01,-0.45 0.34,-0.8 0.82,-0.81 0.47,-0.01 0.84,0.34 0.83,0.8 0,0.44 -0.35,0.76 -0.82,0.76 z"
   id="path254" />
		<path
   class="st7"
   d="m 146.35,38.73 c -0.49,0.01 -0.81,-0.29 -0.82,-0.74 -0.01,-0.47 0.32,-0.8 0.81,-0.81 0.48,0 0.84,0.34 0.84,0.8 -0.01,0.44 -0.35,0.75 -0.83,0.75 z"
   id="path256" />
		<path
   class="st7"
   d="m 139.74,49.45 c -0.36,0.46 -0.73,0.91 -1.1,1.36 -0.05,0.06 -0.15,0.1 -0.23,0.11 -0.28,0.01 -0.57,0.01 -0.92,0.01 0.17,-0.31 0.31,-0.57 0.46,-0.82 0.14,-0.24 0.25,-0.57 0.47,-0.7 0.2,-0.12 0.53,-0.04 0.8,-0.05 0.16,0 0.33,0 0.5,0 0,0.03 0.01,0.06 0.02,0.09 z"
   id="path258" />
		<path
   class="st3"
   d="m 227.14,14.35 c -0.48,0.01 -0.81,-0.29 -0.82,-0.75 -0.01,-0.47 0.33,-0.81 0.81,-0.81 0.48,-0.01 0.84,0.34 0.83,0.8 -0.01,0.44 -0.34,0.76 -0.82,0.76 z"
   id="path260" />
		<path
   class="st7"
   d="m 170.55,25.76 c 0.01,0.46 -0.3,0.77 -0.78,0.78 -0.5,0.01 -0.85,-0.3 -0.86,-0.76 -0.01,-0.45 0.36,-0.8 0.83,-0.8 0.48,0.01 0.8,0.32 0.81,0.78 z"
   id="path262" />
		<path
   class="st7"
   d="m 164.34,37.98 c -0.01,0.47 -0.34,0.76 -0.85,0.75 -0.47,-0.01 -0.8,-0.34 -0.79,-0.79 0.01,-0.44 0.36,-0.76 0.82,-0.76 0.48,0 0.82,0.33 0.82,0.8 z"
   id="path264" />
		<path
   class="st7"
   d="m 261.65,49.39 c 0.5,-0.01 0.84,0.31 0.84,0.78 0,0.44 -0.35,0.76 -0.82,0.77 -0.49,0.01 -0.83,-0.32 -0.83,-0.79 0,-0.46 0.32,-0.76 0.81,-0.76 z"
   id="path266" />
		<path
   class="st7"
   d="m 148.1,50.94 c -0.47,0.01 -0.81,-0.31 -0.83,-0.75 -0.01,-0.47 0.32,-0.79 0.82,-0.8 0.48,0 0.81,0.3 0.83,0.75 0.01,0.45 -0.33,0.79 -0.82,0.8 z"
   id="path268" />
		<path
   class="st7"
   d="m 135.28,38.73 c -0.48,0 -0.81,-0.3 -0.81,-0.76 -0.01,-0.46 0.34,-0.8 0.83,-0.79 0.46,0 0.81,0.32 0.82,0.77 0,0.46 -0.34,0.78 -0.84,0.78 z"
   id="path270" />
	</g>
</g>
</svg>
