<?xml version="1.0" encoding="UTF-8" standalone="no"?>
<!-- Generator: Adobe Illustrator 23.0.0, SVG Export Plug-In . SVG Version: 6.00 Build 0)  -->

<svg
   version="1.1"
   id="Capa_1"
   x="0px"
   y="0px"
   viewBox="0 0 339.46499 141.73199"
   xml:space="preserve"
   sodipodi:docname="logo TCU.svg"
   width="339.465"
   height="141.73199"
   inkscape:version="1.1.1 (3bf5ae0d25, 2021-09-20)"
   xmlns:inkscape="http://www.inkscape.org/namespaces/inkscape"
   xmlns:sodipodi="http://sodipodi.sourceforge.net/DTD/sodipodi-0.dtd"
   xmlns="http://www.w3.org/2000/svg"
   xmlns:svg="http://www.w3.org/2000/svg"><defs
   id="defs169" /><sodipodi:namedview
   id="namedview167"
   pagecolor="#ffffff"
   bordercolor="#666666"
   borderopacity="1.0"
   inkscape:pageshadow="2"
   inkscape:pageopacity="0.0"
   inkscape:pagecheckerboard="0"
   showgrid="false"
   height="141.73199px"
   fit-margin-top="0"
   fit-margin-left="0"
   fit-margin-right="0"
   fit-margin-bottom="0"
   inkscape:zoom="2.8291257"
   inkscape:cx="180.09097"
   inkscape:cy="23.152029"
   inkscape:window-width="1920"
   inkscape:window-height="1057"
   inkscape:window-x="-8"
   inkscape:window-y="-8"
   inkscape:window-maximized="1"
   inkscape:current-layer="Capa_1"
   width="283.465px" />
<style
   type="text/css"
   id="style2">
	.st0{fill:#040404;}
	.st1{fill:#1EC3F3;}
	.st2{fill:#050505;}
	.st3{fill:#666769;}
	.st4{fill:#67686A;}
	.st5{fill:#656668;}
	.st6{fill:#6A6B6D;}
	.st7{fill:#68696B;}
</style>
<g
   id="g164"
   transform="matrix(1.2750033,0,0,1.9278342,-9.4534198,19.865894)"
   inkscape:transform-center-x="-0.3186772"
   inkscape:transform-center-y="-91.549516">
	<g
   id="g162">
		<path
   class="st0"
   d="m 47.2,33.43 c 0.04,-0.08 0.06,-0.16 0.12,-0.22 1.77,-1.92 4.82,-2.07 6.79,-0.9 1.23,0.73 1.97,1.82 2.24,3.21 0.38,1.92 -0.05,3.65 -1.37,5.11 -1.05,1.16 -2.39,1.71 -3.94,1.77 -2.52,0.1 -4.66,-1.06 -5.69,-3.46 -0.24,-0.57 -0.42,-1.18 -0.52,-1.79 -0.33,-2.1 -0.08,-4.13 0.83,-6.06 1.19,-2.53 3.22,-4.05 5.9,-4.71 1.01,-0.25 2.05,-0.38 3.13,-0.36 0,0.6 0,1.18 0,1.74 -0.71,0.08 -1.42,0.11 -2.11,0.24 -1.97,0.36 -3.58,1.28 -4.67,3 -0.45,0.72 -0.75,1.49 -0.86,2.34 0.05,0.02 0.1,0.06 0.15,0.09 z m 6.98,3.48 c 0,-0.15 0.01,-0.3 0,-0.45 -0.14,-1.27 -0.69,-2.28 -1.89,-2.84 -1.75,-0.82 -3.95,-0.19 -4.98,1.45 -0.19,0.3 -0.36,0.68 -0.37,1.03 -0.05,1.13 0.21,2.21 0.88,3.15 1.28,1.79 4,1.97 5.42,0.37 0.68,-0.78 0.95,-1.7 0.94,-2.71 z"
   id="path4" />
		<path
   class="st1"
   d="m 10.6,48.91 c 0,-0.22 0,-0.38 0,-0.55 0,-0.15 0,-0.3 0,-0.44 0.4,-0.11 72.23,-0.15 73.26,-0.05 0,0.33 0,0.67 0,1.04 -24.4,0 -48.8,0 -73.26,0 z"
   id="path6" />
		<path
   class="st0"
   d="m 36.68,39.79 c 0.16,0.58 0.3,1.13 0.46,1.7 -0.61,0.33 -1.24,0.48 -1.88,0.61 -1.99,0.39 -3.97,0.46 -5.96,-0.04 -0.75,-0.19 -1.47,-0.47 -2.15,-0.85 -1.73,-0.98 -2.93,-2.4 -3.52,-4.31 -0.6,-1.92 -0.62,-3.85 0.05,-5.75 0.87,-2.47 2.6,-4.14 5.04,-5.04 2.57,-0.94 5.18,-0.9 7.78,-0.14 0.22,0.07 0.43,0.17 0.69,0.27 -0.19,0.6 -0.37,1.17 -0.54,1.69 -0.82,-0.2 -1.59,-0.45 -2.38,-0.57 -1.51,-0.24 -3.03,-0.17 -4.48,0.35 -2.25,0.79 -3.62,2.38 -4.1,4.71 -0.24,1.2 -0.23,2.42 0.12,3.6 0.71,2.39 2.36,3.79 4.75,4.31 2.06,0.44 4.09,0.23 6.12,-0.54 z"
   id="path8" />
		<path
   class="st2"
   d="m 57.55,42.09 c 0,-0.47 0,-0.89 0,-1.33 0.36,-0.31 0.74,-0.62 1.09,-0.95 1.62,-1.5 3.25,-2.98 4.83,-4.52 0.61,-0.59 1.13,-1.29 1.61,-2 0.62,-0.9 0.87,-1.92 0.66,-3.03 -0.27,-1.39 -1.17,-2.2 -2.58,-2.38 -1.43,-0.18 -2.7,0.2 -3.87,0.99 -0.19,0.13 -0.38,0.27 -0.61,0.43 -0.25,-0.5 -0.49,-0.97 -0.74,-1.46 0.04,-0.05 0.07,-0.11 0.11,-0.15 2.02,-1.57 4.27,-2.1 6.74,-1.41 2.01,0.56 3.23,2.29 3.25,4.37 0.01,1.13 -0.31,2.16 -0.88,3.12 -0.59,1.01 -1.34,1.9 -2.19,2.7 -1.24,1.17 -2.51,2.3 -3.77,3.44 -0.12,0.11 -0.24,0.21 -0.43,0.39 2.61,0 5.11,0 7.64,0 0,0.61 0,1.19 0,1.8 -3.58,-0.01 -7.2,-0.01 -10.86,-0.01 z"
   id="path10" />
		<path
   class="st2"
   d="m 18.31,27.53 c 0,4.91 0,9.74 0,14.58 -0.75,0 -1.45,0 -2.22,0 0,-4.85 0,-9.69 0,-14.57 -1.91,0 -3.76,0 -5.64,0 0,-0.61 0,-1.19 0,-1.81 4.5,0 9.01,0 13.54,0 0,0.59 0,1.17 0,1.8 -1.87,0 -3.73,0 -5.68,0 z"
   id="path12" />
		<path
   class="st0"
   d="m 78.9,28.1 c -2.85,0 -5.59,0 -8.38,0 0,-0.59 0,-1.17 0,-1.79 3.56,0 7.12,0 10.72,0 0,0.74 0.07,1.43 -0.31,2.15 -2.32,4.37 -4.59,8.76 -6.88,13.15 -0.09,0.16 -0.18,0.32 -0.27,0.49 -0.76,0 -1.51,0 -2.34,0 2.48,-4.67 4.95,-9.29 7.46,-14 z"
   id="path14" />
		<path
   class="st3"
   d="m 130.64,34.44 c -0.63,0 -1.18,0 -1.78,0 0,-1.96 0,-3.91 0,-5.88 0.47,0 0.95,0 1.48,0 0.04,0.19 0.07,0.4 0.12,0.67 0.13,-0.11 0.23,-0.21 0.34,-0.3 0.63,-0.54 1.35,-0.66 2.12,-0.42 0.35,0.11 0.53,0.27 0.97,0.82 0.12,-0.11 0.23,-0.22 0.35,-0.33 0.34,-0.33 0.75,-0.52 1.21,-0.58 1.09,-0.14 1.87,0.37 2.18,1.43 0.08,0.27 0.14,0.56 0.15,0.84 0.02,1.23 0.01,2.46 0.01,3.76 -0.59,0.03 -1.16,0.02 -1.77,0.01 -0.01,-0.18 -0.03,-0.33 -0.03,-0.48 0,-0.89 0.01,-1.78 -0.01,-2.68 0,-0.25 -0.03,-0.51 -0.09,-0.75 -0.12,-0.47 -0.41,-0.67 -0.83,-0.65 -0.39,0.03 -0.72,0.32 -0.79,0.73 -0.03,0.18 -0.03,0.37 -0.03,0.55 0,0.91 0,1.82 0,2.73 0,0.16 0,0.33 0,0.52 -0.62,0 -1.19,0 -1.82,0 0,-0.17 0,-0.33 0,-0.49 0,-0.89 0.01,-1.78 0,-2.68 0,-0.25 -0.02,-0.51 -0.08,-0.75 -0.08,-0.31 -0.27,-0.54 -0.61,-0.6 -0.35,-0.05 -0.66,0.05 -0.83,0.35 -0.13,0.24 -0.23,0.53 -0.23,0.8 -0.03,0.94 -0.01,1.89 -0.01,2.83 -0.02,0.17 -0.02,0.34 -0.02,0.55 z"
   id="path16" />
		<path
   class="st3"
   d="m 188.99,48.91 c -0.63,0 -1.18,0 -1.78,0 0,-1.96 0,-3.91 0,-5.88 0.48,0 0.96,0 1.49,0 0.03,0.22 0.07,0.44 0.11,0.67 1.3,-1.29 2.75,-0.98 3.45,0.1 0.12,-0.12 0.23,-0.23 0.35,-0.34 0.51,-0.48 1.13,-0.66 1.81,-0.58 0.69,0.08 1.2,0.46 1.45,1.11 0.13,0.34 0.25,0.71 0.25,1.07 0.03,1.26 0.01,2.52 0.01,3.84 -0.59,0.05 -1.17,0.04 -1.77,0.01 -0.01,-0.19 -0.02,-0.36 -0.02,-0.52 0,-0.88 0.01,-1.75 -0.01,-2.63 0,-0.25 -0.03,-0.51 -0.09,-0.75 -0.12,-0.45 -0.4,-0.65 -0.79,-0.64 -0.39,0.01 -0.74,0.3 -0.82,0.7 -0.04,0.2 -0.04,0.4 -0.04,0.6 0,0.89 0,1.79 0,2.68 0,0.17 0,0.33 0,0.53 -0.6,0.1 -1.16,0.02 -1.76,0.05 -0.01,-0.18 -0.03,-0.32 -0.04,-0.47 0,-0.88 0,-1.75 -0.01,-2.63 0,-0.27 -0.03,-0.54 -0.09,-0.8 -0.07,-0.33 -0.26,-0.59 -0.62,-0.65 -0.37,-0.07 -0.69,0.08 -0.86,0.39 -0.13,0.24 -0.21,0.54 -0.22,0.81 -0.03,0.93 -0.01,1.85 -0.01,2.78 0.01,0.17 0.01,0.34 0.01,0.55 z"
   id="path18" />
		<path
   class="st3"
   d="m 155.58,19.96 c -0.6,0 -1.16,0 -1.75,0 -0.01,-0.17 -0.03,-0.32 -0.03,-0.46 0,-0.93 0.01,-1.85 -0.01,-2.78 0,-0.25 -0.03,-0.51 -0.11,-0.74 -0.22,-0.63 -0.93,-0.75 -1.37,-0.26 -0.22,0.24 -0.27,0.53 -0.27,0.84 0,0.96 0,1.92 0,2.88 0,0.16 -0.01,0.33 -0.02,0.52 -0.6,0 -1.16,0 -1.72,0 -0.02,-0.07 -0.05,-0.12 -0.05,-0.16 0,-1.89 0,-3.77 0,-5.73 0.46,-0.03 0.97,-0.01 1.49,0 0.03,0.24 0.06,0.44 0.09,0.64 0.38,-0.23 0.72,-0.49 1.1,-0.66 0.42,-0.19 0.89,-0.16 1.34,-0.02 0.45,0.13 0.75,0.44 1,0.86 0.12,-0.12 0.22,-0.22 0.33,-0.32 0.56,-0.55 1.25,-0.72 2,-0.6 0.57,0.09 1.01,0.42 1.24,0.94 0.16,0.36 0.29,0.77 0.31,1.16 0.04,1.25 0.02,2.49 0.02,3.74 0,0.05 -0.03,0.09 -0.05,0.17 -0.56,0 -1.13,0 -1.74,0 0,-0.19 0,-0.35 0,-0.52 0,-0.83 0.01,-1.65 0,-2.48 -0.01,-0.32 -0.03,-0.64 -0.11,-0.95 -0.08,-0.34 -0.3,-0.56 -0.67,-0.59 -0.38,-0.03 -0.68,0.13 -0.83,0.46 -0.1,0.22 -0.14,0.48 -0.15,0.73 -0.02,0.94 -0.01,1.89 -0.01,2.83 -0.01,0.15 -0.02,0.32 -0.03,0.5 z"
   id="path20" />
		<path
   class="st3"
   d="m 97.74,26.32 c 0.56,0 1.13,0 1.75,0 0.06,0.51 0.02,1.02 0.03,1.54 0.01,0.5 0,1 0,1.54 1.01,0 1.98,0 3.01,0 0,-1.01 0,-2.03 0,-3.07 0.64,0 1.22,0 1.84,0 0,2.69 0,5.38 0,8.1 -0.58,0 -1.16,0 -1.8,0 -0.05,-0.55 -0.02,-1.11 -0.02,-1.68 -0.01,-0.55 0,-1.1 0,-1.67 -1.03,0 -1.99,0 -3.02,0 0,1.13 0,2.23 0,3.36 -0.63,0 -1.19,0 -1.76,0 -0.11,-0.35 -0.14,-7.51 -0.03,-8.12 z"
   id="path22" />
		<path
   class="st3"
   d="m 104.2,12.14 c -0.03,0.14 -0.05,0.26 -0.07,0.37 -0.09,0.36 -0.19,0.71 -0.28,1.03 -0.59,-0.09 -1.15,-0.19 -1.71,-0.24 -0.49,-0.04 -0.97,0.02 -1.44,0.21 -0.66,0.28 -1.11,0.75 -1.32,1.44 -0.18,0.58 -0.19,1.17 -0.05,1.75 0.3,1.25 1.26,1.88 2.59,1.87 0.23,0 0.46,-0.06 0.72,-0.1 0,-0.56 0,-1.09 0,-1.69 -0.39,0 -0.78,0 -1.2,0 0,-0.52 0,-0.96 0,-1.45 0.99,0 1.97,0 2.98,0 0,1.43 0,2.84 0,4.31 -0.47,0.11 -0.94,0.23 -1.41,0.32 -0.94,0.16 -1.88,0.16 -2.81,-0.06 -1.55,-0.37 -2.48,-1.35 -2.82,-2.9 -0.16,-0.7 -0.15,-1.41 0.03,-2.1 0.4,-1.62 1.47,-2.57 3.04,-2.98 1.08,-0.28 2.17,-0.23 3.25,0.04 0.17,0.04 0.32,0.11 0.5,0.18 z"
   id="path24" />
		<path
   class="st4"
   d="m 197.82,40.35 c 0.64,0 1.21,0 1.84,0 0,1.06 0,2.11 0,3.26 0.14,-0.1 0.21,-0.14 0.27,-0.19 1.2,-0.98 2.9,-0.63 3.61,0.74 0.61,1.17 0.52,3.24 -0.6,4.23 -0.75,0.66 -1.61,0.84 -2.54,0.52 -0.35,-0.12 -0.64,-0.4 -0.97,-0.62 -0.03,0.18 -0.07,0.39 -0.1,0.62 -0.5,0 -0.99,0 -1.5,0 -0.01,-2.85 -0.01,-5.68 -0.01,-8.56 z m 1.86,5.62 c 0,0 0,0 0,0 0,0.18 -0.01,0.37 0,0.55 0.04,0.54 0.41,0.96 0.92,1.06 0.47,0.09 0.99,-0.16 1.21,-0.63 0.31,-0.66 0.31,-1.34 0.01,-2 -0.22,-0.48 -0.73,-0.73 -1.2,-0.64 -0.52,0.1 -0.88,0.5 -0.93,1.05 -0.02,0.21 -0.01,0.41 -0.01,0.61 z"
   id="path26" />
		<path
   class="st4"
   d="m 176.29,28.55 c 0.51,0 1.01,0 1.52,0 0.04,0.23 0.08,0.44 0.12,0.7 0.12,-0.09 0.19,-0.15 0.27,-0.21 1.29,-1.12 3.13,-0.74 3.83,0.82 0.48,1.07 0.46,2.17 -0.03,3.23 -0.55,1.18 -1.85,1.78 -3.02,1.39 -0.27,-0.09 -0.51,-0.24 -0.82,-0.39 -0.08,0.9 0.02,1.82 -0.06,2.74 -0.61,0 -1.19,0 -1.82,0 0.01,-2.76 0.01,-5.5 0.01,-8.28 z m 1.86,2.97 c 0,0 -0.01,0 -0.01,0 0,0.18 -0.01,0.37 0,0.55 0.03,0.53 0.38,0.95 0.86,1.06 0.49,0.1 1,-0.11 1.24,-0.58 0.35,-0.69 0.36,-1.4 0.02,-2.09 -0.23,-0.47 -0.69,-0.69 -1.17,-0.6 -0.51,0.1 -0.87,0.47 -0.93,0.99 -0.03,0.23 -0.01,0.45 -0.01,0.67 z"
   id="path28" />
		<path
   class="st5"
   d="m 162.43,19.34 c -0.03,0.2 -0.05,0.4 -0.08,0.62 -0.51,0 -1.01,0 -1.51,0 0,-2.84 0,-5.66 0,-8.55 0.62,-0.02 1.2,-0.01 1.83,-0.01 0,1.07 0,2.12 0,3.25 0.14,-0.08 0.2,-0.11 0.26,-0.16 1.28,-1.05 3.04,-0.65 3.7,0.86 0.49,1.13 0.45,2.27 -0.12,3.37 -0.57,1.12 -1.85,1.66 -2.99,1.26 -0.38,-0.12 -0.71,-0.41 -1.09,-0.64 z m 0.27,-2.32 c 0,0.2 -0.02,0.41 0,0.6 0.06,0.54 0.46,0.93 0.97,1.01 0.49,0.07 0.97,-0.19 1.18,-0.67 0.27,-0.61 0.27,-1.25 0.03,-1.87 -0.21,-0.54 -0.72,-0.82 -1.24,-0.73 -0.49,0.08 -0.88,0.51 -0.94,1.05 -0.02,0.21 0,0.41 0,0.61 z"
   id="path30" />
		<path
   class="st5"
   d="m 101.5,40.35 c 0.64,0 1.2,0 1.82,0 0.05,2.84 -0.02,5.67 0.04,8.54 -0.53,0 -1.06,0 -1.61,0 -0.03,-0.24 -0.05,-0.46 -0.09,-0.74 -0.09,0.07 -0.13,0.11 -0.18,0.15 -1.09,1.13 -2.82,0.97 -3.69,-0.34 -0.73,-1.09 -0.72,-2.89 0.02,-3.98 0.83,-1.21 2.34,-1.48 3.53,-0.63 0.02,0.02 0.06,0.01 0.14,0.03 0.02,-0.99 0.02,-1.99 0.02,-3.03 z m 0.03,5.59 c -0.01,0 -0.03,0 -0.04,0 0,-0.22 0.03,-0.44 -0.01,-0.65 -0.08,-0.49 -0.35,-0.84 -0.84,-0.96 -0.45,-0.11 -0.83,0.03 -1.12,0.39 -0.48,0.58 -0.5,1.83 -0.04,2.42 0.27,0.34 0.63,0.51 1.06,0.44 0.45,-0.08 0.78,-0.33 0.88,-0.79 0.07,-0.28 0.08,-0.57 0.11,-0.85 z"
   id="path32" />
		<path
   class="st5"
   d="m 221.05,28.97 c 0,-1.06 0,-2.05 0,-3.07 0.61,0 1.19,0 1.82,0 0,2.85 0,5.67 0,8.53 -0.49,0 -1.01,0 -1.58,0 -0.02,-0.22 -0.05,-0.44 -0.08,-0.72 -0.08,0.05 -0.15,0.08 -0.19,0.14 -0.7,0.92 -2.53,1.12 -3.54,-0.17 -0.91,-1.16 -0.9,-3.2 0.03,-4.35 0.86,-1.07 2.25,-1.24 3.54,-0.36 z m -0.03,2.5 c 0,0 0.01,0 0,0 0.01,-0.22 0.03,-0.44 0,-0.65 -0.06,-0.5 -0.42,-0.89 -0.89,-0.98 -0.45,-0.09 -0.93,0.1 -1.16,0.52 -0.39,0.71 -0.41,1.45 -0.04,2.17 0.23,0.45 0.72,0.66 1.19,0.56 0.49,-0.1 0.83,-0.45 0.89,-0.97 0.03,-0.22 0.01,-0.44 0.01,-0.65 z"
   id="path34" />
		<path
   class="st5"
   d="m 221.01,48.89 c -0.09,0.01 -0.15,0.03 -0.22,0.03 -0.5,0 -1.01,0 -1.56,0 -0.01,-0.16 -0.03,-0.31 -0.04,-0.45 0,-0.88 0,-1.75 0,-2.63 0,-0.23 -0.02,-0.47 -0.07,-0.7 -0.11,-0.53 -0.43,-0.79 -0.9,-0.77 -0.46,0.02 -0.85,0.38 -0.93,0.85 -0.02,0.15 -0.02,0.3 -0.02,0.45 0,0.98 0,1.95 0,2.93 0,0.08 -0.01,0.16 -0.02,0.28 -0.6,0 -1.18,0 -1.82,0 0,-1.94 0,-3.88 0,-5.86 0.49,0 1,0 1.52,0 0.04,0.23 0.08,0.44 0.13,0.71 0.12,-0.11 0.19,-0.18 0.27,-0.25 0.65,-0.6 1.41,-0.77 2.25,-0.51 0.79,0.24 1.19,0.84 1.34,1.62 0.04,0.21 0.08,0.43 0.08,0.65 0.01,1.13 0.01,2.26 0,3.38 0.02,0.1 0,0.18 -0.01,0.27 z"
   id="path36" />
		<path
   class="st3"
   d="m 269.85,34.58 c -1.96,0 -3.25,-1.43 -3.04,-3.37 0.24,-2.31 2.63,-3.57 4.69,-2.45 1.06,0.57 1.47,1.54 1.48,2.68 0.02,1.87 -1.25,3.13 -3.13,3.14 z m 1.28,-3.11 c -0.1,-0.37 -0.16,-0.74 -0.29,-1.08 -0.16,-0.4 -0.47,-0.65 -0.93,-0.66 -0.45,-0.01 -0.77,0.23 -0.96,0.62 -0.36,0.76 -0.36,1.53 0,2.29 0.19,0.4 0.51,0.62 0.96,0.62 0.46,-0.01 0.77,-0.26 0.93,-0.66 0.14,-0.37 0.19,-0.76 0.29,-1.13 z"
   id="path38" />
		<path
   class="st5"
   d="m 123.44,48.9 c -0.64,0 -1.23,0 -1.85,0 0,-1.96 0,-3.89 0,-5.88 0.49,-0.04 1,-0.02 1.52,-0.01 0.05,0.25 0.09,0.48 0.15,0.76 0.51,-0.61 1.11,-0.9 1.84,-0.9 0.92,0 1.62,0.49 1.91,1.37 0.1,0.3 0.17,0.62 0.17,0.94 0.02,1.16 0.01,2.32 0.01,3.49 0,0.06 -0.02,0.13 -0.03,0.23 -0.59,0 -1.17,0 -1.78,0 -0.01,-0.14 -0.03,-0.27 -0.03,-0.39 0,-0.89 0,-1.78 0,-2.68 0,-0.22 -0.02,-0.44 -0.06,-0.65 -0.11,-0.54 -0.41,-0.8 -0.89,-0.79 -0.45,0.01 -0.87,0.37 -0.94,0.83 -0.03,0.2 -0.02,0.4 -0.02,0.6 0,1.01 0,2.02 0,3.08 z"
   id="path40" />
		<path
   class="st5"
   d="m 149.41,48.91 c -0.51,0 -1,0 -1.52,0 -0.04,-0.23 -0.07,-0.45 -0.11,-0.74 -0.12,0.1 -0.19,0.16 -0.25,0.22 -0.61,0.64 -1.37,0.75 -2.19,0.59 -0.79,-0.16 -1.32,-0.83 -1.45,-1.75 -0.04,-0.3 -0.06,-0.6 -0.06,-0.91 -0.01,-0.93 0,-1.85 0,-2.78 0,-0.16 0,-0.33 0,-0.52 0.63,0 1.21,0 1.83,0 0.01,0.14 0.03,0.27 0.03,0.4 0,0.91 0,1.82 0,2.73 0,0.23 0.02,0.47 0.08,0.7 0.12,0.47 0.38,0.68 0.81,0.69 0.44,0.01 0.82,-0.25 0.94,-0.69 0.06,-0.21 0.07,-0.43 0.07,-0.65 0.01,-0.94 0,-1.88 0,-2.83 0,-0.1 0.01,-0.2 0.02,-0.35 0.59,-0.06 1.17,-0.02 1.79,-0.02 0.01,1.98 0.01,3.92 0.01,5.91 z"
   id="path42" />
		<path
   class="st5"
   d="m 119.9,43.04 c 0,1.97 0,3.9 0,5.86 -0.52,0 -1.01,0 -1.55,0 -0.03,-0.23 -0.06,-0.46 -0.1,-0.73 -0.07,0.05 -0.13,0.08 -0.17,0.12 -0.57,0.67 -1.32,0.84 -2.15,0.72 -0.84,-0.11 -1.45,-0.81 -1.58,-1.79 -0.04,-0.3 -0.06,-0.6 -0.06,-0.91 -0.01,-1.08 0,-2.15 0,-3.22 0.37,-0.13 1.26,-0.15 1.84,-0.04 0.01,0.12 0.03,0.25 0.03,0.38 0,0.91 -0.01,1.82 0.01,2.73 0,0.25 0.04,0.5 0.09,0.75 0.09,0.36 0.32,0.59 0.7,0.62 0.38,0.04 0.73,-0.08 0.9,-0.42 0.12,-0.24 0.19,-0.54 0.2,-0.82 0.02,-0.94 0.01,-1.88 0.01,-2.83 0,-0.13 0.01,-0.27 0.02,-0.43 0.6,0.01 1.17,0.01 1.81,0.01 z"
   id="path44" />
		<path
   class="st3"
   d="m 129.3,13.93 c 1.73,0.01 2.93,1.18 2.96,2.9 0.01,0.29 0,0.58 -0.05,0.86 -0.38,2 -2.18,2.64 -3.69,2.37 -1.96,-0.35 -2.61,-2.01 -2.39,-3.52 0.24,-1.69 1.4,-2.62 3.17,-2.61 z m 1.13,3.06 c -0.11,-0.4 -0.18,-0.8 -0.33,-1.16 -0.15,-0.36 -0.46,-0.57 -0.88,-0.58 -0.43,-0.01 -0.75,0.19 -0.94,0.57 -0.39,0.79 -0.39,1.59 -0.01,2.38 0.18,0.37 0.51,0.58 0.93,0.58 0.43,0 0.75,-0.23 0.9,-0.62 0.16,-0.36 0.22,-0.76 0.33,-1.17 z"
   id="path46" />
		<path
   class="st3"
   d="m 255.63,28.4 c 1.75,-0.06 3.39,1.27 2.97,3.74 -0.25,1.48 -1.39,2.4 -2.9,2.44 -0.86,0.02 -1.64,-0.17 -2.28,-0.76 -0.84,-0.78 -1.05,-1.78 -0.89,-2.86 0.24,-1.63 1.4,-2.56 3.1,-2.56 z m 1.18,3.07 c -0.09,-0.37 -0.15,-0.75 -0.29,-1.11 -0.15,-0.38 -0.45,-0.62 -0.89,-0.64 -0.45,-0.01 -0.78,0.2 -0.97,0.6 -0.36,0.75 -0.37,1.53 -0.02,2.29 0.19,0.41 0.52,0.66 1,0.64 0.46,-0.02 0.76,-0.29 0.91,-0.69 0.12,-0.34 0.17,-0.71 0.26,-1.09 z"
   id="path48" />
		<path
   class="st3"
   d="m 135.4,14.82 c 0.03,-0.06 0.05,-0.14 0.09,-0.18 0.69,-0.72 1.54,-0.89 2.45,-0.56 0.89,0.32 1.22,1.08 1.28,1.95 0.05,0.74 0.02,1.48 0.02,2.22 0,0.55 0,1.11 0,1.73 -0.6,0.03 -1.18,0.01 -1.8,0.01 -0.01,-0.18 -0.03,-0.32 -0.04,-0.47 0,-0.91 0,-1.82 0,-2.73 0,-0.2 -0.01,-0.41 -0.06,-0.6 -0.13,-0.55 -0.42,-0.78 -0.91,-0.76 -0.46,0.02 -0.85,0.38 -0.93,0.85 -0.02,0.15 -0.01,0.3 -0.01,0.45 0,0.98 0,1.95 0,2.93 0,0.08 -0.01,0.16 -0.02,0.28 -0.59,0 -1.17,0 -1.81,0 0,-1.95 0,-3.89 0,-5.87 0.47,0 0.96,0 1.5,0 0.04,0.21 0.09,0.43 0.14,0.65 0.03,0.05 0.07,0.07 0.1,0.1 z"
   id="path50" />
		<path
   class="st5"
   d="m 159.36,43.03 c 0.61,0 1.19,0 1.81,0 0,0.47 0,0.9 0,1.34 0,0.61 -0.01,1.21 0,1.82 0.01,0.23 0.03,0.47 0.1,0.7 0.11,0.42 0.36,0.62 0.74,0.65 0.41,0.03 0.74,-0.12 0.92,-0.49 0.1,-0.21 0.15,-0.45 0.15,-0.68 0.02,-0.93 0.01,-1.85 0.01,-2.78 0,-0.17 0,-0.33 0,-0.56 0.6,-0.05 1.18,-0.02 1.82,-0.02 0,1.97 0,3.91 0,5.89 -0.47,0 -0.97,0 -1.52,0 -0.03,-0.21 -0.07,-0.44 -0.11,-0.72 -0.1,0.09 -0.18,0.15 -0.25,0.23 -0.65,0.65 -1.44,0.78 -2.29,0.55 -0.91,-0.25 -1.23,-0.98 -1.36,-1.82 -0.03,-0.22 -0.03,-0.44 -0.03,-0.66 0,-0.99 0,-1.99 0,-2.98 -0.01,-0.16 0,-0.3 0.01,-0.47 z"
   id="path52" />
		<path
   class="st3"
   d="m 178.46,14.07 c 0.52,0 1.01,0 1.53,0 0.04,0.24 0.08,0.46 0.12,0.74 0.09,-0.09 0.16,-0.16 0.23,-0.22 0.68,-0.66 1.5,-0.83 2.38,-0.53 0.87,0.3 1.23,1.02 1.3,1.88 0.05,0.62 0.03,1.24 0.03,1.87 0,0.71 0,1.41 0,2.15 -0.62,0 -1.2,0 -1.81,0 -0.01,-0.14 -0.03,-0.27 -0.03,-0.39 0,-0.93 0,-1.85 0,-2.78 0,-0.2 -0.01,-0.41 -0.05,-0.6 -0.1,-0.45 -0.36,-0.69 -0.72,-0.74 -0.44,-0.05 -0.85,0.15 -1.02,0.58 -0.09,0.21 -0.12,0.46 -0.12,0.69 -0.01,0.91 -0.01,1.82 -0.01,2.73 0,0.16 0,0.33 0,0.52 -0.63,0 -1.2,0 -1.83,0 0,-1.98 0,-3.92 0,-5.9 z"
   id="path54" />
		<path
   class="st5"
   d="m 151.44,34.45 c -0.62,0 -1.17,0 -1.8,0 0,-1.95 0,-3.9 0,-5.91 0.46,-0.03 0.97,-0.01 1.5,-0.01 0.05,0.26 0.1,0.48 0.15,0.75 0.07,-0.07 0.12,-0.11 0.17,-0.15 0.69,-0.73 1.53,-0.91 2.45,-0.58 0.89,0.32 1.23,1.07 1.29,1.94 0.05,0.75 0.02,1.52 0.03,2.27 0,0.54 0,1.08 0,1.67 -0.6,0.04 -1.18,0.01 -1.8,0.02 -0.01,-0.18 -0.03,-0.32 -0.03,-0.47 0,-0.91 0,-1.82 -0.01,-2.73 0,-0.23 -0.04,-0.47 -0.09,-0.7 -0.08,-0.34 -0.29,-0.57 -0.64,-0.64 -0.38,-0.07 -0.7,0.05 -0.94,0.35 -0.19,0.23 -0.25,0.5 -0.25,0.8 0.01,0.96 0,1.92 0,2.88 0,0.17 -0.02,0.31 -0.03,0.51 z"
   id="path56" />
		<path
   class="st3"
   d="m 125.27,30.49 c -0.03,-0.51 -0.21,-0.72 -0.66,-0.78 -0.51,-0.07 -1.01,-0.01 -1.49,0.17 -0.15,0.06 -0.31,0.12 -0.52,0.21 -0.11,-0.4 -0.22,-0.77 -0.32,-1.15 0.46,-0.3 0.93,-0.4 1.41,-0.48 0.6,-0.1 1.21,-0.11 1.8,0.03 0.83,0.2 1.35,0.73 1.56,1.55 0.06,0.23 0.1,0.46 0.1,0.7 0.01,1.22 0,2.45 0,3.69 -0.49,0 -1.01,0 -1.54,0 -0.05,-0.16 -0.1,-0.31 -0.17,-0.5 -0.13,0.09 -0.23,0.16 -0.34,0.24 -0.59,0.41 -1.25,0.5 -1.93,0.33 -0.76,-0.19 -1.21,-0.72 -1.32,-1.49 -0.11,-0.78 0.16,-1.43 0.81,-1.89 0.58,-0.41 1.26,-0.54 1.95,-0.61 0.23,0 0.43,0 0.66,-0.02 z m 0.1,1.17 c -0.51,0.01 -0.94,0.04 -1.33,0.28 -0.29,0.17 -0.41,0.44 -0.36,0.77 0.04,0.27 0.2,0.46 0.47,0.53 0.56,0.15 1.16,-0.25 1.21,-0.83 0.03,-0.23 0.01,-0.46 0.01,-0.75 z"
   id="path58" />
		<path
   class="st3"
   d="m 188.66,34.43 c -0.48,0 -1,0 -1.55,0 -0.04,-0.14 -0.09,-0.29 -0.16,-0.49 -0.13,0.09 -0.23,0.15 -0.33,0.23 -0.57,0.41 -1.21,0.5 -1.88,0.35 -0.74,-0.17 -1.21,-0.64 -1.36,-1.39 -0.15,-0.77 0.07,-1.43 0.7,-1.93 0.59,-0.46 1.3,-0.6 2.03,-0.68 0.2,-0.02 0.4,-0.02 0.6,-0.03 0.07,-0.46 -0.11,-0.71 -0.6,-0.78 -0.49,-0.07 -0.97,-0.02 -1.44,0.15 -0.17,0.06 -0.34,0.14 -0.57,0.23 -0.11,-0.38 -0.22,-0.76 -0.33,-1.14 0.39,-0.27 0.79,-0.37 1.2,-0.45 0.67,-0.14 1.33,-0.16 2,0 0.87,0.21 1.4,0.76 1.59,1.64 0.06,0.28 0.09,0.57 0.09,0.85 0.02,1.13 0.01,2.27 0.01,3.44 z m -1.8,-2.79 c -0.51,0.04 -0.95,0.06 -1.34,0.3 -0.32,0.2 -0.44,0.55 -0.32,0.88 0.11,0.32 0.37,0.47 0.76,0.44 0.48,-0.03 0.86,-0.39 0.9,-0.87 0.02,-0.22 0,-0.45 0,-0.75 z"
   id="path60" />
		<path
   class="st3"
   d="m 199.94,34.44 c -0.51,0 -1.02,0 -1.53,0 -0.06,-0.16 -0.11,-0.32 -0.18,-0.5 -0.12,0.08 -0.22,0.16 -0.33,0.23 -0.57,0.4 -1.21,0.5 -1.88,0.34 -0.74,-0.17 -1.22,-0.66 -1.35,-1.4 -0.14,-0.77 0.08,-1.44 0.72,-1.93 0.6,-0.46 1.31,-0.59 2.04,-0.66 0.2,-0.02 0.4,-0.02 0.6,-0.03 0.04,-0.46 -0.15,-0.72 -0.62,-0.78 -0.51,-0.07 -1.01,-0.02 -1.49,0.17 -0.16,0.06 -0.31,0.13 -0.52,0.21 -0.11,-0.39 -0.22,-0.76 -0.33,-1.15 0.45,-0.29 0.92,-0.4 1.4,-0.48 0.59,-0.1 1.17,-0.12 1.75,0.02 0.99,0.23 1.58,0.88 1.69,1.89 0.05,0.45 0.04,0.91 0.05,1.36 -0.01,0.89 -0.02,1.78 -0.02,2.71 z m -1.79,-2.8 c -0.21,0.02 -0.38,0.01 -0.54,0.06 -0.29,0.08 -0.59,0.14 -0.84,0.29 -0.29,0.17 -0.38,0.53 -0.28,0.84 0.09,0.29 0.35,0.45 0.71,0.44 0.48,-0.01 0.87,-0.33 0.94,-0.8 0.04,-0.25 0.01,-0.5 0.01,-0.83 z"
   id="path62" />
		<path
   class="st3"
   d="m 190.73,15.61 c -0.12,-0.4 -0.22,-0.75 -0.33,-1.12 0.46,-0.34 0.99,-0.46 1.51,-0.51 0.55,-0.05 1.12,-0.05 1.65,0.05 1.01,0.2 1.6,0.9 1.68,1.94 0.05,0.6 0.03,1.21 0.04,1.81 0.01,0.37 -0.01,0.74 0,1.11 0.01,0.35 0.03,0.7 0.05,1.07 -0.55,0 -1.06,0 -1.61,0 -0.05,-0.15 -0.09,-0.31 -0.15,-0.51 -0.1,0.07 -0.19,0.13 -0.27,0.19 -0.57,0.44 -1.22,0.56 -1.91,0.41 -0.76,-0.16 -1.25,-0.65 -1.4,-1.42 -0.17,-0.83 0.18,-1.6 0.89,-2.04 0.54,-0.34 1.15,-0.47 1.77,-0.53 0.23,-0.02 0.47,-0.02 0.7,-0.04 0.04,-0.45 -0.12,-0.69 -0.57,-0.78 -0.52,-0.1 -1.04,-0.03 -1.54,0.15 -0.13,0.07 -0.29,0.14 -0.51,0.22 z m 2.77,1.6 c -0.59,-0.03 -1.06,0.07 -1.34,0.25 -0.32,0.21 -0.45,0.58 -0.32,0.93 0.11,0.29 0.41,0.45 0.79,0.4 0.45,-0.05 0.81,-0.4 0.86,-0.86 0.03,-0.22 0.01,-0.46 0.01,-0.72 z"
   id="path64" />
		<path
   class="st3"
   d="m 166.43,34.43 c -0.48,0 -0.99,0 -1.54,0 -0.05,-0.15 -0.09,-0.3 -0.15,-0.5 -0.11,0.08 -0.2,0.14 -0.29,0.2 -0.58,0.43 -1.24,0.55 -1.92,0.39 -1.64,-0.39 -1.71,-2.25 -0.93,-3.08 0.32,-0.34 0.71,-0.57 1.15,-0.69 0.42,-0.11 0.86,-0.16 1.29,-0.23 0.16,-0.03 0.33,-0.03 0.49,-0.04 -0.02,-0.49 -0.18,-0.7 -0.63,-0.77 -0.51,-0.07 -1.01,-0.02 -1.49,0.17 -0.16,0.06 -0.31,0.12 -0.52,0.2 -0.11,-0.37 -0.23,-0.73 -0.35,-1.13 0.13,-0.08 0.24,-0.15 0.36,-0.2 0.81,-0.34 1.66,-0.44 2.52,-0.33 1.23,0.16 1.94,0.95 2,2.21 0.03,0.59 0.01,1.18 0.01,1.77 0,0.66 0,1.31 0,2.03 z m -1.81,-2.73 c -0.54,-0.05 -1.05,0.05 -1.33,0.25 -0.26,0.18 -0.35,0.43 -0.32,0.74 0.03,0.26 0.16,0.44 0.4,0.53 0.5,0.2 1.16,-0.16 1.25,-0.69 0.03,-0.27 0,-0.55 0,-0.83 z"
   id="path66" />
		<path
   class="st3"
   d="m 131.92,44.96 c 0.01,-0.5 -0.2,-0.73 -0.71,-0.79 -0.53,-0.06 -1.04,0.03 -1.53,0.22 -0.12,0.05 -0.24,0.1 -0.41,0.17 -0.11,-0.39 -0.22,-0.76 -0.33,-1.14 0.4,-0.29 0.86,-0.39 1.31,-0.48 0.62,-0.12 1.24,-0.14 1.85,0 0.91,0.21 1.5,0.83 1.66,1.75 0.04,0.23 0.06,0.47 0.07,0.7 0.01,1.14 0,2.29 0,3.5 -0.49,0.03 -1.01,0.01 -1.54,0.01 -0.06,-0.18 -0.11,-0.33 -0.18,-0.54 -0.52,0.49 -1.1,0.69 -1.77,0.66 -0.83,-0.03 -1.48,-0.48 -1.73,-1.23 -0.26,-0.78 -0.01,-1.63 0.64,-2.13 0.63,-0.48 1.37,-0.62 2.13,-0.69 0.17,0 0.35,0 0.54,-0.01 z m 0.12,1.18 c -0.52,0.01 -0.97,0.03 -1.36,0.29 -0.3,0.2 -0.42,0.57 -0.3,0.89 0.11,0.29 0.36,0.44 0.73,0.42 0.5,-0.02 0.89,-0.38 0.93,-0.89 0.01,-0.22 0,-0.43 0,-0.71 z"
   id="path68" />
		<path
   class="st3"
   d="m 180.97,44.56 c -0.11,-0.41 -0.21,-0.76 -0.33,-1.16 0.18,-0.09 0.34,-0.18 0.5,-0.24 0.71,-0.26 1.44,-0.35 2.19,-0.29 1.36,0.11 2.13,0.91 2.19,2.3 0.03,0.64 0.01,1.28 0.01,1.92 0,0.59 0,1.17 0,1.79 -0.48,0 -1.01,0 -1.56,0 -0.05,-0.16 -0.1,-0.31 -0.16,-0.51 -0.54,0.49 -1.14,0.7 -1.83,0.66 -0.76,-0.05 -1.33,-0.38 -1.62,-1.09 -0.31,-0.73 -0.21,-1.44 0.33,-2.02 0.25,-0.27 0.6,-0.5 0.95,-0.63 0.47,-0.17 0.98,-0.22 1.47,-0.32 0.16,-0.03 0.33,-0.02 0.49,-0.03 -0.01,-0.51 -0.19,-0.72 -0.68,-0.78 -0.47,-0.06 -0.94,-0.01 -1.39,0.16 -0.15,0.08 -0.32,0.15 -0.56,0.24 z m 2.75,1.61 c -0.56,-0.03 -1.01,0.05 -1.3,0.23 -0.27,0.17 -0.4,0.41 -0.38,0.72 0.02,0.24 0.13,0.45 0.37,0.56 0.5,0.23 1.21,-0.12 1.3,-0.67 0.04,-0.28 0.01,-0.56 0.01,-0.84 z"
   id="path70" />
		<path
   class="st3"
   d="m 176.24,48.9 c -0.04,0.01 -0.14,0.03 -0.23,0.03 -0.43,0 -0.87,0 -1.32,0 -0.04,-0.18 -0.08,-0.33 -0.12,-0.51 -0.08,0.05 -0.16,0.07 -0.21,0.12 -0.46,0.39 -1,0.53 -1.6,0.51 -0.8,-0.03 -1.42,-0.43 -1.7,-1.13 -0.28,-0.72 -0.1,-1.56 0.45,-2.1 0.32,-0.31 0.71,-0.52 1.14,-0.61 0.56,-0.12 1.12,-0.19 1.69,-0.29 -0.01,-0.46 -0.21,-0.68 -0.71,-0.74 -0.51,-0.06 -1.01,0.01 -1.49,0.2 -0.14,0.05 -0.27,0.11 -0.46,0.19 -0.11,-0.39 -0.22,-0.75 -0.34,-1.14 0.48,-0.33 1,-0.45 1.53,-0.51 0.47,-0.05 0.95,-0.07 1.41,0 1.24,0.19 1.88,0.95 1.94,2.21 0.03,0.67 0.01,1.35 0.01,2.02 0.01,0.57 0.01,1.14 0.01,1.75 z m -1.81,-2.86 c -0.49,0.14 -0.9,0.22 -1.28,0.36 -0.29,0.11 -0.39,0.39 -0.38,0.71 0.01,0.25 0.12,0.45 0.36,0.56 0.5,0.24 1.21,-0.12 1.29,-0.67 0.04,-0.26 0.01,-0.55 0.01,-0.96 z"
   id="path72" />
		<path
   class="st3"
   d="m 230.35,44.94 c -0.01,-0.48 -0.19,-0.7 -0.68,-0.76 -0.49,-0.06 -0.97,0 -1.44,0.18 -0.16,0.06 -0.31,0.12 -0.52,0.2 -0.11,-0.38 -0.22,-0.74 -0.33,-1.11 0.28,-0.25 0.61,-0.35 0.94,-0.4 0.56,-0.09 1.14,-0.18 1.7,-0.16 1.38,0.05 2.19,0.91 2.24,2.3 0.02,0.61 0.01,1.21 0.01,1.82 0,0.62 0,1.24 0,1.9 -0.47,0 -1,0 -1.55,0 -0.05,-0.15 -0.09,-0.31 -0.16,-0.5 -0.53,0.47 -1.11,0.69 -1.78,0.66 -0.8,-0.04 -1.43,-0.44 -1.7,-1.13 -0.28,-0.73 -0.1,-1.56 0.45,-2.1 0.44,-0.42 1,-0.62 1.58,-0.73 0.4,-0.09 0.82,-0.12 1.24,-0.17 z m 0.1,1.17 c -0.33,0.04 -0.58,0.05 -0.82,0.11 -0.21,0.05 -0.42,0.14 -0.59,0.27 -0.41,0.32 -0.35,0.97 0.09,1.18 0.52,0.25 1.24,-0.12 1.31,-0.7 0.03,-0.26 0.01,-0.53 0.01,-0.86 z"
   id="path74" />
		<path
   class="st4"
   d="m 110.26,46.57 c -1.26,0 -2.5,0 -3.77,0 0.05,0.54 0.36,0.79 0.78,0.95 0.62,0.23 1.26,0.15 1.9,0.05 0.18,-0.03 0.36,-0.08 0.59,-0.14 0.08,0.4 0.16,0.79 0.26,1.24 -0.28,0.09 -0.54,0.21 -0.81,0.24 -0.62,0.06 -1.24,0.14 -1.86,0.1 -1.65,-0.11 -2.7,-1.34 -2.63,-3.04 0.01,-0.33 0.06,-0.68 0.16,-0.99 0.6,-1.99 2.42,-2.35 3.71,-1.98 0.5,0.15 0.91,0.43 1.21,0.87 0.52,0.81 0.6,1.71 0.46,2.7 z m -3.77,-1.31 c 0.71,0 1.4,0 2.08,0 0,-0.68 -0.32,-1.09 -0.89,-1.15 -0.6,-0.07 -1.06,0.36 -1.19,1.15 z"
   id="path76" />
		<path
   class="st3"
   d="m 148.58,19.97 c -0.53,0 -1.04,0 -1.58,0 -0.05,-0.16 -0.09,-0.3 -0.14,-0.49 -0.11,0.08 -0.22,0.14 -0.32,0.21 -0.55,0.4 -1.17,0.5 -1.82,0.39 -0.75,-0.13 -1.32,-0.69 -1.43,-1.39 -0.14,-0.83 0.08,-1.54 0.8,-2.03 0.57,-0.39 1.23,-0.53 1.91,-0.59 0.22,-0.02 0.43,-0.02 0.65,-0.03 0.03,-0.46 -0.14,-0.7 -0.58,-0.78 -0.52,-0.09 -1.04,-0.03 -1.54,0.16 -0.16,0.06 -0.31,0.12 -0.52,0.2 -0.11,-0.38 -0.22,-0.74 -0.34,-1.12 0.34,-0.26 0.71,-0.38 1.08,-0.43 0.55,-0.08 1.11,-0.13 1.65,-0.11 1.25,0.06 2.04,0.88 2.12,2.13 0.03,0.42 0.01,0.84 0.01,1.26 0.02,0.85 0.04,1.71 0.05,2.62 z m -1.8,-2.76 c -0.62,-0.03 -1.12,0.08 -1.39,0.28 -0.28,0.21 -0.39,0.58 -0.28,0.9 0.1,0.28 0.38,0.43 0.74,0.41 0.44,-0.03 0.81,-0.33 0.88,-0.76 0.05,-0.26 0.03,-0.53 0.05,-0.83 z"
   id="path78" />
		<path
   class="st4"
   d="m 214.01,46.58 c -1.25,0 -2.47,0 -3.71,0 -0.02,0.44 0.22,0.69 0.53,0.82 0.3,0.13 0.64,0.23 0.97,0.23 0.57,0 1.13,-0.09 1.74,-0.14 0.07,0.35 0.15,0.74 0.24,1.2 -0.38,0.1 -0.73,0.21 -1.09,0.27 -0.7,0.12 -1.41,0.14 -2.11,-0.04 -1.17,-0.29 -1.86,-1.05 -2.06,-2.23 -0.12,-0.72 -0.05,-1.44 0.25,-2.13 0.77,-1.74 2.67,-1.97 3.83,-1.47 0.83,0.36 1.24,1.06 1.42,1.91 0.1,0.5 0.12,1 -0.01,1.58 z m -1.69,-1.32 c 0.05,-0.66 -0.26,-1.08 -0.85,-1.15 -0.62,-0.08 -1.1,0.38 -1.2,1.15 0.69,0 1.37,0 2.05,0 z"
   id="path80" />
		<path
   class="st3"
   d="m 111.27,32.1 c -1.21,0 -2.43,0 -3.67,0 -0.03,0.39 0.16,0.64 0.43,0.77 0.29,0.15 0.63,0.28 0.95,0.28 0.6,0.01 1.2,-0.07 1.87,-0.12 0.06,0.33 0.14,0.72 0.23,1.17 -0.31,0.09 -0.59,0.21 -0.88,0.25 -0.5,0.06 -1.01,0.13 -1.51,0.11 -2.13,-0.08 -3.09,-1.58 -2.88,-3.44 0.04,-0.36 0.15,-0.73 0.3,-1.06 0.64,-1.41 2.32,-2.05 3.75,-1.45 0.15,0.06 0.3,0.15 0.44,0.24 0.89,0.61 1.36,2.17 0.97,3.25 z m -1.6,-1.31 c -0.08,-0.83 -0.51,-1.24 -1.14,-1.15 -0.57,0.08 -0.97,0.6 -0.89,1.18 0.58,0 1.17,0 1.76,0 0.07,0 0.16,-0.02 0.27,-0.03 z"
   id="path82" />
		<path
   class="st3"
   d="m 239.7,30.44 c -0.01,-0.45 -0.2,-0.67 -0.67,-0.73 -0.51,-0.07 -1.01,-0.01 -1.49,0.18 -0.15,0.06 -0.31,0.12 -0.5,0.2 -0.11,-0.38 -0.22,-0.75 -0.34,-1.13 0.48,-0.35 1.03,-0.46 1.58,-0.52 0.5,-0.05 1.01,-0.05 1.5,0.04 1.09,0.2 1.7,0.91 1.78,2.02 0.04,0.55 0.02,1.11 0.02,1.67 0,0.74 0,1.48 0,2.25 -0.46,0 -0.97,0 -1.53,0 -0.04,-0.13 -0.09,-0.28 -0.15,-0.47 -0.1,0.06 -0.2,0.12 -0.28,0.18 -0.58,0.43 -1.24,0.55 -1.92,0.39 -1.69,-0.4 -1.69,-2.3 -0.94,-3.08 0.35,-0.36 0.77,-0.61 1.25,-0.72 0.56,-0.12 1.12,-0.18 1.69,-0.28 z m 0.09,1.22 c -0.52,0.01 -0.96,0.05 -1.34,0.29 -0.31,0.19 -0.42,0.55 -0.32,0.88 0.1,0.3 0.38,0.46 0.76,0.44 0.46,-0.03 0.83,-0.36 0.88,-0.82 0.05,-0.25 0.02,-0.5 0.02,-0.79 z"
   id="path84" />
		<path
   class="st3"
   d="m 177.07,17.62 c -1.27,0 -2.49,0 -3.73,0 -0.05,0.38 0.15,0.58 0.38,0.75 0.3,0.23 0.66,0.34 1.04,0.32 0.58,-0.03 1.16,-0.09 1.83,-0.14 0.06,0.35 0.14,0.75 0.21,1.18 -1.24,0.4 -2.44,0.56 -3.64,0.08 -1.11,-0.45 -1.59,-1.37 -1.64,-2.51 -0.02,-0.46 0.05,-0.95 0.19,-1.39 0.54,-1.64 2,-2.2 3.44,-1.92 0.8,0.16 1.36,0.64 1.69,1.38 0.3,0.7 0.37,1.43 0.23,2.25 z m -3.74,-1.29 c 0.68,0 1.37,0 2.05,0 0,-0.73 -0.38,-1.16 -0.98,-1.17 -0.61,-0.01 -1.06,0.47 -1.07,1.17 z"
   id="path86" />
		<path
   class="st3"
   d="m 209.46,32.1 c -1.21,0 -2.43,0 -3.67,0 -0.04,0.39 0.16,0.63 0.43,0.77 0.29,0.15 0.63,0.28 0.95,0.28 0.6,0.01 1.2,-0.07 1.87,-0.12 0.06,0.34 0.13,0.74 0.21,1.18 -1.23,0.4 -2.42,0.55 -3.6,0.09 -1.12,-0.43 -1.59,-1.34 -1.69,-2.48 -0.04,-0.51 0.04,-1.01 0.21,-1.49 0.55,-1.56 2.22,-2.34 3.78,-1.77 0.17,0.06 0.34,0.15 0.49,0.25 0.92,0.61 1.42,2.18 1.02,3.29 z m -1.62,-1.31 c 0.01,-0.71 -0.37,-1.16 -0.97,-1.17 -0.6,-0.01 -1.05,0.47 -1.07,1.17 0.67,0 1.35,0 2.04,0 z"
   id="path88" />
		<path
   class="st3"
   d="m 111.39,17.63 c -1.3,0 -2.54,0 -3.79,0 0.06,0.55 0.38,0.8 0.79,0.95 0.57,0.21 1.16,0.15 1.75,0.07 0.23,-0.03 0.46,-0.09 0.73,-0.15 0.08,0.41 0.16,0.8 0.24,1.19 -0.41,0.25 -0.84,0.29 -1.27,0.36 -0.6,0.09 -1.21,0.08 -1.81,-0.04 -1.23,-0.26 -2.03,-1.14 -2.18,-2.39 -0.1,-0.88 0.03,-1.71 0.53,-2.46 0.77,-1.15 2.44,-1.58 3.68,-0.94 0.82,0.42 1.19,1.17 1.32,2.03 0.07,0.42 0.01,0.86 0.01,1.38 z m -1.73,-1.3 c 0.05,-0.67 -0.3,-1.12 -0.89,-1.17 -0.64,-0.05 -1.13,0.44 -1.15,1.17 0.68,0 1.36,0 2.04,0 z"
   id="path90" />
		<path
   class="st3"
   d="m 229.82,32.09 c -1.27,0 -2.5,0 -3.73,0 -0.07,0.4 0.14,0.64 0.4,0.78 0.29,0.15 0.63,0.28 0.95,0.29 0.6,0.01 1.2,-0.07 1.86,-0.12 0.07,0.32 0.15,0.71 0.23,1.12 -0.1,0.05 -0.18,0.11 -0.27,0.14 -0.95,0.3 -1.91,0.38 -2.89,0.16 -1.24,-0.28 -2.04,-1.24 -2.12,-2.51 -0.05,-0.75 0.04,-1.48 0.43,-2.14 0.74,-1.27 2.42,-1.79 3.74,-1.15 0.85,0.41 1.25,1.16 1.37,2.05 0.08,0.42 0.03,0.86 0.03,1.38 z m -1.74,-1.3 c 0.05,-0.67 -0.3,-1.12 -0.9,-1.16 -0.6,-0.04 -1.07,0.42 -1.15,1.16 0.69,0 1.37,0 2.05,0 z"
   id="path92" />
		<path
   class="st3"
   d="m 147.75,33.03 c 0.07,0.37 0.14,0.76 0.22,1.17 -1.21,0.41 -2.39,0.54 -3.56,0.12 -1.08,-0.39 -1.61,-1.24 -1.71,-2.35 -0.04,-0.46 0,-0.95 0.11,-1.4 0.39,-1.52 1.76,-2.4 3.3,-2.16 0.94,0.15 1.61,0.66 1.94,1.56 0.25,0.67 0.34,1.36 0.16,2.11 -0.64,0 -1.26,0 -1.88,0 -0.6,0 -1.21,0 -1.82,0 -0.05,0.38 0.14,0.58 0.37,0.75 0.29,0.21 0.63,0.33 0.99,0.31 0.61,0 1.2,-0.06 1.88,-0.11 z m -3.29,-2.24 c 0.72,0 1.4,0 2.08,0 -0.01,-0.72 -0.35,-1.13 -0.92,-1.17 -0.61,-0.03 -1.06,0.41 -1.16,1.17 z"
   id="path94" />
		<path
   class="st4"
   d="m 116.62,14.27 c -0.11,0.44 -0.2,0.83 -0.3,1.22 -0.38,-0.09 -0.74,-0.19 -1.1,-0.24 -0.19,-0.03 -0.41,-0.01 -0.6,0.05 -0.34,0.12 -0.4,0.5 -0.1,0.71 0.17,0.13 0.39,0.19 0.59,0.29 0.33,0.16 0.7,0.27 1,0.48 1.1,0.73 1.02,2.33 -0.14,2.98 -0.74,0.42 -1.55,0.43 -2.36,0.31 -0.39,-0.06 -0.77,-0.2 -1.21,-0.32 0.12,-0.48 0.22,-0.89 0.32,-1.32 0.39,0.12 0.74,0.25 1.09,0.32 0.29,0.05 0.6,0.04 0.9,0.01 0.18,-0.02 0.34,-0.14 0.36,-0.36 0.02,-0.21 -0.05,-0.37 -0.23,-0.47 -0.18,-0.1 -0.37,-0.16 -0.55,-0.25 -0.32,-0.15 -0.66,-0.27 -0.95,-0.45 -1.28,-0.82 -0.84,-2.3 -0.02,-2.83 0.24,-0.15 0.5,-0.28 0.78,-0.35 0.84,-0.23 1.66,-0.15 2.52,0.22 z"
   id="path96" />
		<path
   class="st4"
   d="m 172,28.74 c -0.11,0.44 -0.21,0.84 -0.32,1.25 -0.27,-0.08 -0.48,-0.18 -0.71,-0.22 -0.26,-0.05 -0.53,-0.06 -0.8,-0.06 -0.22,0.01 -0.39,0.12 -0.44,0.35 -0.05,0.23 0.08,0.39 0.28,0.48 0.21,0.1 0.44,0.18 0.65,0.28 0.29,0.13 0.6,0.24 0.86,0.42 1.04,0.72 0.99,2.28 -0.11,2.92 -0.26,0.15 -0.55,0.25 -0.84,0.32 -0.89,0.21 -1.95,0.07 -2.76,-0.35 0.04,-0.19 0.08,-0.4 0.13,-0.6 0.05,-0.21 0.11,-0.42 0.16,-0.65 0.34,0.1 0.65,0.23 0.97,0.29 0.29,0.06 0.6,0.07 0.9,0.06 0.23,0 0.43,-0.12 0.48,-0.37 0.05,-0.25 -0.09,-0.42 -0.3,-0.53 -0.18,-0.09 -0.38,-0.15 -0.56,-0.23 -0.33,-0.16 -0.69,-0.29 -0.98,-0.51 -0.84,-0.61 -0.92,-1.76 -0.19,-2.51 0.15,-0.15 0.33,-0.3 0.52,-0.39 1.01,-0.47 2.02,-0.36 3.06,0.05 z"
   id="path98" />
		<path
   class="st3"
   d="m 230.86,34.11 c 0.1,-0.42 0.2,-0.81 0.31,-1.22 0.34,0.11 0.65,0.23 0.97,0.29 0.31,0.06 0.63,0.07 0.95,0.06 0.21,-0.01 0.39,-0.13 0.43,-0.36 0.04,-0.23 -0.06,-0.4 -0.26,-0.5 -0.19,-0.1 -0.41,-0.16 -0.6,-0.26 -0.33,-0.16 -0.69,-0.29 -0.98,-0.51 -0.84,-0.61 -0.92,-1.7 -0.22,-2.48 0.37,-0.41 0.84,-0.62 1.37,-0.7 0.75,-0.11 1.48,-0.04 2.23,0.31 -0.09,0.4 -0.19,0.8 -0.29,1.24 -0.24,-0.07 -0.46,-0.17 -0.68,-0.2 -0.3,-0.05 -0.6,-0.08 -0.9,-0.05 -0.14,0.02 -0.32,0.19 -0.39,0.34 -0.09,0.19 0.06,0.36 0.23,0.45 0.21,0.11 0.43,0.2 0.64,0.29 0.23,0.1 0.47,0.18 0.69,0.3 0.67,0.36 0.99,0.93 0.94,1.7 -0.06,0.76 -0.48,1.24 -1.15,1.53 -0.94,0.4 -2.46,0.3 -3.29,-0.23 z"
   id="path100" />
		<path
   class="st3"
   d="m 187.77,12.46 c 0,0.57 0,1.06 0,1.58 0.44,0 0.84,0 1.27,0 0,0.47 0,0.9 0,1.4 -0.21,0 -0.42,0 -0.64,0 -0.2,0 -0.39,0 -0.62,0 0,0.86 -0.02,1.66 0.01,2.46 0.02,0.48 0.27,0.67 0.76,0.68 0.13,0 0.27,0 0.43,0 0.12,0.45 0.08,0.89 0.04,1.35 -0.61,0.18 -1.2,0.23 -1.8,0.07 -0.61,-0.16 -1,-0.55 -1.14,-1.16 -0.07,-0.29 -0.1,-0.6 -0.11,-0.9 -0.02,-0.66 -0.01,-1.31 -0.01,-1.97 0,-0.16 0,-0.33 0,-0.52 -0.27,-0.02 -0.5,-0.04 -0.76,-0.06 0,-0.45 0,-0.87 0,-1.33 0.24,-0.02 0.47,-0.03 0.74,-0.05 0,-0.34 0,-0.67 0,-1.05 0.59,-0.15 1.16,-0.31 1.83,-0.5 z"
   id="path102" />
		<path
   class="st4"
   d="m 118.48,15.46 c -0.27,-0.01 -0.49,-0.03 -0.75,-0.04 0,-0.43 0,-0.86 0,-1.34 0.22,-0.02 0.46,-0.04 0.74,-0.06 0,-0.35 0,-0.68 0,-1.05 0.6,-0.17 1.17,-0.32 1.81,-0.5 0,0.56 0,1.04 0,1.57 0.44,0 0.84,0 1.28,0 0,0.47 0,0.9 0,1.39 -0.4,0 -0.81,0 -1.25,0 0,0.88 -0.02,1.7 0.01,2.52 0.02,0.44 0.25,0.62 0.69,0.64 0.15,0.01 0.3,0 0.49,0 0,0.44 0,0.89 0,1.35 -0.49,0.17 -0.99,0.2 -1.49,0.13 -0.94,-0.13 -1.46,-0.72 -1.52,-1.73 -0.04,-0.74 -0.02,-1.48 -0.02,-2.22 0.01,-0.2 0.01,-0.4 0.01,-0.66 z"
   id="path104" />
		<path
   class="st3"
   d="m 154.93,44.4 c -0.29,-0.02 -0.51,-0.03 -0.75,-0.05 0,-0.44 0,-0.85 0,-1.32 0.23,-0.02 0.46,-0.04 0.73,-0.07 0,-0.34 0,-0.67 0,-1.05 0.61,-0.17 1.18,-0.33 1.83,-0.51 0,0.55 0,1.04 0,1.58 0.46,0 0.86,0 1.28,0 0,0.47 0,0.9 0,1.37 -0.42,0 -0.82,0 -1.28,0 0,0.22 0,0.4 0,0.58 0,0.49 -0.01,0.98 0,1.46 0,0.18 0.02,0.37 0.06,0.55 0.09,0.4 0.25,0.54 0.66,0.56 0.17,0.01 0.33,0 0.58,0 0,0.24 0,0.47 0,0.7 0,0.22 0,0.43 0,0.64 -0.58,0.21 -1.14,0.22 -1.69,0.13 -0.74,-0.13 -1.19,-0.6 -1.33,-1.34 -0.06,-0.33 -0.08,-0.67 -0.09,-1 -0.01,-0.72 0,-1.45 0,-2.23 z"
   id="path106" />
		<path
   class="st4"
   d="m 160.21,28.54 c 0,0.49 0,0.9 0,1.36 -0.43,0 -0.82,0 -1.28,0 0,0.32 0,0.6 0,0.88 0,0.5 -0.01,1.01 0.01,1.51 0.03,0.56 0.24,0.74 0.79,0.75 0.13,0 0.26,0 0.42,0 0,0.46 0,0.89 0,1.37 -0.65,0.18 -1.31,0.23 -1.96,0 -0.73,-0.26 -1.02,-0.86 -1.05,-1.57 -0.04,-0.7 -0.02,-1.41 -0.02,-2.12 0,-0.25 0,-0.5 0,-0.79 -0.26,-0.02 -0.49,-0.04 -0.76,-0.06 0,-0.42 0,-0.85 0,-1.33 0.22,-0.02 0.46,-0.04 0.74,-0.07 0,-0.35 0,-0.68 0,-1.05 0.6,-0.17 1.17,-0.32 1.81,-0.5 0,0.55 0,1.02 0,1.56 0.46,0.04 0.89,0.05 1.3,0.06 z"
   id="path108" />
		<path
   class="st5"
   d="m 224.76,44.36 c 0,0.9 -0.02,1.72 0.01,2.54 0.02,0.44 0.25,0.61 0.7,0.62 0.15,0 0.3,0 0.49,0 0,0.45 0,0.89 0,1.36 -0.55,0.19 -1.12,0.21 -1.68,0.09 -0.82,-0.17 -1.27,-0.72 -1.32,-1.62 -0.04,-0.77 -0.02,-1.55 -0.03,-2.32 0,-0.2 0,-0.4 0,-0.62 -0.28,-0.02 -0.5,-0.04 -0.76,-0.06 0,-0.44 0,-0.87 0,-1.32 0.25,-0.02 0.48,-0.04 0.75,-0.06 0,-0.35 0,-0.69 0,-1.05 0.32,-0.09 0.6,-0.18 0.89,-0.26 0.29,-0.08 0.57,-0.15 0.92,-0.24 0,0.54 0,1.02 0,1.55 0.44,0 0.84,0 1.28,0 0.06,0.48 0.04,0.9 0.01,1.38 -0.41,0.01 -0.8,0.01 -1.26,0.01 z"
   id="path110" />
		<path
   class="st3"
   d="m 142.6,48.8 c -1.13,0.32 -2.2,0.4 -3.24,-0.1 -1.25,-0.6 -1.65,-1.9 -1.49,-3.1 0.22,-1.62 1.38,-2.63 3.07,-2.72 0.59,-0.03 1.12,0.04 1.69,0.25 -0.09,0.43 -0.18,0.86 -0.27,1.31 -0.3,-0.05 -0.56,-0.1 -0.82,-0.13 -0.98,-0.1 -1.74,0.53 -1.79,1.48 -0.06,1.06 0.57,1.79 1.58,1.8 0.33,0 0.66,-0.08 1.06,-0.13 0.1,0.39 0.17,0.83 0.21,1.34 z"
   id="path112" />
		<path
   class="st3"
   d="m 261.85,25.9 c 0,2.86 0,5.68 0,8.53 -0.61,0 -1.19,0 -1.8,0 0,-2.83 0,-5.67 0,-8.53 0.59,0 1.17,0 1.8,0 z"
   id="path114" />
		<path
   class="st5"
   d="m 234,40.36 c 0.6,0 1.16,0 1.76,0 0,2.84 0,5.66 0,8.54 -0.57,0.05 -1.15,0.02 -1.72,0.02 -0.1,-0.37 -0.14,-7.83 -0.04,-8.56 z"
   id="path116" />
		<path
   class="st5"
   d="m 151.16,48.89 c 0,-2.84 0,-5.66 0,-8.54 0.58,-0.04 1.15,-0.01 1.73,-0.02 0.1,0.38 0.13,7.88 0.03,8.55 -0.57,0.01 -1.15,0.01 -1.76,0.01 z"
   id="path118" />
		<path
   class="st5"
   d="m 210.96,25.89 c 0.6,0 1.16,0 1.76,0 0,2.85 0,5.68 0,8.54 -0.59,0 -1.16,0 -1.72,0 -0.1,-0.35 -0.14,-7.73 -0.04,-8.54 z"
   id="path120" />
		<path
   class="st5"
   d="m 198.77,19.96 c -0.59,0 -1.15,0 -1.72,0 -0.11,-0.35 -0.15,-7.62 -0.04,-8.53 0.57,0 1.15,0 1.76,0 0,2.84 0,5.67 0,8.53 z"
   id="path122" />
		<path
   class="st5"
   d="m 265.38,34.44 c -0.6,0 -1.16,0 -1.76,0 0,-2.85 0,-5.68 0,-8.54 0.59,0 1.15,0 1.72,0 0.1,0.33 0.14,7.64 0.04,8.54 z"
   id="path124" />
		<path
   class="st3"
   d="m 121.16,28.44 c 0,0.55 0,1.1 0,1.68 -0.18,0 -0.35,0 -0.51,0 -0.76,0.02 -1.23,0.47 -1.24,1.24 -0.01,0.84 0,1.68 0,2.52 0,0.17 0,0.33 0,0.56 -0.61,0.03 -1.19,0.01 -1.83,0.02 0,-1.97 0,-3.91 0,-5.92 0.45,-0.03 0.95,-0.01 1.49,-0.01 0.04,0.31 0.07,0.59 0.12,0.98 0.47,-0.79 1.05,-1.24 1.97,-1.07 z"
   id="path126" />
		<path
   class="st3"
   d="m 249.93,34.43 c -0.61,0 -1.17,0 -1.74,0 -0.09,-0.28 -0.17,-5.32 -0.08,-5.88 0.49,0 0.99,0 1.51,0 0.03,0.3 0.06,0.57 0.09,0.88 1.04,-1.04 1.16,-1.1 1.99,-0.98 0,0.54 0,1.09 0,1.68 -0.17,0 -0.33,0 -0.5,0 -0.76,0.02 -1.23,0.46 -1.25,1.23 -0.02,0.92 -0.01,1.85 -0.01,2.78 0.01,0.07 0,0.15 -0.01,0.29 z"
   id="path128" />
		<path
   class="st4"
   d="m 191.95,29.55 c 0.47,-0.85 1.06,-1.27 1.97,-1.12 0,0.57 0,1.12 0,1.69 -0.17,0 -0.32,0 -0.46,0 -0.78,0.02 -1.24,0.43 -1.27,1.2 -0.03,0.86 -0.01,1.72 -0.02,2.57 0,0.17 0,0.33 0,0.53 -0.62,0 -1.2,0 -1.83,0 0,-1.93 0,-3.88 0,-5.86 0.47,0 0.96,0 1.5,0 0.04,0.29 0.07,0.58 0.11,0.99 z"
   id="path130" />
		<path
   class="st3"
   d="m 112.75,28.55 c 0.48,0 0.98,0 1.48,0 0.04,0.31 0.07,0.59 0.12,0.96 0.47,-0.78 1.04,-1.25 1.97,-1.08 0,0.55 0,1.1 0,1.68 -0.16,0 -0.3,0 -0.45,0 -0.81,0.01 -1.29,0.46 -1.31,1.28 -0.02,0.82 -0.01,1.65 -0.01,2.47 0,0.18 0,0.36 0,0.56 -0.62,0 -1.19,0 -1.82,0 0.02,-1.94 0.02,-3.89 0.02,-5.87 z"
   id="path132" />
		<path
   class="st5"
   d="m 168.46,48.9 c -0.62,0 -1.19,0 -1.81,0 0,-1.94 0,-3.88 0,-5.86 0.46,0 0.96,0 1.48,0 0.04,0.29 0.08,0.58 0.13,0.9 0.78,-0.99 1.16,-1.18 1.99,-1 0,0.54 0,1.09 0,1.67 -0.13,-0.01 -0.24,-0.01 -0.35,-0.02 -0.89,-0.03 -1.4,0.43 -1.42,1.32 -0.02,0.79 -0.01,1.58 -0.01,2.37 -0.01,0.19 -0.01,0.38 -0.01,0.62 z"
   id="path134" />
		<path
   class="st3"
   d="m 246.88,30.12 c -0.18,0 -0.32,0 -0.45,0 -0.81,0.01 -1.29,0.46 -1.31,1.28 -0.02,0.77 -0.01,1.55 -0.01,2.32 0,0.23 0,0.46 0,0.72 -0.62,0 -1.19,0 -1.82,0 -0.06,-1.94 0.02,-3.88 -0.05,-5.84 0.24,-0.13 0.5,-0.06 0.74,-0.07 0.25,-0.01 0.5,0 0.78,0 0.04,0.32 0.08,0.62 0.12,0.89 0.28,-0.27 0.54,-0.57 0.85,-0.81 0.32,-0.24 0.71,-0.27 1.14,-0.17 0.01,0.55 0.01,1.1 0.01,1.68 z"
   id="path136" />
		<path
   class="st3"
   d="m 168.33,14.08 c 0.61,0 1.19,0 1.8,0 0,1.97 0,3.91 0,5.88 -0.6,0 -1.19,0 -1.8,0 0,-1.94 0,-3.89 0,-5.88 z"
   id="path138" />
		<path
   class="st6"
   d="m 122.9,14.08 c 0.61,0 1.19,0 1.81,0 0,1.95 0,3.89 0,5.87 -0.59,0 -1.19,0 -1.81,0 0,-1.96 0,-3.9 0,-5.87 z"
   id="path140" />
		<path
   class="st6"
   d="m 139.49,28.55 c 0.61,0 1.19,0 1.81,0 0,1.96 0,3.9 0,5.88 -0.59,0 -1.17,0 -1.76,0 -0.11,-0.35 -0.15,-4.74 -0.05,-5.88 z"
   id="path142" />
		<path
   class="st5"
   d="m 205.29,48.93 c 0,-2 0,-3.93 0,-5.89 0.6,0 1.18,0 1.79,0 0,1.95 0,3.88 0,5.88 -0.57,0.02 -1.15,0 -1.79,0.01 z"
   id="path144" />
		<path
   class="st2"
   d="m 44.06,34.69 c 0,0.48 0,0.91 0,1.35 0,0.06 -0.02,0.13 -0.03,0.21 -2.06,0 -4.11,0 -6.19,0 0,-0.51 0,-1.02 0,-1.56 2.05,0 4.11,0 6.22,0 z"
   id="path146" />
		<path
   class="st4"
   d="m 202.55,19 c 0,0.65 -0.41,1.09 -1.05,1.1 -0.65,0.01 -1.1,-0.44 -1.1,-1.11 0,-0.65 0.43,-1.1 1.06,-1.11 0.65,0 1.09,0.44 1.09,1.12 z"
   id="path148" />
		<path
   class="st3"
   d="m 202.55,15.09 c 0.01,0.67 -0.44,1.13 -1.09,1.12 -0.62,0 -1.06,-0.46 -1.06,-1.1 0,-0.65 0.42,-1.1 1.04,-1.12 0.64,-0.03 1.1,0.43 1.11,1.1 z"
   id="path150" />
		<path
   class="st7"
   d="m 207.18,41.37 c 0.01,0.53 -0.39,0.93 -0.97,0.94 -0.56,0.01 -0.98,-0.38 -0.98,-0.92 0,-0.55 0.39,-0.93 0.97,-0.94 0.55,-0.01 0.97,0.37 0.98,0.92 z"
   id="path152" />
		<path
   class="st7"
   d="m 169.23,11.51 c 0.58,0 0.97,0.37 0.98,0.92 0,0.55 -0.39,0.92 -0.98,0.92 -0.58,0 -0.98,-0.37 -0.98,-0.92 0,-0.54 0.4,-0.92 0.98,-0.92 z"
   id="path154" />
		<path
   class="st7"
   d="m 124.79,12.43 c 0,0.55 -0.38,0.91 -0.97,0.92 -0.58,0 -0.97,-0.36 -0.97,-0.92 0,-0.55 0.39,-0.92 0.97,-0.92 0.59,0 0.96,0.36 0.97,0.92 z"
   id="path156" />
		<path
   class="st7"
   d="m 141.36,26.89 c 0.01,0.55 -0.37,0.92 -0.96,0.93 -0.58,0.01 -0.97,-0.36 -0.98,-0.91 -0.01,-0.55 0.38,-0.93 0.96,-0.94 0.57,0 0.97,0.37 0.98,0.92 z"
   id="path158" />
		<path
   class="st7"
   d="m 128.36,13.34 c 0.35,-0.62 0.64,-1.15 0.95,-1.66 0.06,-0.09 0.21,-0.17 0.32,-0.17 0.45,-0.02 0.9,-0.01 1.41,-0.01 -0.08,0.13 -0.12,0.24 -0.18,0.32 -0.34,0.43 -0.7,0.86 -1.03,1.3 -0.12,0.16 -0.26,0.24 -0.47,0.23 -0.3,-0.02 -0.6,-0.01 -1,-0.01 z"
   id="path160" />
	</g>
</g>
</svg>
